<svg xmlns="http://www.w3.org/2000/svg" xmlns:xlink="http://www.w3.org/1999/xlink" width="2000" zoomAndPan="magnify" viewBox="0 0 1500 1499.999933" height="2000" preserveAspectRatio="xMidYMid meet" version="1.0"><defs><clipPath id="eae20a431d"><path d="M 38.183594 38.183594 L 1451.933594 38.183594 L 1451.933594 1444 L 38.183594 1444 Z M 38.183594 38.183594 " clip-rule="nonzero"/></clipPath><clipPath id="47b038c0ac"><path d="M 455 314 L 1061 314 L 1061 1451.933594 L 455 1451.933594 Z M 455 314 " clip-rule="nonzero"/></clipPath></defs><g clip-path="url(#eae20a431d)"><path fill="#000000" d="M 1452.273438 745.226562 C 1452.273438 354.738281 1135.714844 38.183594 745.226562 38.183594 C 354.738281 38.183594 38.183594 354.738281 38.183594 745.226562 C 38.183594 1098.132812 296.738281 1390.640625 634.75 1443.683594 L 634.75 949.605469 L 455.226562 949.605469 L 455.226562 745.226562 L 634.75 745.226562 L 634.75 589.453125 C 634.75 412.25 740.308594 314.371094 901.8125 314.371094 C 979.167969 314.371094 1060.082031 328.179688 1060.082031 328.179688 L 1060.082031 502.179688 L 970.925781 502.179688 C 883.09375 502.179688 855.703125 556.683594 855.703125 612.597656 L 855.703125 745.226562 L 1051.796875 745.226562 L 1020.449219 949.605469 L 855.703125 949.605469 L 855.703125 1443.683594 C 1193.714844 1390.640625 1452.273438 1098.132812 1452.273438 745.226562 " fill-opacity="1" fill-rule="nonzero"/></g><g clip-path="url(#47b038c0ac)"><path fill="#ffffff" d="M 1020.449219 949.605469 L 1051.796875 745.226562 L 855.703125 745.226562 L 855.703125 612.597656 C 855.703125 556.683594 883.09375 502.179688 970.925781 502.179688 L 1060.082031 502.179688 L 1060.082031 328.179688 C 1060.082031 328.179688 979.167969 314.371094 901.8125 314.371094 C 740.308594 314.371094 634.75 412.25 634.75 589.453125 L 634.75 745.226562 L 455.226562 745.226562 L 455.226562 949.605469 L 634.75 949.605469 L 634.75 1443.683594 C 670.746094 1449.332031 707.644531 1452.273438 745.226562 1452.273438 C 782.808594 1452.273438 819.707031 1449.332031 855.703125 1443.683594 L 855.703125 949.605469 L 1020.449219 949.605469 " fill-opacity="1" fill-rule="nonzero"/></g></svg>