<svg xmlns="http://www.w3.org/2000/svg" xmlns:xlink="http://www.w3.org/1999/xlink" width="2000" zoomAndPan="magnify" viewBox="0 0 1500 1499.999933" height="2000" preserveAspectRatio="xMidYMid meet" version="1.0"><path fill="#000000" d="M 670.835938 78.242188 C 357.878906 112.929688 102.863281 365.464844 65.097656 677.945312 C 63.878906 687.757812 62.867188 697.585938 62.066406 707.441406 C 61.269531 717.292969 60.679688 727.160156 60.304688 737.039062 C 59.925781 746.914062 59.761719 756.796875 59.808594 766.683594 C 59.855469 776.566406 60.113281 786.449219 60.582031 796.320312 C 61.054688 806.195312 61.734375 816.054688 62.628906 825.902344 C 63.519531 835.746094 64.621094 845.566406 65.9375 855.363281 C 67.25 865.164062 68.773438 874.929688 70.503906 884.660156 C 72.238281 894.394531 74.175781 904.082031 76.324219 913.734375 C 78.472656 923.382812 80.824219 932.980469 83.382812 942.53125 C 85.941406 952.078125 88.703125 961.566406 91.667969 971 C 94.632812 980.429688 97.800781 989.789062 101.167969 999.085938 C 104.53125 1008.378906 108.097656 1017.597656 111.859375 1026.738281 C 115.621094 1035.882812 119.574219 1044.9375 123.726562 1053.910156 C 127.875 1062.882812 132.214844 1071.761719 136.746094 1080.546875 C 141.277344 1089.332031 145.992188 1098.019531 150.894531 1106.601562 C 155.796875 1115.1875 160.878906 1123.660156 166.144531 1132.027344 C 171.410156 1140.394531 176.855469 1148.644531 182.472656 1156.777344 C 188.09375 1164.910156 193.882812 1172.917969 199.847656 1180.804688 C 205.808594 1188.6875 211.9375 1196.441406 218.230469 1204.0625 C 224.527344 1211.683594 230.980469 1219.167969 237.597656 1226.515625 C 244.210938 1233.859375 250.980469 1241.058594 257.90625 1248.117188 C 264.828125 1255.171875 271.902344 1262.074219 279.121094 1268.828125 C 286.339844 1275.578125 293.703125 1282.171875 301.203125 1288.609375 C 308.707031 1295.046875 316.34375 1301.320312 324.113281 1307.429688 C 331.886719 1313.539062 339.785156 1319.480469 347.808594 1325.25 C 355.835938 1331.019531 363.980469 1336.617188 372.246094 1342.039062 C 380.511719 1347.460938 388.890625 1352.703125 397.382812 1357.765625 C 405.871094 1362.828125 414.464844 1367.707031 423.164062 1372.402344 C 431.863281 1377.09375 440.660156 1381.601562 449.554688 1385.917969 C 458.445312 1390.234375 467.425781 1394.359375 476.496094 1398.292969 C 485.566406 1402.226562 494.714844 1405.960938 503.941406 1409.503906 C 513.171875 1413.042969 522.472656 1416.382812 531.847656 1419.527344 C 566.386719 1425.046875 577.425781 1403.648438 577.425781 1385.035156 L 577.425781 1268.367188 C 386.261719 1309.894531 345.566406 1175.933594 345.566406 1175.933594 C 313.910156 1095.855469 268.964844 1074.457031 268.964844 1074.457031 C 206.136719 1031.660156 273.847656 1033.078125 273.847656 1033.078125 C 342.832031 1037.964844 379.421875 1104.164062 379.421875 1104.164062 C 439.464844 1209.054688 540.882812 1177.984375 580.210938 1161.421875 C 586.414062 1116.570312 604.636719 1086.183594 623.691406 1068.9375 C 470.242188 1051.691406 309.660156 992.332031 309.660156 729.441406 C 309.660156 652.835938 335.894531 591.421875 380.742188 542.421875 C 373.851562 525.175781 349.671875 453.40625 387.628906 360.238281 C 387.628906 360.238281 445.617188 341.574219 577.425781 430.640625 C 591.472656 426.855469 605.628906 423.539062 619.894531 420.6875 C 634.160156 417.839844 648.503906 415.460938 662.925781 413.550781 C 677.347656 411.644531 691.816406 410.210938 706.332031 409.257812 C 720.847656 408.300781 735.382812 407.824219 749.929688 407.824219 C 764.476562 407.824219 779.007812 408.300781 793.523438 409.257812 C 808.039062 410.210938 822.507812 411.644531 836.929688 413.550781 C 851.351562 415.460938 865.695312 417.839844 879.960938 420.6875 C 894.226562 423.539062 908.382812 426.855469 922.429688 430.640625 C 1054.335938 341.574219 1112.226562 360.238281 1112.226562 360.238281 C 1150.136719 453.40625 1126.003906 525.175781 1119.117188 542.421875 C 1163.964844 591.277344 1190.199219 652.835938 1190.199219 729.441406 C 1190.199219 993.015625 1028.6875 1051.007812 874.847656 1068.253906 C 899.664062 1089.652344 922.429688 1131.765625 922.429688 1195.914062 L 922.429688 1385.035156 C 922.429688 1403.648438 933.472656 1425.730469 968.695312 1419.527344 C 978.699219 1416.171875 988.621094 1412.59375 998.460938 1408.789062 C 1008.296875 1404.980469 1018.046875 1400.949219 1027.699219 1396.699219 C 1037.355469 1392.445312 1046.90625 1387.972656 1056.355469 1383.28125 C 1065.808594 1378.589844 1075.144531 1373.683594 1084.371094 1368.566406 C 1093.59375 1363.445312 1102.699219 1358.117188 1111.679688 1352.582031 C 1120.660156 1347.046875 1129.507812 1341.308594 1138.226562 1335.367188 C 1146.945312 1329.425781 1155.523438 1323.285156 1163.960938 1316.953125 C 1172.394531 1310.617188 1180.683594 1304.09375 1188.820312 1297.378906 C 1196.957031 1290.664062 1204.9375 1283.765625 1212.761719 1276.6875 C 1220.582031 1269.605469 1228.238281 1262.351562 1235.726562 1254.921875 C 1243.214844 1247.488281 1250.53125 1239.890625 1257.671875 1232.125 C 1264.8125 1224.359375 1271.773438 1216.433594 1278.550781 1208.347656 C 1285.332031 1200.261719 1291.917969 1192.027344 1298.320312 1183.640625 C 1304.722656 1175.253906 1310.925781 1166.722656 1316.9375 1158.054688 C 1322.945312 1149.382812 1328.753906 1140.578125 1334.359375 1131.640625 C 1339.96875 1122.703125 1345.367188 1113.640625 1350.558594 1104.457031 C 1355.75 1095.273438 1360.726562 1085.972656 1365.492188 1076.5625 C 1370.257812 1067.148438 1374.804688 1057.628906 1379.132812 1048.007812 C 1383.464844 1038.386719 1387.570312 1028.671875 1391.453125 1018.863281 C 1395.339844 1009.054688 1398.996094 999.160156 1402.425781 989.183594 C 1405.859375 979.207031 1409.058594 969.15625 1412.027344 959.03125 C 1415 948.910156 1417.734375 938.722656 1420.238281 928.472656 C 1422.742188 918.222656 1425.011719 907.921875 1427.042969 897.570312 C 1429.074219 887.21875 1430.867188 876.824219 1432.421875 866.386719 C 1433.976562 855.953125 1435.292969 845.488281 1436.371094 834.992188 C 1437.445312 824.496094 1438.28125 813.980469 1438.875 803.449219 C 1439.46875 792.914062 1439.820312 782.371094 1439.933594 771.824219 C 1440.042969 761.273438 1439.914062 750.726562 1439.539062 740.183594 C 1439.167969 729.636719 1438.554688 719.109375 1437.699219 708.59375 C 1436.847656 698.078125 1435.75 687.585938 1434.414062 677.121094 C 1433.082031 666.65625 1431.507812 656.226562 1429.691406 645.832031 C 1427.878906 635.4375 1425.828125 625.089844 1423.542969 614.792969 C 1421.253906 604.492188 1418.734375 594.25 1415.976562 584.066406 C 1413.21875 573.882812 1410.230469 563.765625 1407.011719 553.71875 C 1403.792969 543.671875 1400.34375 533.703125 1396.667969 523.816406 C 1392.992188 513.925781 1389.089844 504.128906 1384.964844 494.417969 C 1380.835938 484.707031 1376.492188 475.097656 1371.925781 465.585938 C 1367.359375 456.074219 1362.578125 446.671875 1357.582031 437.378906 C 1352.585938 428.089844 1347.378906 418.914062 1341.960938 409.863281 C 1336.542969 400.808594 1330.921875 391.882812 1325.09375 383.085938 C 1319.269531 374.292969 1313.246094 365.632812 1307.023438 357.113281 C 1300.800781 348.59375 1294.386719 340.222656 1287.777344 331.996094 C 1281.171875 323.769531 1274.382812 315.699219 1267.40625 307.785156 C 1260.429688 299.871094 1253.273438 292.121094 1245.945312 284.53125 C 1238.613281 276.945312 1231.113281 269.53125 1223.441406 262.289062 C 1215.769531 255.042969 1207.9375 247.980469 1199.941406 241.097656 C 1191.949219 234.210938 1183.800781 227.515625 1175.496094 221.003906 C 1167.195312 214.492188 1158.75 208.175781 1150.160156 202.050781 C 1141.566406 195.925781 1132.839844 190.003906 1123.980469 184.28125 C 1115.117188 178.554688 1106.128906 173.039062 1097.011719 167.726562 C 1087.898438 162.414062 1078.664062 157.3125 1069.316406 152.421875 C 1059.96875 147.535156 1050.511719 142.863281 1040.949219 138.40625 C 1031.386719 133.949219 1021.726562 129.714844 1011.96875 125.703125 C 1002.210938 121.691406 992.367188 117.902344 982.4375 114.339844 C 972.507812 110.777344 962.5 107.445312 952.414062 104.34375 C 942.332031 101.238281 932.183594 98.367188 921.96875 95.730469 C 911.753906 93.089844 901.484375 90.6875 891.160156 88.519531 C 880.835938 86.351562 870.464844 84.421875 860.050781 82.730469 C 849.636719 81.035156 839.191406 79.582031 828.710938 78.367188 C 818.230469 77.15625 807.730469 76.179688 797.203125 75.449219 C 786.679688 74.714844 776.144531 74.222656 765.597656 73.972656 C 755.050781 73.722656 744.503906 73.714844 733.957031 73.949219 C 723.40625 74.183594 712.871094 74.65625 702.347656 75.375 C 691.820312 76.089844 681.316406 77.046875 670.835938 78.242188 Z M 670.835938 78.242188 " fill-opacity="1" fill-rule="nonzero"/></svg>