<svg xmlns="http://www.w3.org/2000/svg" xmlns:xlink="http://www.w3.org/1999/xlink" width="2000" zoomAndPan="magnify" viewBox="0 0 1500 1499.999933" height="2000" preserveAspectRatio="xMidYMid meet" version="1.0"><path fill="#000000" d="M 502.839844 150 C 309.160156 150 150 308.949219 150 502.839844 L 150 997.160156 C 150 1190.835938 308.949219 1350 502.839844 1350 L 997.160156 1350 C 1190.839844 1350 1350 1191.050781 1350 997.160156 L 1350 502.839844 C 1350 309.160156 1191.050781 150 997.160156 150 Z M 502.839844 259.089844 L 997.160156 259.089844 C 1132.03125 259.089844 1240.910156 367.96875 1240.910156 502.839844 L 1240.910156 997.160156 C 1240.910156 1132.03125 1132.03125 1240.910156 997.160156 1240.910156 L 502.839844 1240.910156 C 367.96875 1240.910156 259.089844 1132.03125 259.089844 997.160156 L 259.089844 502.839844 C 259.089844 367.96875 367.96875 259.089844 502.839844 259.089844 Z M 1072.160156 378.410156 C 1044.671875 378.410156 1022.726562 400.355469 1022.726562 427.839844 C 1022.726562 455.328125 1044.671875 477.273438 1072.160156 477.273438 C 1099.644531 477.273438 1121.589844 455.328125 1121.589844 427.839844 C 1121.589844 400.355469 1099.644531 378.410156 1072.160156 378.410156 Z M 750 422.726562 C 569.957031 422.726562 422.726562 569.957031 422.726562 750 C 422.726562 930.042969 569.957031 1077.273438 750 1077.273438 C 930.042969 1077.273438 1077.273438 930.042969 1077.273438 750 C 1077.273438 569.957031 930.042969 422.726562 750 422.726562 Z M 750 531.816406 C 871.234375 531.816406 968.183594 628.765625 968.183594 750 C 968.183594 871.234375 871.234375 968.183594 750 968.183594 C 628.765625 968.183594 531.816406 871.234375 531.816406 750 C 531.816406 628.765625 628.765625 531.816406 750 531.816406 Z M 750 531.816406 " fill-opacity="1" fill-rule="nonzero"/></svg>