<svg xmlns="http://www.w3.org/2000/svg" xmlns:xlink="http://www.w3.org/1999/xlink" width="2000" zoomAndPan="magnify" viewBox="0 0 1500 1499.999933" height="2000" preserveAspectRatio="xMidYMid meet" version="1.0"><defs><clipPath id="6d811b98c0"><path d="M 37.289062 38.183594 L 1453 38.183594 L 1453 1451.933594 L 37.289062 1451.933594 Z M 37.289062 38.183594 " clip-rule="nonzero"/></clipPath></defs><g clip-path="url(#6d811b98c0)"><path fill="#000000" d="M 1452.757812 745.027344 C 1452.757812 756.59375 1452.472656 768.15625 1451.90625 779.710938 C 1451.335938 791.261719 1450.484375 802.796875 1449.351562 814.308594 C 1448.214844 825.820312 1446.796875 837.300781 1445.097656 848.742188 C 1443.402344 860.183594 1441.421875 871.578125 1439.164062 882.925781 C 1436.902344 894.269531 1434.367188 905.554688 1431.554688 916.773438 C 1428.742188 927.996094 1425.652344 939.140625 1422.292969 950.210938 C 1418.933594 961.28125 1415.300781 972.261719 1411.398438 983.15625 C 1407.5 994.046875 1403.332031 1004.835938 1398.902344 1015.523438 C 1394.472656 1026.210938 1389.78125 1036.785156 1384.832031 1047.242188 C 1379.878906 1057.699219 1374.675781 1068.027344 1369.21875 1078.230469 C 1363.761719 1088.433594 1358.054688 1098.496094 1352.101562 1108.417969 C 1346.148438 1118.339844 1339.957031 1128.109375 1333.523438 1137.726562 C 1327.09375 1147.347656 1320.425781 1156.800781 1313.53125 1166.09375 C 1306.632812 1175.382812 1299.511719 1184.5 1292.164062 1193.445312 C 1284.820312 1202.386719 1277.261719 1211.140625 1269.484375 1219.714844 C 1261.710938 1228.285156 1253.726562 1236.660156 1245.539062 1244.839844 C 1237.351562 1253.019531 1228.96875 1260.996094 1220.390625 1268.761719 C 1211.8125 1276.53125 1203.046875 1284.085938 1194.097656 1291.425781 C 1185.148438 1298.761719 1176.023438 1305.878906 1166.722656 1312.769531 C 1157.421875 1319.660156 1147.957031 1326.320312 1138.332031 1332.746094 C 1128.703125 1339.171875 1118.925781 1345.359375 1108.992188 1351.308594 C 1099.0625 1357.253906 1088.992188 1362.953125 1078.78125 1368.40625 C 1068.570312 1373.859375 1058.230469 1379.058594 1047.761719 1384.003906 C 1037.296875 1388.953125 1026.714844 1393.636719 1016.015625 1398.066406 C 1005.320312 1402.492188 994.519531 1406.652344 983.617188 1410.550781 C 972.71875 1414.449219 961.726562 1418.074219 950.648438 1421.433594 C 939.566406 1424.792969 928.410156 1427.875 917.179688 1430.6875 C 905.949219 1433.5 894.652344 1436.03125 883.296875 1438.289062 C 871.941406 1440.546875 860.539062 1442.523438 849.085938 1444.21875 C 837.632812 1445.917969 826.144531 1447.332031 814.621094 1448.46875 C 803.097656 1449.601562 791.554688 1450.453125 779.988281 1451.019531 C 768.425781 1451.585938 756.855469 1451.871094 745.277344 1451.871094 C 733.695312 1451.871094 722.125 1451.585938 710.5625 1451.019531 C 698.996094 1450.453125 687.453125 1449.601562 675.929688 1448.46875 C 664.40625 1447.332031 652.917969 1445.917969 641.464844 1444.21875 C 630.011719 1442.523438 618.609375 1440.546875 607.253906 1438.289062 C 595.898438 1436.03125 584.601562 1433.5 573.371094 1430.6875 C 562.140625 1427.875 550.984375 1424.792969 539.90625 1421.433594 C 528.824219 1418.074219 517.835938 1414.449219 506.933594 1410.550781 C 496.03125 1406.652344 485.230469 1402.492188 474.535156 1398.066406 C 463.835938 1393.636719 453.253906 1388.953125 442.789062 1384.003906 C 432.320312 1379.058594 421.984375 1373.859375 411.769531 1368.40625 C 401.558594 1362.953125 391.488281 1357.253906 381.558594 1351.308594 C 371.625 1345.359375 361.847656 1339.171875 352.21875 1332.746094 C 342.59375 1326.320312 333.128906 1319.660156 323.828125 1312.769531 C 314.53125 1305.878906 305.40625 1298.761719 296.453125 1291.425781 C 287.503906 1284.085938 278.738281 1276.53125 270.160156 1268.761719 C 261.582031 1260.996094 253.199219 1253.019531 245.011719 1244.839844 C 236.824219 1236.660156 228.84375 1228.285156 221.066406 1219.714844 C 213.292969 1211.140625 205.730469 1202.386719 198.386719 1193.445312 C 191.039062 1184.5 183.917969 1175.382812 177.019531 1166.09375 C 170.125 1156.800781 163.460938 1147.347656 157.027344 1137.726562 C 150.59375 1128.109375 144.402344 1118.339844 138.449219 1108.417969 C 132.496094 1098.496094 126.789062 1088.433594 121.332031 1078.230469 C 115.875 1068.027344 110.671875 1057.699219 105.71875 1047.242188 C 100.769531 1036.785156 96.078125 1026.210938 91.648438 1015.523438 C 87.21875 1004.835938 83.050781 994.046875 79.152344 983.15625 C 75.25 972.261719 71.621094 961.28125 68.257812 950.210938 C 64.898438 939.140625 61.808594 927.996094 58.996094 916.773438 C 56.183594 905.554688 53.648438 894.269531 51.386719 882.925781 C 49.128906 871.578125 47.152344 860.183594 45.453125 848.742188 C 43.753906 837.300781 42.335938 825.820312 41.199219 814.308594 C 40.066406 802.796875 39.214844 791.261719 38.648438 779.710938 C 38.078125 768.15625 37.792969 756.59375 37.792969 745.027344 C 37.792969 733.457031 38.078125 721.898438 38.648438 710.34375 C 39.214844 698.789062 40.066406 687.253906 41.199219 675.742188 C 42.335938 664.230469 43.753906 652.753906 45.453125 641.3125 C 47.152344 629.867188 49.128906 618.472656 51.386719 607.128906 C 53.648438 595.78125 56.183594 584.5 58.996094 573.277344 C 61.808594 562.054688 64.898438 550.910156 68.257812 539.839844 C 71.621094 528.769531 75.25 517.789062 79.152344 506.898438 C 83.050781 496.003906 87.21875 485.214844 91.648438 474.527344 C 96.078125 463.839844 100.769531 453.269531 105.71875 442.8125 C 110.671875 432.355469 115.875 422.023438 121.332031 411.820312 C 126.789062 401.621094 132.496094 391.558594 138.449219 381.636719 C 144.402344 371.714844 150.59375 361.941406 157.027344 352.324219 C 163.460938 342.707031 170.125 333.25 177.019531 323.960938 C 183.917969 314.667969 191.039062 305.550781 198.386719 296.609375 C 205.730469 287.667969 213.292969 278.910156 221.066406 270.339844 C 228.84375 261.765625 236.824219 253.390625 245.011719 245.210938 C 253.199219 237.03125 261.582031 229.058594 270.160156 221.289062 C 278.738281 213.519531 287.503906 205.964844 296.453125 198.628906 C 305.40625 191.289062 314.53125 184.175781 323.828125 177.285156 C 333.128906 170.390625 342.59375 163.734375 352.21875 157.304688 C 361.847656 150.878906 371.625 144.691406 381.558594 138.746094 C 391.488281 132.796875 401.558594 127.097656 411.769531 121.644531 C 421.984375 116.191406 432.320312 110.992188 442.789062 106.046875 C 453.253906 101.101562 463.835938 96.414062 474.535156 91.988281 C 485.230469 87.558594 496.03125 83.398438 506.933594 79.5 C 517.835938 75.605469 528.824219 71.976562 539.90625 68.617188 C 550.984375 65.261719 562.140625 62.175781 573.371094 59.363281 C 584.601562 56.554688 595.898438 54.019531 607.253906 51.761719 C 618.609375 49.507812 630.011719 47.53125 641.464844 45.832031 C 652.917969 44.136719 664.40625 42.71875 675.929688 41.585938 C 687.453125 40.453125 698.996094 39.601562 710.5625 39.035156 C 722.125 38.464844 733.695312 38.183594 745.277344 38.183594 C 756.855469 38.183594 768.425781 38.464844 779.988281 39.035156 C 791.554688 39.601562 803.097656 40.453125 814.621094 41.585938 C 826.144531 42.71875 837.632812 44.136719 849.085938 45.832031 C 860.539062 47.53125 871.941406 49.507812 883.296875 51.761719 C 894.652344 54.019531 905.949219 56.554688 917.179688 59.363281 C 928.410156 62.175781 939.566406 65.261719 950.648438 68.617188 C 961.726562 71.976562 972.71875 75.605469 983.617188 79.5 C 994.519531 83.398438 1005.320312 87.558594 1016.015625 91.988281 C 1026.714844 96.414062 1037.296875 101.101562 1047.761719 106.046875 C 1058.230469 110.992188 1068.570312 116.191406 1078.78125 121.644531 C 1088.992188 127.097656 1099.0625 132.796875 1108.992188 138.746094 C 1118.925781 144.691406 1128.703125 150.878906 1138.332031 157.304688 C 1147.957031 163.734375 1157.421875 170.390625 1166.722656 177.285156 C 1176.023438 184.175781 1185.148438 191.289062 1194.097656 198.628906 C 1203.046875 205.964844 1211.8125 213.519531 1220.390625 221.289062 C 1228.96875 229.058594 1237.351562 237.03125 1245.539062 245.210938 C 1253.726562 253.390625 1261.710938 261.765625 1269.484375 270.339844 C 1277.261719 278.910156 1284.820312 287.667969 1292.164062 296.609375 C 1299.511719 305.550781 1306.632812 314.667969 1313.53125 323.960938 C 1320.425781 333.25 1327.09375 342.707031 1333.523438 352.324219 C 1339.957031 361.941406 1346.148438 371.714844 1352.101562 381.636719 C 1358.054688 391.558594 1363.761719 401.621094 1369.21875 411.820312 C 1374.675781 422.023438 1379.878906 432.355469 1384.832031 442.8125 C 1389.78125 453.269531 1394.472656 463.839844 1398.902344 474.527344 C 1403.332031 485.214844 1407.5 496.003906 1411.398438 506.898438 C 1415.300781 517.789062 1418.933594 528.769531 1422.292969 539.839844 C 1425.652344 550.910156 1428.742188 562.054688 1431.554688 573.277344 C 1434.367188 584.5 1436.902344 595.78125 1439.164062 607.128906 C 1441.421875 618.472656 1443.402344 629.867188 1445.097656 641.3125 C 1446.796875 652.753906 1448.214844 664.230469 1449.351562 675.742188 C 1450.484375 687.253906 1451.335938 698.789062 1451.90625 710.34375 C 1452.472656 721.898438 1452.757812 733.457031 1452.757812 745.027344 Z M 1452.757812 745.027344 " fill-opacity="1" fill-rule="nonzero"/></g><path fill="#ffffff" d="M 832.5 678.617188 L 1178.515625 280.125 L 1097.027344 280.125 L 795.921875 626.050781 L 561.097656 288.910156 L 293.59375 288.910156 L 647.96875 796.035156 L 287.964844 1209.59375 L 371.46875 1209.59375 L 684.824219 848.722656 L 937.222656 1209.941406 L 1202.648438 1209.941406 Z M 722.867188 804.878906 L 686.074219 752.238281 L 401.609375 345.160156 L 531.65625 345.160156 L 757.800781 669.816406 L 794.410156 722.441406 L 1094.785156 1153.640625 L 966.570312 1153.640625 Z M 722.867188 804.878906 " fill-opacity="1" fill-rule="nonzero"/></svg>