<svg xmlns="http://www.w3.org/2000/svg" xmlns:xlink="http://www.w3.org/1999/xlink" width="1000" zoomAndPan="magnify" viewBox="0 0 750 187.499995" height="250" preserveAspectRatio="xMidYMid meet" version="1.0"><path fill="#000000" d="M 190.132812 56.363281 C 192.28125 52.90625 191.886719 50.042969 188.765625 47.375 C 188.308594 46.980469 187.785156 46.660156 187.269531 46.335938 C 183.167969 43.789062 178.539062 42.816406 173.785156 42.621094 C 164.539062 42.164062 155.421875 43.332031 146.367188 44.640625 C 119.214844 48.675781 92.382812 54.667969 66.144531 62.613281 C 52.597656 66.714844 39.25 71.402344 26.546875 77.847656 C 22.574219 79.933594 18.601562 82.085938 15.480469 85.40625 C 12.675781 88.335938 12.875 91.332031 15.867188 94.066406 C 18.414062 96.472656 21.535156 97.839844 24.855469 98.753906 C 38.65625 102.597656 52.726562 104.160156 67.054688 103.570312 C 68.226562 103.570312 69.335938 103.378906 70.246094 102.527344 C 70.574219 102.269531 71.21875 102.46875 71.15625 101.945312 C 71.15625 101.359375 70.503906 101.160156 70.046875 101.101562 C 69.394531 100.902344 68.679688 100.902344 67.96875 100.902344 C 66.789062 100.835938 65.621094 100.902344 64.511719 100.835938 C 56.304688 100.378906 48.167969 99.277344 40.09375 97.582031 C 35.535156 96.601562 31.039062 95.628906 26.617188 94.195312 C 24.65625 93.542969 24.398438 92.628906 25.507812 90.9375 C 26.023438 90.222656 26.617188 89.566406 27.203125 88.984375 C 28.757812 87.488281 30.523438 86.316406 32.34375 85.277344 C 41.917969 79.675781 52.203125 75.703125 62.6875 72.246094 C 95.574219 61.4375 129.175781 53.558594 163.628906 49.652344 C 168.511719 49.128906 173.457031 48.871094 178.410156 48.941406 C 179.648438 49 179.777344 49.394531 179.382812 50.367188 C 178.601562 52.128906 177.429688 53.558594 176.132812 54.925781 C 173.132812 57.988281 169.75 60.660156 166.292969 63.132812 C 153.46875 72.511719 139.726562 80.324219 125.984375 88.199219 C 121.820312 90.546875 117.589844 92.894531 113.417969 95.234375 C 113.289062 95.105469 113.222656 95.039062 113.09375 94.976562 C 113.488281 94.324219 113.808594 93.671875 114.203125 93.023438 C 119.277344 84.296875 124.425781 75.507812 129.503906 66.777344 C 130.871094 64.308594 132.304688 61.894531 133.476562 59.285156 C 133.734375 58.640625 134.058594 57.917969 133.347656 57.273438 C 131.847656 55.90625 130.027344 56.035156 128.789062 57.601562 C 128.332031 58.183594 127.945312 58.832031 127.488281 59.421875 C 119.277344 71.464844 111.335938 83.644531 103.90625 96.214844 C 101.371094 100.445312 98.507812 103.707031 93.878906 105.589844 C 91.867188 106.371094 89.847656 107.480469 88.21875 109.039062 C 86.714844 110.40625 86.585938 111.910156 87.824219 113.535156 C 88.539062 114.578125 89.390625 115.429688 90.5 115.945312 C 91.867188 116.597656 91.796875 117.3125 91.144531 118.480469 C 87.242188 125.515625 83.980469 132.808594 81.382812 140.367188 C 80.925781 141.667969 81.246094 142.449219 82.355469 142.96875 C 85.089844 144.144531 85.941406 143.75 87.171875 141.738281 C 91.085938 134.960938 94.988281 128.121094 98.574219 121.15625 C 99.160156 119.988281 99.746094 119.589844 101.113281 119.917969 C 103.777344 120.503906 106.453125 120.898438 109.1875 121.21875 C 123.25 122.722656 137.378906 123.109375 151.578125 122.910156 C 155.292969 122.851562 159 122.523438 162.714844 122.328125 C 163.300781 122.265625 164.082031 122.265625 164.28125 121.613281 C 164.472656 120.828125 163.824219 120.375 163.300781 120.046875 C 162.132812 119.203125 160.761719 118.878906 159.328125 118.808594 C 149.238281 118.480469 139.074219 118.027344 128.984375 117.25 C 120.582031 116.597656 112.25 115.488281 103.976562 113.863281 C 103.648438 113.792969 103.066406 113.863281 102.9375 113.40625 C 102.804688 112.953125 103.261719 112.625 103.648438 112.367188 C 104.886719 111.515625 106.1875 110.734375 107.492188 109.949219 C 124.359375 100.378906 141.550781 91.261719 158.089844 81.042969 C 167.078125 75.4375 176.003906 69.777344 184.078125 62.871094 C 186.359375 60.980469 188.5 58.898438 190.132812 56.363281 Z M 190.132812 56.363281 " fill-opacity="1" fill-rule="nonzero"/><path fill="#000000" d="M 201.585938 116.140625 C 204.191406 117.707031 206.859375 118.164062 209.792969 116.925781 C 211.941406 116.011719 213.960938 114.902344 215.847656 113.535156 C 221.511719 109.5625 226.984375 105.261719 231.996094 100.445312 C 233.304688 99.277344 233.167969 98.691406 231.609375 97.839844 C 229.847656 96.929688 228.480469 97.839844 227.050781 98.554688 C 223.40625 100.578125 220.015625 103.054688 216.5 105.261719 C 213.179688 107.351562 209.859375 109.496094 206.34375 111.316406 C 206.144531 110.542969 206.472656 109.949219 206.667969 109.367188 C 207.582031 106.898438 208.492188 104.421875 209.464844 102.011719 C 209.921875 100.835938 209.59375 99.992188 208.683594 99.277344 C 207.253906 98.101562 205.621094 97.515625 203.605469 97.910156 C 204.253906 96.414062 204.90625 95.105469 205.429688 93.738281 C 206.015625 92.242188 205.757812 90.804688 204.519531 89.765625 C 202.042969 87.683594 199.238281 86.644531 195.988281 87.488281 C 193.511719 88.140625 191.359375 89.507812 189.410156 91.074219 C 183.414062 95.761719 178.539062 101.425781 174.496094 107.808594 C 173.066406 110.085938 171.890625 112.425781 171.304688 115.101562 C 170.589844 118.164062 171.304688 120.246094 173.980469 122 C 177.300781 124.277344 180.679688 124.863281 184.394531 122.523438 C 189.152344 119.460938 193.382812 115.746094 197.613281 112.039062 C 198.070312 111.644531 198.464844 111.257812 199.238281 110.605469 C 198.851562 113.210938 199.695312 114.972656 201.585938 116.140625 Z M 183.613281 114.191406 C 183.550781 114.25 183.484375 114.191406 183.15625 114.121094 C 187.714844 106.5 192.996094 99.535156 200.023438 93.609375 C 200.023438 95.304688 199.960938 96.601562 199.503906 97.710938 C 199.050781 98.820312 199.4375 99.40625 200.289062 99.792969 C 200.871094 100.058594 201.128906 100.316406 200.546875 100.835938 C 195.207031 105.660156 189.667969 110.277344 183.613281 114.191406 Z M 183.613281 114.191406 " fill-opacity="1" fill-rule="nonzero"/><path fill="#000000" d="M 251.597656 116.074219 C 254.074219 117.570312 256.738281 118.09375 259.542969 117.113281 C 260.972656 116.597656 262.339844 116.011719 263.707031 115.292969 C 268.917969 112.625 274 109.632812 278.945312 106.441406 C 281.035156 105.074219 283.046875 103.707031 284.941406 102.074219 C 285.980469 101.160156 285.980469 100.644531 284.8125 99.863281 C 283.574219 98.949219 282.265625 98.691406 280.707031 99.535156 C 273.285156 103.507812 265.796875 107.480469 258.109375 111.058594 C 257.460938 111.386719 256.738281 111.84375 255.828125 111.84375 C 255.898438 111.058594 255.957031 110.40625 256.09375 109.761719 C 256.808594 106.632812 257.523438 103.507812 258.175781 100.316406 C 258.828125 96.929688 257.917969 95.363281 254.789062 94.066406 C 252.902344 93.28125 251.210938 93.480469 249.445312 94.519531 C 247.105469 95.890625 245.019531 97.644531 243.003906 99.46875 C 239.03125 102.984375 235.058594 106.570312 230.957031 110.277344 C 230.886719 109.5625 231.28125 109.175781 231.472656 108.71875 C 234.335938 102.597656 237.597656 96.671875 240.914062 90.804688 C 241.636719 89.566406 241.371094 88.65625 240.332031 87.941406 C 237.140625 85.730469 235.316406 85.730469 233.234375 88.464844 C 228.09375 95.234375 223.792969 102.527344 220.402344 110.277344 C 219.429688 112.425781 218.777344 114.644531 218.519531 116.984375 C 218.253906 119.332031 219.164062 120.957031 221.511719 122.195312 C 223.722656 123.367188 226.003906 124.21875 228.28125 122.265625 C 230.105469 120.632812 231.738281 118.878906 233.363281 117.113281 C 238.507812 111.714844 243.847656 106.5 249.578125 101.746094 C 249.972656 101.425781 250.425781 101.160156 251.074219 100.644531 C 250.230469 104.222656 249.121094 107.285156 248.863281 110.605469 C 248.664062 112.953125 249.515625 114.773438 251.597656 116.074219 Z M 251.597656 116.074219 " fill-opacity="1" fill-rule="nonzero"/><path fill="#000000" d="M 312.15625 102.398438 C 319.125 88.398438 327.003906 74.921875 334.5625 61.179688 C 336.058594 58.511719 337.8125 56.035156 339.179688 53.230469 C 339.445312 52.777344 339.765625 52.191406 339.445312 51.539062 C 338.535156 49.914062 334.5625 49.652344 333.582031 51.21875 C 330.460938 56.292969 326.683594 60.921875 323.75 66.191406 C 322.511719 68.601562 320.949219 70.878906 319.253906 72.96875 C 315.804688 77.328125 312.355469 81.628906 308.96875 85.921875 C 308.382812 86.574219 307.988281 87.488281 307.273438 87.8125 C 306.492188 88.140625 305.972656 87.03125 305.191406 86.703125 C 300.503906 84.492188 296.074219 84.882812 291.84375 87.882812 C 286.175781 91.785156 281.875 96.929688 278.296875 102.65625 C 275.753906 106.828125 273.476562 111.1875 272.375 115.882812 C 271.71875 118.679688 272.5625 120.699219 274.84375 122.265625 C 278.816406 125.0625 283.570312 124.804688 287.148438 121.542969 C 290.019531 119.007812 292.558594 116.140625 295.09375 113.339844 C 297.898438 110.277344 300.503906 107.085938 303.171875 103.765625 C 303.300781 104.351562 302.972656 104.808594 302.84375 105.203125 C 301.605469 108.195312 300.503906 111.1875 299.59375 114.25 C 299.070312 115.945312 298.808594 117.640625 298.808594 119.394531 C 299.070312 123.953125 301.347656 126.171875 305.90625 126.429688 C 307.601562 126.558594 309.097656 126.171875 310.59375 125.257812 C 312.289062 124.21875 313.914062 122.980469 315.28125 121.613281 C 321.402344 115.429688 327.003906 108.847656 332.34375 102.011719 C 333.453125 100.578125 333.066406 99.734375 331.171875 99.535156 C 330.519531 99.40625 329.933594 99.535156 329.351562 99.921875 C 328.636719 100.578125 327.851562 101.230469 327.140625 101.882812 C 320.949219 107.671875 314.894531 113.535156 308.710938 119.332031 C 308.054688 120.046875 307.273438 120.632812 306.292969 121.414062 C 306.101562 119.460938 306.363281 117.964844 306.816406 116.46875 C 308.253906 111.585938 309.878906 106.898438 312.15625 102.398438 Z M 299.980469 96.800781 C 294.964844 102.597656 289.753906 108.195312 284.222656 113.535156 C 284.027344 113.734375 283.828125 113.925781 283.570312 114.121094 C 287.089844 105.203125 292.300781 97.644531 299.722656 91.71875 C 300.890625 90.804688 301.019531 90.875 301.21875 92.304688 C 301.417969 93.9375 301.21875 95.433594 299.980469 96.800781 Z M 299.980469 96.800781 " fill-opacity="1" fill-rule="nonzero"/><path fill="#000000" d="M 342.367188 95.5625 C 343.476562 93.867188 343.347656 93.085938 341.914062 91.589844 C 341.398438 91.003906 340.8125 90.546875 340.226562 90.160156 C 337.949219 88.65625 336.839844 88.726562 335.074219 90.675781 C 330.191406 95.949219 326.15625 101.746094 323.421875 108.394531 C 322.183594 111.386719 321.339844 114.578125 321.597656 117.898438 C 321.925781 121.542969 324.203125 123.695312 327.265625 125.191406 C 330 126.558594 332.015625 125.0625 334.035156 123.433594 C 334.363281 123.175781 334.6875 122.910156 334.945312 122.652344 C 341.136719 116.925781 346.667969 110.605469 352.007812 104.09375 C 352.851562 103.054688 353.574219 101.882812 354.160156 100.644531 C 355.070312 98.625 355.199219 96.542969 354.289062 94.453125 C 352.269531 89.964844 348.492188 87.554688 343.933594 86.1875 C 343.347656 86.058594 342.636719 85.921875 342.308594 86.574219 C 341.914062 87.226562 342.367188 87.746094 342.695312 88.269531 C 343.476562 89.378906 344.785156 89.765625 345.886719 90.417969 C 348.492188 91.785156 349.34375 93.9375 348.621094 96.730469 C 348.105469 98.554688 347.125 100.121094 346.015625 101.617188 C 343.089844 105.332031 339.898438 108.71875 336.511719 111.972656 C 334.75 113.535156 333.0625 115.164062 330.84375 116.402344 C 331.367188 115.230469 331.824219 114.121094 332.410156 113.011719 C 335.402344 107.027344 338.917969 101.289062 342.367188 95.5625 Z M 342.367188 95.5625 " fill-opacity="1" fill-rule="nonzero"/><path fill="#000000" d="M 543.074219 56.363281 C 545.222656 52.90625 544.828125 50.042969 541.707031 47.375 C 541.25 46.980469 540.726562 46.660156 540.210938 46.335938 C 536.109375 43.789062 531.480469 42.816406 526.726562 42.621094 C 517.480469 42.164062 508.363281 43.332031 499.308594 44.640625 C 472.15625 48.675781 445.324219 54.667969 419.085938 62.613281 C 405.539062 66.714844 392.191406 71.402344 379.488281 77.847656 C 375.515625 79.933594 371.542969 82.085938 368.421875 85.40625 C 365.617188 88.335938 365.816406 91.332031 368.808594 94.066406 C 371.351562 96.472656 374.476562 97.839844 377.796875 98.753906 C 391.597656 102.597656 405.667969 104.160156 419.996094 103.570312 C 421.167969 103.570312 422.273438 103.378906 423.1875 102.527344 C 423.511719 102.269531 424.160156 102.46875 424.097656 101.945312 C 424.097656 101.359375 423.445312 101.160156 422.988281 101.101562 C 422.335938 100.902344 421.621094 100.902344 420.90625 100.902344 C 419.730469 100.835938 418.558594 100.902344 417.453125 100.835938 C 409.246094 100.378906 401.109375 99.277344 393.035156 97.582031 C 388.476562 96.601562 383.980469 95.628906 379.558594 94.195312 C 377.597656 93.542969 377.339844 92.628906 378.449219 90.9375 C 378.964844 90.222656 379.558594 89.566406 380.144531 88.984375 C 381.699219 87.488281 383.460938 86.316406 385.285156 85.277344 C 394.859375 79.675781 405.144531 75.703125 415.628906 72.246094 C 448.515625 61.4375 482.117188 53.558594 516.570312 49.652344 C 521.453125 49.128906 526.398438 48.871094 531.351562 48.941406 C 532.589844 49 532.71875 49.394531 532.324219 50.367188 C 531.542969 52.128906 530.371094 53.558594 529.074219 54.925781 C 526.070312 57.988281 522.691406 60.660156 519.234375 63.132812 C 506.410156 72.511719 492.667969 80.324219 478.925781 88.199219 C 474.761719 90.546875 470.53125 92.894531 466.359375 95.234375 C 466.230469 95.105469 466.164062 95.039062 466.035156 94.976562 C 466.429688 94.324219 466.746094 93.671875 467.144531 93.023438 C 472.21875 84.296875 477.367188 75.507812 482.441406 66.777344 C 483.808594 64.308594 485.246094 61.894531 486.417969 59.285156 C 486.675781 58.640625 487 57.917969 486.285156 57.273438 C 484.789062 55.90625 482.96875 56.035156 481.730469 57.601562 C 481.273438 58.183594 480.886719 58.832031 480.429688 59.421875 C 472.21875 71.464844 464.277344 83.644531 456.847656 96.214844 C 454.3125 100.445312 451.449219 103.707031 446.820312 105.589844 C 444.808594 106.371094 442.785156 107.480469 441.160156 109.039062 C 439.65625 110.40625 439.527344 111.910156 440.765625 113.535156 C 441.480469 114.578125 442.332031 115.429688 443.441406 115.945312 C 444.808594 116.597656 444.738281 117.3125 444.085938 118.480469 C 440.179688 125.515625 436.921875 132.808594 434.324219 140.367188 C 433.867188 141.667969 434.1875 142.449219 435.296875 142.96875 C 438.03125 144.144531 438.882812 143.75 440.113281 141.738281 C 444.023438 134.960938 447.929688 128.121094 451.515625 121.15625 C 452.101562 119.988281 452.6875 119.589844 454.054688 119.917969 C 456.71875 120.503906 459.394531 120.898438 462.128906 121.21875 C 476.191406 122.722656 490.320312 123.109375 504.519531 122.910156 C 508.234375 122.851562 511.941406 122.523438 515.65625 122.328125 C 516.242188 122.265625 517.023438 122.265625 517.222656 121.613281 C 517.410156 120.828125 516.765625 120.375 516.242188 120.046875 C 515.070312 119.203125 513.703125 118.878906 512.269531 118.808594 C 502.179688 118.480469 492.015625 118.027344 481.925781 117.25 C 473.523438 116.597656 465.191406 115.488281 456.917969 113.863281 C 456.589844 113.792969 456.003906 113.863281 455.875 113.40625 C 455.746094 112.953125 456.203125 112.625 456.589844 112.367188 C 457.828125 111.515625 459.128906 110.734375 460.433594 109.949219 C 477.300781 100.378906 494.492188 91.261719 511.03125 81.042969 C 520.015625 75.4375 528.945312 69.777344 537.019531 62.871094 C 539.296875 60.980469 541.441406 58.898438 543.074219 56.363281 Z M 543.074219 56.363281 " fill-opacity="1" fill-rule="nonzero"/><path fill="#000000" d="M 554.527344 116.140625 C 557.132812 117.707031 559.800781 118.164062 562.730469 116.925781 C 564.882812 116.011719 566.902344 114.902344 568.785156 113.535156 C 574.453125 109.5625 579.925781 105.261719 584.9375 100.445312 C 586.246094 99.277344 586.109375 98.691406 584.550781 97.839844 C 582.789062 96.929688 581.421875 97.839844 579.992188 98.554688 C 576.347656 100.578125 572.957031 103.054688 569.441406 105.261719 C 566.121094 107.351562 562.800781 109.496094 559.28125 111.316406 C 559.085938 110.542969 559.414062 109.949219 559.609375 109.367188 C 560.519531 106.898438 561.433594 104.421875 562.40625 102.011719 C 562.859375 100.835938 562.535156 99.992188 561.621094 99.277344 C 560.195312 98.101562 558.5625 97.515625 556.546875 97.910156 C 557.195312 96.414062 557.847656 95.105469 558.371094 93.738281 C 558.957031 92.242188 558.699219 90.804688 557.460938 89.765625 C 554.984375 87.683594 552.179688 86.644531 548.929688 87.488281 C 546.453125 88.140625 544.300781 89.507812 542.347656 91.074219 C 536.355469 95.761719 531.476562 101.425781 527.4375 107.808594 C 526.007812 110.085938 524.832031 112.425781 524.246094 115.101562 C 523.53125 118.164062 524.246094 120.246094 526.921875 122 C 530.238281 124.277344 533.621094 124.863281 537.335938 122.523438 C 542.089844 119.460938 546.324219 115.746094 550.554688 112.039062 C 551.011719 111.644531 551.40625 111.257812 552.179688 110.605469 C 551.792969 113.210938 552.636719 114.972656 554.527344 116.140625 Z M 536.554688 114.191406 C 536.492188 114.25 536.425781 114.191406 536.097656 114.121094 C 540.65625 106.5 545.933594 99.535156 552.960938 93.609375 C 552.960938 95.304688 552.902344 96.601562 552.445312 97.710938 C 551.988281 98.820312 552.378906 99.40625 553.226562 99.792969 C 553.8125 100.058594 554.070312 100.316406 553.488281 100.835938 C 548.144531 105.660156 542.609375 110.277344 536.554688 114.191406 Z M 536.554688 114.191406 " fill-opacity="1" fill-rule="nonzero"/><path fill="#000000" d="M 604.539062 116.074219 C 607.015625 117.570312 609.679688 118.09375 612.484375 117.113281 C 613.914062 116.597656 615.28125 116.011719 616.648438 115.292969 C 621.859375 112.625 626.941406 109.632812 631.886719 106.441406 C 633.976562 105.074219 635.988281 103.707031 637.878906 102.074219 C 638.921875 101.160156 638.921875 100.644531 637.75 99.863281 C 636.511719 98.949219 635.207031 98.691406 633.648438 99.535156 C 626.226562 103.507812 618.738281 107.480469 611.046875 111.058594 C 610.402344 111.386719 609.679688 111.84375 608.769531 111.84375 C 608.835938 111.058594 608.898438 110.40625 609.035156 109.761719 C 609.75 106.632812 610.464844 103.507812 611.117188 100.316406 C 611.769531 96.929688 610.859375 95.363281 607.730469 94.066406 C 605.84375 93.28125 604.152344 93.480469 602.386719 94.519531 C 600.046875 95.890625 597.957031 97.644531 595.945312 99.46875 C 591.972656 102.984375 588 106.570312 583.898438 110.277344 C 583.828125 109.5625 584.222656 109.175781 584.414062 108.71875 C 587.277344 102.597656 590.535156 96.671875 593.855469 90.804688 C 594.578125 89.566406 594.3125 88.65625 593.273438 87.941406 C 590.082031 85.730469 588.257812 85.730469 586.175781 88.464844 C 581.03125 95.234375 576.734375 102.527344 573.34375 110.277344 C 572.371094 112.425781 571.71875 114.644531 571.460938 116.984375 C 571.195312 119.332031 572.105469 120.957031 574.453125 122.195312 C 576.664062 123.367188 578.945312 124.21875 581.222656 122.265625 C 583.046875 120.632812 584.679688 118.878906 586.304688 117.113281 C 591.449219 111.714844 596.789062 106.5 602.515625 101.746094 C 602.914062 101.425781 603.367188 101.160156 604.015625 100.644531 C 603.171875 104.222656 602.0625 107.285156 601.804688 110.605469 C 601.605469 112.953125 602.457031 114.773438 604.539062 116.074219 Z M 604.539062 116.074219 " fill-opacity="1" fill-rule="nonzero"/><path fill="#000000" d="M 665.097656 102.398438 C 672.0625 88.398438 679.941406 74.921875 687.5 61.179688 C 688.996094 58.511719 690.753906 56.035156 692.121094 53.230469 C 692.386719 52.777344 692.703125 52.191406 692.386719 51.539062 C 691.472656 49.914062 687.5 49.652344 686.519531 51.21875 C 683.398438 56.292969 679.621094 60.921875 676.691406 66.191406 C 675.453125 68.601562 673.886719 70.878906 672.191406 72.96875 C 668.742188 77.328125 665.292969 81.628906 661.90625 85.921875 C 661.320312 86.574219 660.925781 87.488281 660.210938 87.8125 C 659.429688 88.140625 658.914062 87.03125 658.128906 86.703125 C 653.445312 84.492188 649.015625 84.882812 644.78125 87.882812 C 639.117188 91.785156 634.816406 96.929688 631.238281 102.65625 C 628.691406 106.828125 626.414062 111.1875 625.3125 115.882812 C 624.660156 118.679688 625.503906 120.699219 627.78125 122.265625 C 631.753906 125.0625 636.511719 124.804688 640.089844 121.542969 C 642.960938 119.007812 645.496094 116.140625 648.035156 113.339844 C 650.835938 110.277344 653.445312 107.085938 656.109375 103.765625 C 656.238281 104.351562 655.914062 104.808594 655.785156 105.203125 C 654.546875 108.195312 653.445312 111.1875 652.53125 114.25 C 652.007812 115.945312 651.75 117.640625 651.75 119.394531 C 652.007812 123.953125 654.285156 126.171875 658.84375 126.429688 C 660.539062 126.558594 662.035156 126.171875 663.53125 125.257812 C 665.226562 124.21875 666.851562 122.980469 668.21875 121.613281 C 674.34375 115.429688 679.941406 108.847656 685.28125 102.011719 C 686.390625 100.578125 686.003906 99.734375 684.113281 99.535156 C 683.457031 99.40625 682.875 99.535156 682.289062 99.921875 C 681.574219 100.578125 680.792969 101.230469 680.078125 101.882812 C 673.886719 107.671875 667.832031 113.535156 661.648438 119.332031 C 660.996094 120.046875 660.210938 120.632812 659.230469 121.414062 C 659.042969 119.460938 659.300781 117.964844 659.757812 116.46875 C 661.191406 111.585938 662.816406 106.898438 665.097656 102.398438 Z M 652.917969 96.800781 C 647.90625 102.597656 642.695312 108.195312 637.164062 113.535156 C 636.964844 113.734375 636.769531 113.925781 636.511719 114.121094 C 640.027344 105.203125 645.238281 97.644531 652.660156 91.71875 C 653.832031 90.804688 653.960938 90.875 654.15625 92.304688 C 654.355469 93.9375 654.15625 95.433594 652.917969 96.800781 Z M 652.917969 96.800781 " fill-opacity="1" fill-rule="nonzero"/><path fill="#000000" d="M 698.765625 106.371094 C 701.828125 102.65625 703.910156 98.296875 705.019531 93.609375 C 705.664062 90.746094 704.753906 88.335938 702.285156 86.574219 C 698.5 83.910156 694.535156 83.96875 690.949219 86.902344 C 688.472656 88.921875 686.390625 91.203125 684.636719 93.808594 C 680.792969 99.40625 677.273438 105.261719 675.710938 111.972656 C 674.925781 115.359375 675.648438 118.421875 678.382812 120.761719 C 681.308594 123.175781 684.636719 124.40625 688.472656 124.089844 C 691.664062 123.824219 694.597656 122.523438 697.398438 121.027344 C 708.46875 115.230469 718.425781 107.808594 728.917969 101.03125 C 729.761719 100.515625 729.5625 100.058594 728.917969 99.535156 C 727.742188 98.496094 726.441406 98.367188 724.945312 98.753906 C 723.640625 99.078125 722.402344 99.605469 721.164062 100.25 C 713.609375 104.292969 706.058594 108.394531 698.441406 112.425781 C 694.140625 114.707031 689.910156 117.054688 685.28125 118.480469 C 683.65625 119.007812 683.398438 118.808594 683.328125 117.054688 C 683.199219 113.535156 684.5 110.347656 685.933594 107.15625 C 692.386719 111.972656 695.902344 109.820312 698.765625 106.371094 Z M 688.800781 101.816406 C 691.34375 97.1875 694.335938 92.894531 698.5 89.566406 C 698.570312 89.507812 698.765625 89.507812 698.894531 89.4375 C 699.152344 90.023438 698.957031 90.617188 698.828125 91.132812 C 697.398438 95.949219 695.050781 100.1875 691.40625 103.707031 C 691.019531 104.09375 690.492188 104.9375 689.976562 104.351562 C 689.382812 103.707031 688.28125 102.792969 688.800781 101.816406 Z M 688.800781 101.816406 " fill-opacity="1" fill-rule="nonzero"/></svg>