<svg xmlns="http://www.w3.org/2000/svg" xmlns:xlink="http://www.w3.org/1999/xlink" width="1000" zoomAndPan="magnify" viewBox="0 0 750 374.999991" height="500" preserveAspectRatio="xMidYMid meet" version="1.0"><defs><clipPath id="4e42ff3b4f"><path d="M 26 4 L 722 4 L 722 372 L 26 372 Z M 26 4 " clip-rule="nonzero"/></clipPath><clipPath id="afcd148ab3"><path d="M 33.242188 -38.589844 L 727.664062 13.066406 L 699.089844 397.179688 L 4.660156 345.523438 Z M 33.242188 -38.589844 " clip-rule="nonzero"/></clipPath><clipPath id="0e3e0ae4a5"><path d="M 33.242188 -38.589844 L 727.664062 13.066406 L 699.089844 397.179688 L 4.660156 345.523438 Z M 33.242188 -38.589844 " clip-rule="nonzero"/></clipPath><clipPath id="1dfff68e2e"><path d="M 33.242188 -38.589844 L 727.664062 13.066406 L 699.089844 397.179688 L 4.660156 345.523438 Z M 33.242188 -38.589844 " clip-rule="nonzero"/></clipPath><clipPath id="81f13213d3"><path d="M 33.234375 -38.550781 L 727.953125 13.128906 L 699.371094 397.410156 L 4.652344 345.730469 Z M 33.234375 -38.550781 " clip-rule="nonzero"/></clipPath><clipPath id="43443b0a30"><path d="M 33.234375 -38.550781 L 727.671875 13.105469 L 699.097656 397.148438 L 4.667969 345.484375 Z M 33.234375 -38.550781 " clip-rule="nonzero"/></clipPath></defs><g clip-path="url(#4e42ff3b4f)"><g clip-path="url(#afcd148ab3)"><g clip-path="url(#0e3e0ae4a5)"><g clip-path="url(#1dfff68e2e)"><g clip-path="url(#81f13213d3)"><g clip-path="url(#43443b0a30)"><path fill="#131212" d="M 498.972656 232.914062 C 498.304688 233.273438 496.027344 234.527344 493.90625 235.683594 C 491.78125 236.847656 487.515625 239.78125 484.417969 242.203125 C 481.308594 244.636719 475.882812 248.648438 472.347656 251.117188 C 464.875 256.332031 447.960938 271.957031 442.382812 278.785156 C 438.433594 283.625 433.691406 287.628906 426.113281 292.53125 C 423.730469 294.074219 420.109375 296.503906 418.082031 297.945312 C 416.042969 299.382812 411.277344 302.324219 407.476562 304.496094 C 398.710938 309.5 396.589844 311.308594 387.902344 321.175781 C 369.839844 341.675781 369.289062 342.21875 361.34375 347.386719 C 358.410156 349.292969 354.378906 352.117188 352.40625 353.660156 C 348.542969 356.664062 347.09375 357.167969 348.441406 355.042969 C 349.808594 352.886719 349.402344 346.507812 347.566406 341.101562 C 345.6875 335.585938 345.734375 335.265625 349.402344 328.664062 C 351.179688 325.453125 352.335938 324.085938 353.539062 323.722656 C 354.851562 323.339844 355.222656 322.835938 355.214844 321.457031 C 355.214844 320.371094 356.597656 317.453125 358.777344 313.914062 C 361.964844 308.753906 363.394531 307.226562 372.199219 299.609375 C 383.023438 290.242188 386.480469 286.222656 392.734375 275.71875 C 398.261719 266.433594 402.433594 260.1875 407.578125 253.492188 C 412.324219 247.300781 414.484375 245.964844 422.390625 244.304688 C 425.925781 243.558594 429.472656 243.472656 438.621094 243.902344 C 452.207031 244.546875 458.621094 243.714844 470.957031 239.71875 C 478.265625 237.351562 498.390625 232.039062 499.554688 232.171875 C 499.898438 232.214844 499.640625 232.542969 498.972656 232.914062 Z M 486.078125 248.144531 C 483.828125 250.683594 479.75 254.894531 477.039062 257.492188 C 474.316406 260.085938 470.175781 264.359375 467.839844 266.984375 C 462.058594 273.484375 459.515625 275.8125 449.3125 283.933594 C 444.484375 287.769531 438.984375 292.152344 437.097656 293.671875 C 435.214844 295.191406 430.394531 299.871094 426.382812 304.070312 C 418.632812 312.214844 412.984375 317.1875 406.476562 321.59375 C 399.6875 326.1875 394.242188 330.960938 387.320312 338.421875 C 382.914062 343.164062 377.941406 347.617188 372.53125 351.667969 C 368.054688 355.019531 362.320312 359.441406 359.785156 361.488281 C 357.261719 363.53125 354.035156 365.6875 352.625 366.285156 C 350.085938 367.347656 350.046875 367.347656 349.488281 366.089844 C 349.179688 365.390625 348.984375 364.003906 349.0625 363.003906 C 349.203125 361.046875 350.492188 360.007812 364.160156 350.828125 C 371.304688 346.027344 374.078125 343.382812 385.132812 330.882812 C 399.996094 314.0625 399.996094 314.0625 410.113281 307.917969 C 431.496094 294.9375 440.644531 288.132812 445.765625 281.375 C 449.488281 276.464844 468.351562 259.132812 474.574219 254.910156 C 477.007812 253.257812 481.417969 250.015625 484.386719 247.695312 C 487.351562 245.382812 489.871094 243.496094 489.980469 243.503906 C 490.097656 243.511719 488.335938 245.59375 486.078125 248.144531 Z M 398.632812 257.726562 C 398.703125 257.71875 395.792969 262.574219 392.167969 268.519531 C 382.632812 284.160156 380.554688 286.71875 370.320312 295.371094 C 365.363281 299.546875 360.421875 304.160156 359.320312 305.605469 C 358.21875 307.054688 357.234375 307.925781 357.140625 307.550781 C 356.929688 306.691406 358.714844 303.757812 362.042969 299.523438 C 363.46875 297.707031 366.308594 293.484375 368.34375 290.132812 C 372.59375 283.160156 380.804688 273.933594 391.355469 264.289062 C 395.289062 260.691406 398.570312 257.734375 398.632812 257.726562 Z M 346.734375 324.878906 L 343.257812 330.511719 L 342.109375 328.617188 C 340.652344 326.210938 340.660156 326.203125 342.683594 326.375 C 344.933594 326.578125 347.007812 323.605469 347.410156 319.585938 C 347.875 315.023438 347.347656 313.503906 343.242188 307.519531 C 341.15625 304.472656 339.164062 301.539062 338.8125 301.003906 C 338.464844 300.46875 339.023438 300.726562 340.070312 301.578125 C 342.265625 303.371094 343.492188 303.601562 344.640625 302.410156 C 345.726562 301.277344 344.113281 292.640625 341.988281 288.1875 C 340.28125 284.609375 327.46875 267.929688 323.382812 263.972656 C 321.921875 262.550781 316.609375 258.960938 311.582031 255.996094 C 306.304688 252.871094 300.703125 248.984375 298.289062 246.773438 C 288.34375 237.648438 278.925781 229.867188 274.96875 227.507812 C 271.089844 225.1875 270.6875 224.746094 270.40625 222.535156 C 270.035156 219.5625 264.425781 204.324219 261.839844 199.234375 C 260.800781 197.195312 258.636719 192.421875 257.03125 188.628906 C 253.957031 181.328125 251.832031 178.054688 250.09375 177.929688 C 248.613281 177.820312 249.488281 176.585938 256 169.597656 C 258.960938 166.410156 262.382812 162.3125 263.59375 160.480469 C 267.070312 155.191406 272.082031 143.941406 271.765625 142.125 C 271.523438 140.695312 271.640625 140.597656 273.097656 141.078125 C 275.746094 141.960938 279.601562 140.851562 281.671875 138.617188 C 283.511719 136.625 283.558594 136.609375 284.355469 137.949219 C 285.355469 139.632812 289.59375 142.015625 291.929688 142.210938 C 293.191406 142.316406 293.644531 142.667969 293.582031 143.519531 C 293.472656 145.011719 295.070312 146.679688 297.304688 147.421875 C 298.390625 147.78125 299.570312 148.984375 300.433594 150.605469 C 301.191406 152.039062 303.078125 154.21875 304.628906 155.453125 C 308.867188 158.828125 310.277344 160.816406 312.714844 166.867188 C 317.230469 178.070312 320.960938 180.980469 335.4375 184.65625 C 346.324219 187.410156 350.527344 187.621094 353.121094 185.535156 C 354.089844 184.765625 355.175781 183.5 355.535156 182.734375 L 356.199219 181.335938 L 358.566406 183.167969 C 359.910156 184.214844 361.59375 184.960938 362.46875 184.914062 C 363.4375 184.867188 364.742188 185.550781 366.007812 186.796875 C 367.808594 188.550781 368.335938 188.738281 371.214844 188.613281 C 375.535156 188.425781 381.671875 185.84375 385.140625 182.761719 C 389.59375 178.800781 393.324219 172.210938 398.507812 159.101562 C 403.15625 147.375 403.636719 145.28125 401.867188 144.445312 C 401.214844 144.140625 401.527344 143.550781 403.125 142.09375 C 407.710938 137.894531 410.605469 132.765625 412.140625 126.125 L 412.699219 123.722656 L 414.242188 126.605469 C 415.089844 128.183594 416.160156 129.84375 416.625 130.292969 C 418.441406 132.015625 420.527344 132.148438 423.730469 130.742188 C 427.507812 129.074219 427.464844 129.082031 427.355469 130.632812 C 427.253906 131.945312 429.503906 134.148438 433.785156 136.925781 C 435.46875 138.019531 436.804688 139.554688 437.472656 141.15625 C 438.054688 142.542969 439.914062 145.429688 441.613281 147.570312 C 445.625 152.660156 446.160156 155.554688 445.246094 167.308594 C 444.359375 178.828125 441.566406 190.101562 437.582031 198.242188 C 433.648438 206.273438 424.328125 223.804688 420.628906 230.113281 C 416.648438 236.894531 411.542969 242.707031 406.816406 245.839844 C 400.199219 250.214844 380.207031 268.347656 373.355469 276.191406 C 369.761719 280.296875 365.726562 285.664062 364.371094 288.117188 C 363.027344 290.578125 360.359375 294.625 358.441406 297.109375 C 353.78125 303.160156 351.863281 307.460938 350.957031 313.9375 C 350.289062 318.71875 349.871094 319.804688 346.734375 324.878906 Z M 344.351562 349.433594 C 344.105469 348.71875 343.957031 347.421875 344.019531 346.546875 C 344.128906 345.105469 344.175781 345.082031 344.585938 346.273438 C 344.835938 346.988281 344.988281 348.292969 344.917969 349.160156 C 344.8125 350.605469 344.757812 350.628906 344.351562 349.433594 Z M 338.8125 318.296875 C 336.789062 316.496094 332.597656 312.976562 329.511719 310.46875 C 319.386719 302.261719 314.839844 298.210938 307.671875 291.019531 C 299.851562 283.167969 299.097656 282.289062 291.050781 271.652344 C 287.964844 267.574219 284.992188 263.808594 284.441406 263.28125 C 282.539062 261.449219 274.0625 250.347656 274.597656 250.394531 C 274.898438 250.417969 278.375 254.398438 282.332031 259.246094 C 290.167969 268.859375 296.53125 274.332031 309.648438 282.757812 C 325.640625 293.035156 330.824219 297.457031 336.875 306 C 343.304688 315.054688 344.359375 317.601562 342.941406 320.617188 C 342.585938 321.371094 341.738281 320.890625 338.8125 318.296875 Z M 300.019531 270.472656 C 300.011719 270.652344 298.71875 269.777344 297.148438 268.535156 C 294.171875 266.183594 279.335938 249.589844 279.40625 248.695312 C 279.507812 247.285156 285.378906 252.910156 292.308594 261.054688 C 296.566406 266.058594 300.035156 270.296875 300.019531 270.472656 Z M 267.644531 234.164062 C 264.277344 230.128906 260.515625 225.464844 259.28125 223.796875 C 258.039062 222.128906 254.339844 217.460938 251.054688 213.425781 C 245.230469 206.28125 245.082031 206.023438 245.292969 203.136719 C 245.539062 199.746094 249.039062 186.121094 249.644531 186.183594 C 249.863281 186.199219 250.941406 187.730469 252.027344 189.589844 C 258.3125 200.320312 266.308594 219.710938 266.015625 223.550781 C 265.78125 226.785156 266.347656 227.476562 271.933594 230.828125 C 276.992188 233.863281 282.386719 238.230469 294.1875 248.84375 C 300.394531 254.4375 303.90625 256.925781 310.347656 260.300781 C 318.128906 264.375 321.085938 267.121094 329.726562 278.273438 C 336.804688 287.417969 340.117188 293.027344 339.417969 294.671875 C 339.277344 294.976562 337.136719 293.789062 334.640625 292.019531 C 332.15625 290.25 326.285156 286.488281 321.597656 283.664062 L 313.085938 278.519531 L 299.921875 263.304688 C 292.679688 254.933594 285.800781 247.414062 284.636719 246.585938 C 283.480469 245.761719 281.53125 244.054688 280.320312 242.777344 C 278.09375 240.449219 275.820312 239.710938 274.472656 240.875 C 273.960938 241.316406 271.972656 239.355469 267.644531 234.164062 Z M 270.65625 244.996094 C 270.484375 244.988281 269.871094 244.367188 269.296875 243.628906 C 268.714844 242.890625 268.382812 242.289062 268.558594 242.296875 C 268.730469 242.316406 269.351562 242.9375 269.925781 243.675781 C 270.5 244.414062 270.832031 245.011719 270.65625 244.996094 Z M 263.78125 237.601562 C 261.265625 235.839844 254.300781 228.019531 251.265625 223.558594 C 249.171875 220.484375 246.578125 215.210938 247.175781 215.25 C 247.324219 215.265625 250.109375 218.839844 253.375 223.195312 C 256.636719 227.546875 260.769531 232.898438 262.5625 235.078125 C 265.363281 238.484375 265.535156 238.835938 263.78125 237.601562 Z M 346.664062 167.617188 C 346.113281 164.679688 346.449219 153.910156 347.085938 153.957031 C 347.238281 153.972656 348 155.671875 348.777344 157.75 C 351.691406 165.46875 353.492188 175.921875 352.328125 178.394531 C 351.894531 179.3125 351.699219 179.242188 350.707031 177.773438 C 348.929688 175.136719 347.332031 171.117188 346.664062 167.617188 Z M 361.957031 175.121094 C 362.167969 177.386719 362.128906 179.425781 361.871094 179.652344 C 361.609375 179.871094 360.738281 179.335938 359.925781 178.457031 C 358.636719 177.046875 358.496094 176.324219 358.777344 172.375 C 359 169.292969 358.769531 167.019531 358.054688 165.050781 C 357.480469 163.476562 357.054688 161.589844 357.117188 160.84375 C 357.316406 158.394531 361.546875 170.894531 361.957031 175.121094 Z M 452.066406 117.25 C 452.257812 117.460938 452.671875 120.207031 452.988281 123.371094 C 454.632812 139.914062 454.105469 156.695312 451.59375 167.726562 C 450.816406 171.140625 450.109375 174.003906 450.015625 174.082031 C 449.925781 174.160156 450.25 168.199219 450.738281 160.824219 C 451.234375 153.453125 451.625 143.265625 451.617188 138.191406 C 451.601562 121.742188 451.707031 116.871094 452.066406 117.25 Z M 716.695312 89.195312 C 711.882812 92.011719 699.539062 96.597656 693.1875 97.9375 C 685.203125 99.605469 673.859375 100.957031 662.097656 101.632812 C 640.34375 102.890625 626.507812 106.488281 609.585938 115.304688 C 603.125 118.671875 598.375 122.789062 592.292969 130.277344 C 590.050781 133.046875 586.15625 137.304688 583.644531 139.742188 C 581.136719 142.179688 577.257812 146.328125 575.015625 148.960938 C 572.78125 151.597656 568.265625 156.554688 564.984375 159.992188 C 561.695312 163.421875 556.496094 169.046875 553.414062 172.492188 C 550.335938 175.9375 544.175781 182.351562 539.730469 186.75 C 529.535156 196.828125 524.648438 202.484375 520.300781 209.273438 C 518.402344 212.222656 516.003906 215.714844 514.957031 217.039062 C 513.917969 218.359375 512.328125 220.679688 511.433594 222.191406 C 510.535156 223.691406 508.742188 225.886719 507.4375 227.058594 C 505.296875 228.988281 504.871094 229.128906 502.921875 228.53125 C 499.152344 227.382812 487.335938 229.84375 470.507812 235.28125 C 457.085938 239.625 453.066406 240.160156 437.992188 239.617188 C 430.667969 239.347656 423.667969 239.378906 422.421875 239.679688 C 419.113281 240.464844 419.105469 240.433594 421.566406 236.941406 C 422.816406 235.179688 425.949219 229.75 428.527344 224.886719 C 431.109375 220.027344 434.871094 213.023438 436.890625 209.328125 C 438.90625 205.621094 441.53125 200.585938 442.738281 198.125 C 443.925781 195.667969 446.386719 191.210938 448.195312 188.21875 C 454.6875 177.496094 458.140625 162.328125 458.164062 144.367188 C 458.1875 127.625 456.511719 112.410156 454.207031 108.34375 C 452.785156 105.851562 450.847656 105.140625 449.242188 106.527344 C 447.820312 107.761719 447.246094 115.078125 447.417969 129.921875 C 447.488281 135.878906 447.441406 142.164062 447.324219 143.886719 L 447.101562 147.027344 L 444.78125 144.382812 C 443.5 142.9375 442.109375 140.835938 441.675781 139.734375 C 440.691406 137.175781 438.371094 134.675781 434.703125 132.191406 C 433.125 131.113281 431.847656 130.042969 431.863281 129.804688 C 431.878906 129.570312 432.382812 128.765625 432.988281 128.027344 C 433.59375 127.289062 434.042969 126.046875 433.988281 125.257812 C 433.824219 122.726562 430.257812 122.773438 424.957031 125.382812 C 419.472656 128.082031 419.402344 128.042969 416.570312 120.476562 C 414.824219 115.824219 414.320312 115.054688 412.96875 114.953125 C 410.78125 114.796875 409.472656 116.800781 408.632812 121.632812 C 407.578125 127.640625 405.800781 132.09375 403.039062 135.660156 C 399.617188 140.074219 397.578125 141.371094 388.886719 144.699219 C 377.800781 148.929688 378.019531 148.820312 377.894531 150.480469 C 377.675781 153.460938 379.203125 153.589844 388.320312 151.378906 C 393.007812 150.230469 396.972656 149.441406 397.121094 149.609375 C 397.265625 149.78125 395.910156 153.785156 394.109375 158.503906 C 390.277344 168.519531 385.785156 176.558594 382.363281 179.527344 C 379.5 182.011719 374.789062 184.011719 371.304688 184.214844 C 368.996094 184.355469 368.746094 184.207031 367.894531 182.210938 C 367.394531 181.019531 366.628906 175.292969 366.195312 169.480469 C 365.71875 162.886719 365.007812 157.90625 364.324219 156.238281 C 362.917969 152.792969 359.375 148.515625 357.851562 148.394531 C 357.132812 148.339844 356.550781 147.71875 356.394531 146.863281 C 356.261719 146.058594 354.84375 142.386719 353.253906 138.6875 C 350.03125 131.207031 349.816406 128.570312 352.027344 123.332031 C 354.261719 118.019531 363.929688 103.578125 372.222656 93.152344 C 378.777344 84.90625 381.929688 81.578125 388.5625 75.914062 C 398.640625 67.300781 403.613281 63.785156 414.5 57.554688 C 432.792969 47.105469 439.96875 45.4375 463.539062 46.167969 C 489.121094 46.964844 505.003906 45.09375 541.390625 37.011719 C 556.660156 33.621094 576.164062 30.011719 600.347656 26.101562 C 619.890625 22.9375 630.472656 21.578125 649.039062 19.855469 C 666.9375 18.1875 674.292969 17.171875 682.269531 15.273438 C 688.453125 13.804688 689.949219 12.953125 689.421875 11.191406 C 689.011719 9.832031 687.257812 9.785156 682.8125 11.019531 C 676.566406 12.757812 666.839844 14.125 652.019531 15.355469 C 619.992188 18.003906 576.910156 24.769531 538.503906 33.195312 C 502.132812 41.167969 490.671875 42.496094 462.859375 41.976562 C 440.195312 41.550781 433.3125 42.761719 420.222656 49.480469 C 398.3125 60.714844 383.378906 72.554688 369.644531 89.589844 C 359.738281 101.863281 359.746094 101.863281 353.183594 112.523438 L 348.070312 120.835938 L 346.449219 117.375 C 343.074219 110.191406 334.019531 102.175781 317.75 91.980469 C 311.90625 88.3125 303.132812 82.617188 298.257812 79.3125 C 293.378906 76.011719 286.488281 71.621094 282.945312 69.558594 L 276.496094 65.804688 L 267.519531 64.6875 C 262.578125 64.066406 256.316406 63.652344 253.59375 63.746094 C 247.757812 63.957031 247.144531 63.707031 239 57.78125 C 228.535156 50.175781 225.886719 49.472656 199.066406 47.207031 L 179.808594 45.585938 L 172.6875 43.070312 C 168.769531 41.683594 159.972656 38.726562 153.144531 36.492188 C 108.089844 21.773438 82.332031 12.027344 75.277344 7.015625 C 71.152344 4.082031 69.484375 3.789062 69.320312 5.976562 C 69.046875 9.714844 81.710938 16.179688 108.199219 25.816406 C 112.621094 27.421875 127.679688 32.558594 141.667969 37.226562 C 155.648438 41.898438 169.179688 46.484375 171.726562 47.429688 C 175.890625 48.960938 178.644531 49.355469 198.765625 51.300781 C 225.414062 53.871094 226.308594 54.101562 235.5625 60.667969 C 245.96875 68.054688 244.617188 67.570312 255.5625 67.914062 C 273.339844 68.472656 275.96875 69.464844 296.1875 83.152344 C 302 87.085938 310.851562 92.855469 315.863281 95.96875 C 327.484375 103.199219 332.007812 106.683594 337.464844 112.609375 C 342.996094 118.609375 344.316406 121.851562 345.300781 131.875 C 345.71875 136.109375 346.261719 140.648438 346.496094 141.96875 C 346.867188 143.992188 346.734375 144.542969 345.640625 145.484375 C 343.902344 146.980469 341.917969 156.097656 341.941406 162.460938 C 341.972656 169.96875 343.847656 175.773438 347.898438 180.910156 C 349.25 182.625 349.265625 182.769531 348.132812 182.742188 C 343.734375 182.65625 329.789062 179.101562 325.886719 177.070312 C 322.0625 175.082031 319.582031 171.769531 316.507812 164.53125 C 314.140625 158.96875 311.734375 155.617188 307.554688 152.101562 C 306.414062 151.132812 306.359375 150.960938 307.296875 151.371094 C 307.972656 151.660156 312.363281 152.320312 317.050781 152.839844 C 324.554688 153.675781 325.695312 153.667969 326.554688 152.777344 C 327.261719 152.039062 327.371094 151.464844 326.949219 150.660156 C 326.476562 149.765625 324.925781 149.386719 318.867188 148.648438 C 311.589844 147.765625 299.230469 144.421875 299.308594 143.359375 C 299.332031 143.09375 300.441406 142.613281 301.773438 142.28125 C 308.78125 140.597656 308.097656 136.257812 301.023438 137.546875 C 299.089844 137.894531 295.847656 138.058594 293.8125 137.910156 C 290.585938 137.664062 289.910156 137.390625 288.546875 135.746094 C 287.691406 134.699219 286.738281 133.308594 286.421875 132.644531 C 285.597656 130.859375 282.472656 130.820312 280.957031 132.574219 C 276.542969 137.679688 276.914062 137.46875 273.472656 136.792969 C 271.726562 136.445312 265.960938 134.839844 260.667969 133.21875 C 255.363281 131.605469 250.101562 130.207031 248.960938 130.121094 C 245.089844 129.820312 245.253906 133.472656 249.171875 134.832031 C 255.363281 136.980469 266.339844 141.722656 266.890625 142.488281 C 267.355469 143.148438 266.84375 144.777344 264.875 148.851562 C 260.871094 157.183594 259.046875 159.875 252.753906 166.671875 C 242.578125 177.652344 239.425781 184.324219 238.488281 196.785156 C 237.9375 204.160156 238.820312 211.453125 240.273438 211.5625 C 240.628906 211.585938 241.519531 213.285156 242.25 215.320312 C 244.207031 220.851562 247.167969 225.792969 252.128906 231.851562 C 254.570312 234.832031 256.742188 238.003906 256.9375 238.890625 C 257.566406 241.644531 261.648438 248.246094 266.007812 253.566406 C 268.296875 256.367188 272.386719 261.535156 275.085938 265.058594 C 277.792969 268.582031 284.984375 277.339844 291.074219 284.523438 C 303.054688 298.652344 316.214844 311.316406 326.027344 318.160156 C 332.085938 322.386719 336.875 327.484375 339.140625 332.09375 C 340.550781 334.957031 340.613281 335.652344 340.101562 342.472656 L 339.558594 349.773438 L 333.421875 346.863281 C 325.019531 342.878906 317.050781 338.003906 312 333.738281 C 298.855469 322.660156 292.425781 317.125 287.414062 312.578125 C 284.332031 309.777344 280.664062 306.699219 279.273438 305.738281 C 275.496094 303.128906 268.621094 300.304688 259.488281 297.613281 C 254.074219 296.015625 249.910156 294.355469 247.144531 292.6875 C 241.707031 289.414062 233.265625 281.769531 225.175781 272.800781 C 212.210938 258.417969 204.746094 251.488281 199.539062 248.96875 C 198.242188 248.339844 195.132812 247.246094 192.640625 246.53125 C 190.144531 245.816406 187.320312 244.746094 186.359375 244.164062 C 183.144531 242.171875 179.492188 236.28125 171.152344 219.570312 C 160.367188 197.984375 158.441406 193.8125 153.742188 181.941406 C 147.890625 167.175781 143.664062 158.480469 137.820312 149.214844 C 134.933594 144.621094 131.195312 138.484375 129.527344 135.566406 C 127.851562 132.644531 122.9375 126.101562 118.59375 121.019531 C 110.710938 111.78125 110.6875 111.757812 102.480469 106.929688 C 97.964844 104.269531 91.5 100.863281 88.117188 99.367188 C 80.398438 95.945312 72.476562 90.949219 63.261719 83.703125 C 55.097656 77.277344 54.269531 76.535156 40.769531 63.484375 C 33.171875 56.144531 30.859375 53.535156 30.804688 52.242188 C 30.667969 49.011719 26.664062 49.75 26.421875 53.054688 C 26.261719 55.167969 28.160156 57.332031 41.351562 70.117188 C 51.894531 80.328125 65.238281 91.265625 74 96.875 C 76.832031 98.691406 82.058594 101.453125 85.613281 103.019531 C 89.167969 104.582031 95.503906 107.832031 99.695312 110.238281 C 107.304688 114.621094 107.320312 114.636719 115.492188 124.234375 C 119.992188 129.515625 124.667969 135.636719 125.886719 137.824219 C 127.097656 140.015625 130.488281 145.617188 133.414062 150.285156 C 139.730469 160.332031 141.824219 164.601562 149.386719 182.847656 C 158.914062 205.859375 173.773438 236.074219 178.957031 242.992188 C 182.066406 247.121094 184.277344 248.515625 190.957031 250.535156 C 194.527344 251.605469 198.273438 253.257812 200.476562 254.722656 C 204.738281 257.554688 212.417969 265.027344 220.621094 274.324219 C 231.054688 286.160156 242.515625 295.945312 249.1875 298.722656 C 251.289062 299.585938 255.898438 301.105469 259.445312 302.097656 C 270.824219 305.261719 276.675781 308.398438 283.765625 315.132812 C 285.675781 316.949219 290.066406 320.804688 293.519531 323.707031 C 296.972656 326.605469 302.355469 331.199219 305.46875 333.929688 C 312.984375 340.488281 320.472656 345.460938 329.078125 349.597656 C 338.449219 354.105469 340.769531 355.726562 342.074219 358.671875 C 342.675781 360.023438 343.609375 361.3125 344.167969 361.535156 C 344.820312 361.800781 345.199219 362.933594 345.277344 364.832031 C 345.402344 368.230469 347.300781 370.972656 349.636719 371.148438 C 352.390625 371.351562 356.84375 369.109375 362.191406 364.832031 C 365.039062 362.554688 370.839844 358.160156 375.078125 355.066406 C 382.632812 349.550781 385.171875 347.207031 394.667969 336.972656 C 397.617188 333.800781 402.285156 329.882812 407.265625 326.398438 C 417.742188 319.066406 419.796875 317.273438 429.820312 306.792969 C 435.332031 301.027344 441.148438 295.75 446.300781 291.839844 C 457.203125 283.554688 465 276.6875 470.265625 270.730469 C 472.703125 267.976562 476.976562 263.570312 479.761719 260.9375 C 482.542969 258.308594 486.582031 254.148438 488.71875 251.675781 C 493.714844 245.933594 498.71875 240.921875 506.507812 233.871094 C 509.929688 230.773438 513.460938 227.019531 514.359375 225.542969 C 515.257812 224.054688 516.847656 221.757812 517.890625 220.445312 C 518.929688 219.113281 521.644531 215.179688 523.917969 211.703125 C 528.796875 204.199219 533.089844 199.289062 544.703125 187.867188 C 549.441406 183.207031 554.488281 178 555.921875 176.292969 C 557.347656 174.585938 561.816406 169.714844 565.84375 165.460938 C 569.863281 161.210938 575.582031 154.972656 578.539062 151.597656 C 581.5 148.222656 585.574219 143.863281 587.59375 141.898438 C 589.617188 139.945312 593.332031 135.863281 595.839844 132.828125 C 601.628906 125.832031 605.140625 122.71875 610.542969 119.78125 C 627.339844 110.640625 640.039062 107.34375 664.835938 105.691406 C 685.660156 104.308594 696.824219 102.238281 708.355469 97.621094 C 718.710938 93.492188 722.125 91.414062 721.976562 89.335938 C 721.839844 87.285156 720.054688 87.238281 716.695312 89.195312 " fill-opacity="1" fill-rule="nonzero"/></g></g></g></g></g></g></svg>