<svg xmlns="http://www.w3.org/2000/svg" xmlns:xlink="http://www.w3.org/1999/xlink" width="1000" zoomAndPan="magnify" viewBox="0 0 750 374.999991" height="500" preserveAspectRatio="xMidYMid meet" version="1.0"><defs><clipPath id="569bc21ea9"><path d="M 101 68 L 672 68 L 672 369.910156 L 101 369.910156 Z M 101 68 " clip-rule="nonzero"/></clipPath><clipPath id="8bfbd2f650"><path d="M 106.625 32.972656 L 676.230469 75.34375 L 652.792969 390.417969 L 83.179688 348.046875 Z M 106.625 32.972656 " clip-rule="nonzero"/></clipPath><clipPath id="4677a636bc"><path d="M 106.625 32.972656 L 676.230469 75.34375 L 652.792969 390.417969 L 83.179688 348.046875 Z M 106.625 32.972656 " clip-rule="nonzero"/></clipPath><clipPath id="a5c49da8e0"><path d="M 106.625 32.972656 L 676.230469 75.34375 L 652.792969 390.417969 L 83.179688 348.046875 Z M 106.625 32.972656 " clip-rule="nonzero"/></clipPath><clipPath id="03efe184e4"><path d="M 106.617188 33.007812 L 676.46875 75.398438 L 653.023438 390.605469 L 83.175781 348.214844 Z M 106.617188 33.007812 " clip-rule="nonzero"/></clipPath><clipPath id="75384de75b"><path d="M 106.617188 33.007812 L 676.234375 75.378906 L 652.796875 390.394531 L 83.1875 348.015625 Z M 106.617188 33.007812 " clip-rule="nonzero"/></clipPath></defs><g clip-path="url(#569bc21ea9)"><g clip-path="url(#8bfbd2f650)"><g clip-path="url(#4677a636bc)"><g clip-path="url(#a5c49da8e0)"><g clip-path="url(#03efe184e4)"><g clip-path="url(#75384de75b)"><path fill="#131212" d="M 488.644531 255.679688 C 488.09375 255.976562 486.230469 257 484.488281 257.949219 C 482.746094 258.90625 479.246094 261.3125 476.707031 263.300781 C 474.15625 265.292969 469.703125 268.585938 466.804688 270.609375 C 460.675781 274.890625 446.800781 287.707031 442.226562 293.304688 C 438.988281 297.273438 435.09375 300.558594 428.882812 304.578125 C 426.925781 305.84375 423.957031 307.839844 422.292969 309.019531 C 420.621094 310.199219 416.710938 312.613281 413.59375 314.394531 C 406.40625 318.5 404.664062 319.984375 397.539062 328.074219 C 382.722656 344.894531 382.269531 345.339844 375.753906 349.578125 C 373.34375 351.140625 370.042969 353.457031 368.421875 354.722656 C 365.253906 357.1875 364.066406 357.597656 365.167969 355.855469 C 366.292969 354.089844 365.957031 348.855469 364.453125 344.421875 C 362.910156 339.898438 362.949219 339.632812 365.957031 334.21875 C 367.414062 331.585938 368.363281 330.464844 369.351562 330.167969 C 370.429688 329.851562 370.730469 329.4375 370.726562 328.308594 C 370.726562 327.417969 371.863281 325.023438 373.648438 322.121094 C 376.261719 317.886719 377.4375 316.632812 384.65625 310.386719 C 393.539062 302.703125 396.371094 299.40625 401.5 290.789062 C 406.039062 283.175781 409.457031 278.050781 413.675781 272.558594 C 417.570312 267.480469 419.34375 266.382812 425.828125 265.023438 C 428.726562 264.410156 431.636719 264.339844 439.140625 264.691406 C 450.285156 265.222656 455.546875 264.539062 465.664062 261.261719 C 471.660156 259.316406 488.167969 254.960938 489.121094 255.070312 C 489.40625 255.105469 489.191406 255.375 488.644531 255.679688 Z M 478.066406 268.171875 C 476.222656 270.253906 472.878906 273.707031 470.652344 275.835938 C 468.417969 277.96875 465.023438 281.472656 463.109375 283.625 C 458.367188 288.957031 456.28125 290.867188 447.910156 297.527344 C 443.949219 300.675781 439.4375 304.269531 437.890625 305.515625 C 436.347656 306.761719 432.390625 310.601562 429.101562 314.046875 C 422.746094 320.726562 418.109375 324.804688 412.773438 328.417969 C 407.207031 332.1875 402.738281 336.105469 397.0625 342.222656 C 393.445312 346.113281 389.367188 349.765625 384.929688 353.089844 C 381.257812 355.835938 376.554688 359.464844 374.476562 361.140625 C 372.402344 362.820312 369.757812 364.585938 368.601562 365.078125 C 366.519531 365.949219 366.484375 365.949219 366.027344 364.917969 C 365.777344 364.34375 365.613281 363.207031 365.679688 362.386719 C 365.796875 360.78125 366.855469 359.929688 378.0625 352.398438 C 383.921875 348.460938 386.199219 346.292969 395.265625 336.039062 C 407.457031 322.242188 407.457031 322.242188 415.753906 317.203125 C 433.296875 306.554688 440.800781 300.972656 445 295.429688 C 448.054688 291.402344 463.527344 277.1875 468.632812 273.722656 C 470.625 272.367188 474.246094 269.707031 476.679688 267.804688 C 479.113281 265.90625 481.175781 264.359375 481.269531 264.363281 C 481.363281 264.371094 479.917969 266.082031 478.066406 268.171875 Z M 406.339844 276.03125 C 406.398438 276.023438 404.011719 280.007812 401.035156 284.886719 C 393.214844 297.714844 391.511719 299.8125 383.117188 306.910156 C 379.050781 310.335938 374.996094 314.117188 374.09375 315.304688 C 373.191406 316.492188 372.382812 317.207031 372.304688 316.898438 C 372.132812 316.195312 373.597656 313.789062 376.328125 310.316406 C 377.496094 308.828125 379.824219 305.359375 381.496094 302.613281 C 384.980469 296.894531 391.71875 289.324219 400.371094 281.414062 C 403.597656 278.464844 406.289062 276.039062 406.339844 276.03125 Z M 363.769531 331.117188 L 360.917969 335.734375 L 359.976562 334.179688 C 358.78125 332.207031 358.789062 332.199219 360.445312 332.339844 C 362.292969 332.507812 363.996094 330.070312 364.324219 326.773438 C 364.703125 323.03125 364.273438 321.785156 360.902344 316.875 C 359.195312 314.375 357.5625 311.96875 357.269531 311.53125 C 356.988281 311.089844 357.445312 311.304688 358.304688 312 C 360.105469 313.472656 361.109375 313.660156 362.050781 312.683594 C 362.941406 311.757812 361.621094 304.671875 359.878906 301.019531 C 358.476562 298.082031 347.964844 284.402344 344.617188 281.15625 C 343.414062 279.988281 339.058594 277.042969 334.9375 274.613281 C 330.605469 272.050781 326.011719 268.863281 324.03125 267.046875 C 315.875 259.5625 308.148438 253.179688 304.902344 251.246094 C 301.722656 249.339844 301.394531 248.980469 301.160156 247.167969 C 300.859375 244.726562 296.257812 232.226562 294.132812 228.050781 C 293.28125 226.382812 291.507812 222.464844 290.191406 219.355469 C 287.667969 213.363281 285.925781 210.679688 284.5 210.578125 C 283.285156 210.488281 284.003906 209.472656 289.34375 203.742188 C 291.773438 201.128906 294.578125 197.769531 295.574219 196.265625 C 298.425781 191.929688 302.535156 182.699219 302.277344 181.210938 C 302.078125 180.035156 302.175781 179.957031 303.367188 180.351562 C 305.542969 181.074219 308.703125 180.164062 310.402344 178.332031 C 311.910156 176.699219 311.949219 176.683594 312.601562 177.78125 C 313.421875 179.164062 316.898438 181.117188 318.816406 181.28125 C 319.847656 181.363281 320.222656 181.65625 320.171875 182.351562 C 320.082031 183.578125 321.390625 184.945312 323.222656 185.550781 C 324.113281 185.847656 325.082031 186.835938 325.792969 188.164062 C 326.410156 189.339844 327.960938 191.128906 329.230469 192.140625 C 332.710938 194.910156 333.867188 196.542969 335.867188 201.503906 C 339.570312 210.695312 342.628906 213.082031 354.503906 216.09375 C 363.433594 218.351562 366.878906 218.527344 369.007812 216.816406 C 369.804688 216.183594 370.691406 215.144531 370.988281 214.519531 L 371.53125 213.371094 L 373.476562 214.875 C 374.578125 215.734375 375.960938 216.347656 376.675781 216.308594 C 377.46875 216.269531 378.539062 216.832031 379.578125 217.851562 C 381.058594 219.289062 381.488281 219.445312 383.851562 219.339844 C 387.394531 219.1875 392.425781 217.070312 395.273438 214.539062 C 398.925781 211.292969 401.984375 205.886719 406.238281 195.136719 C 410.050781 185.511719 410.445312 183.796875 408.992188 183.113281 C 408.457031 182.859375 408.714844 182.378906 410.023438 181.183594 C 413.789062 177.738281 416.160156 173.53125 417.421875 168.082031 L 417.878906 166.117188 L 419.144531 168.476562 C 419.839844 169.773438 420.71875 171.136719 421.097656 171.503906 C 422.589844 172.917969 424.300781 173.027344 426.925781 171.871094 C 430.023438 170.503906 429.992188 170.511719 429.902344 171.78125 C 429.816406 172.859375 431.664062 174.664062 435.171875 176.945312 C 436.554688 177.839844 437.652344 179.097656 438.199219 180.414062 C 438.675781 181.550781 440.199219 183.917969 441.59375 185.675781 C 444.886719 189.851562 445.324219 192.226562 444.574219 201.867188 C 443.847656 211.3125 441.554688 220.558594 438.289062 227.238281 C 435.0625 233.828125 427.417969 248.207031 424.382812 253.382812 C 421.117188 258.945312 416.929688 263.710938 413.050781 266.28125 C 407.625 269.867188 391.226562 284.742188 385.605469 291.175781 C 382.65625 294.546875 379.347656 298.945312 378.238281 300.960938 C 377.132812 302.980469 374.945312 306.296875 373.371094 308.335938 C 369.550781 313.296875 367.976562 316.828125 367.234375 322.140625 C 366.6875 326.0625 366.34375 326.953125 363.769531 331.117188 Z M 361.8125 351.253906 C 361.613281 350.667969 361.492188 349.601562 361.542969 348.886719 C 361.632812 347.707031 361.671875 347.6875 362.007812 348.660156 C 362.214844 349.25 362.335938 350.320312 362.277344 351.03125 C 362.195312 352.21875 362.148438 352.238281 361.8125 351.253906 Z M 357.269531 325.714844 C 355.613281 324.234375 352.171875 321.351562 349.644531 319.292969 C 341.339844 312.5625 337.609375 309.238281 331.730469 303.339844 C 325.316406 296.902344 324.695312 296.179688 318.09375 287.453125 C 315.5625 284.109375 313.125 281.019531 312.671875 280.585938 C 311.113281 279.082031 304.160156 269.976562 304.601562 270.015625 C 304.84375 270.035156 307.699219 273.300781 310.945312 277.277344 C 317.371094 285.164062 322.589844 289.652344 333.347656 296.566406 C 346.46875 304.992188 350.722656 308.621094 355.683594 315.628906 C 360.957031 323.054688 361.820312 325.144531 360.660156 327.617188 C 360.367188 328.238281 359.671875 327.84375 357.269531 325.714844 Z M 325.449219 286.484375 C 325.445312 286.632812 324.386719 285.917969 323.09375 284.898438 C 320.65625 282.96875 308.484375 269.359375 308.542969 268.625 C 308.628906 267.46875 313.441406 272.082031 319.125 278.761719 C 322.617188 282.867188 325.464844 286.34375 325.449219 286.484375 Z M 298.894531 256.703125 C 296.132812 253.394531 293.050781 249.566406 292.035156 248.199219 C 291.015625 246.832031 287.984375 243.003906 285.285156 239.695312 C 280.511719 233.835938 280.386719 233.621094 280.5625 231.253906 C 280.761719 228.472656 283.632812 217.296875 284.132812 217.347656 C 284.3125 217.359375 285.195312 218.617188 286.085938 220.140625 C 291.242188 228.941406 297.800781 244.851562 297.558594 248 C 297.367188 250.652344 297.832031 251.21875 302.414062 253.96875 C 306.5625 256.460938 310.988281 260.039062 320.667969 268.746094 C 325.761719 273.332031 328.636719 275.375 333.921875 278.140625 C 340.304688 281.484375 342.730469 283.738281 349.816406 292.886719 C 355.625 300.386719 358.34375 304.988281 357.769531 306.335938 C 357.652344 306.585938 355.894531 305.613281 353.851562 304.160156 C 351.8125 302.707031 346.996094 299.625 343.152344 297.308594 L 336.167969 293.085938 L 325.375 280.605469 C 319.429688 273.742188 313.789062 267.570312 312.835938 266.894531 C 311.886719 266.214844 310.285156 264.816406 309.292969 263.769531 C 307.464844 261.859375 305.601562 261.253906 304.496094 262.207031 C 304.078125 262.570312 302.445312 260.964844 298.894531 256.703125 Z M 301.367188 265.589844 C 301.226562 265.582031 300.722656 265.074219 300.25 264.46875 C 299.773438 263.859375 299.503906 263.371094 299.644531 263.375 C 299.785156 263.390625 300.296875 263.898438 300.765625 264.507812 C 301.238281 265.113281 301.507812 265.601562 301.367188 265.589844 Z M 295.726562 259.523438 C 293.664062 258.078125 287.953125 251.664062 285.460938 248.003906 C 283.742188 245.480469 281.613281 241.160156 282.105469 241.191406 C 282.226562 241.203125 284.511719 244.132812 287.191406 247.707031 C 289.867188 251.277344 293.253906 255.664062 294.726562 257.453125 C 297.023438 260.246094 297.167969 260.539062 295.726562 259.523438 Z M 363.710938 202.117188 C 363.257812 199.710938 363.535156 190.875 364.058594 190.914062 C 364.183594 190.925781 364.808594 192.320312 365.445312 194.023438 C 367.835938 200.355469 369.3125 208.933594 368.355469 210.957031 C 368.003906 211.714844 367.839844 211.65625 367.027344 210.449219 C 365.570312 208.285156 364.257812 204.988281 363.710938 202.117188 Z M 376.257812 208.273438 C 376.429688 210.132812 376.398438 211.804688 376.183594 211.992188 C 375.972656 212.171875 375.253906 211.734375 374.589844 211.007812 C 373.53125 209.855469 373.417969 209.261719 373.648438 206.019531 C 373.828125 203.492188 373.640625 201.625 373.054688 200.011719 C 372.585938 198.722656 372.234375 197.175781 372.289062 196.5625 C 372.449219 194.554688 375.921875 204.808594 376.257812 208.273438 Z M 450.171875 160.804688 C 450.324219 160.980469 450.667969 163.230469 450.925781 165.824219 C 452.273438 179.394531 451.839844 193.160156 449.78125 202.207031 C 449.144531 205.007812 448.5625 207.355469 448.484375 207.421875 C 448.414062 207.484375 448.679688 202.59375 449.078125 196.546875 C 449.484375 190.5 449.808594 182.144531 449.800781 177.984375 C 449.789062 164.488281 449.875 160.496094 450.171875 160.804688 Z M 667.234375 137.792969 C 663.285156 140.101562 653.160156 143.863281 647.953125 144.960938 C 641.402344 146.328125 632.097656 147.441406 622.449219 147.996094 C 604.605469 149.027344 593.253906 151.976562 579.375 159.210938 C 574.078125 161.972656 570.179688 165.347656 565.191406 171.492188 C 563.351562 173.761719 560.15625 177.253906 558.097656 179.253906 C 556.039062 181.253906 552.859375 184.65625 551.019531 186.816406 C 549.1875 188.980469 545.484375 193.042969 542.792969 195.863281 C 540.09375 198.679688 535.828125 203.292969 533.300781 206.117188 C 530.777344 208.945312 525.722656 214.203125 522.078125 217.8125 C 513.714844 226.078125 509.707031 230.71875 506.136719 236.285156 C 504.582031 238.707031 502.613281 241.570312 501.757812 242.65625 C 500.90625 243.738281 499.601562 245.644531 498.867188 246.882812 C 498.128906 248.113281 496.660156 249.914062 495.585938 250.878906 C 493.832031 252.457031 493.484375 252.574219 491.882812 252.082031 C 488.792969 251.140625 479.097656 253.160156 465.296875 257.621094 C 454.289062 261.183594 450.988281 261.621094 438.625 261.175781 C 432.617188 260.957031 426.875 260.984375 425.855469 261.226562 C 423.136719 261.875 423.132812 261.847656 425.152344 258.980469 C 426.175781 257.535156 428.746094 253.085938 430.863281 249.097656 C 432.980469 245.109375 436.0625 239.363281 437.722656 236.332031 C 439.375 233.292969 441.53125 229.164062 442.515625 227.140625 C 443.492188 225.128906 445.511719 221.46875 446.996094 219.019531 C 452.320312 210.222656 455.152344 197.78125 455.171875 183.046875 C 455.191406 169.316406 453.816406 156.835938 451.925781 153.5 C 450.757812 151.453125 449.167969 150.871094 447.851562 152.007812 C 446.683594 153.023438 446.214844 159.023438 446.355469 171.199219 C 446.414062 176.085938 446.375 181.242188 446.277344 182.65625 L 446.097656 185.230469 L 444.195312 183.0625 C 443.144531 181.875 442 180.152344 441.644531 179.246094 C 440.839844 177.148438 438.933594 175.097656 435.929688 173.058594 C 434.632812 172.175781 433.585938 171.296875 433.597656 171.105469 C 433.613281 170.910156 434.023438 170.25 434.519531 169.644531 C 435.019531 169.039062 435.386719 168.019531 435.339844 167.375 C 435.207031 165.296875 432.28125 165.335938 427.933594 167.476562 C 423.433594 169.691406 423.375 169.65625 421.054688 163.449219 C 419.621094 159.636719 419.207031 159.003906 418.097656 158.921875 C 416.304688 158.792969 415.234375 160.4375 414.542969 164.398438 C 413.675781 169.328125 412.21875 172.980469 409.953125 175.90625 C 407.148438 179.523438 405.476562 180.589844 398.34375 183.320312 C 389.253906 186.792969 389.433594 186.699219 389.328125 188.0625 C 389.148438 190.507812 390.402344 190.613281 397.878906 188.796875 C 401.726562 187.855469 404.980469 187.210938 405.101562 187.347656 C 405.21875 187.488281 404.109375 190.773438 402.628906 194.644531 C 399.488281 202.859375 395.800781 209.453125 392.996094 211.886719 C 390.644531 213.925781 386.78125 215.566406 383.921875 215.734375 C 382.03125 215.847656 381.824219 215.726562 381.128906 214.085938 C 380.714844 213.113281 380.089844 208.414062 379.734375 203.648438 C 379.339844 198.238281 378.757812 194.152344 378.199219 192.785156 C 377.042969 189.960938 374.140625 186.449219 372.886719 186.351562 C 372.300781 186.308594 371.824219 185.796875 371.695312 185.09375 C 371.582031 184.4375 370.421875 181.421875 369.117188 178.390625 C 366.472656 172.253906 366.296875 170.089844 368.113281 165.792969 C 369.945312 161.4375 377.875 149.589844 384.675781 141.039062 C 390.050781 134.277344 392.640625 131.546875 398.082031 126.898438 C 406.347656 119.832031 410.425781 116.949219 419.355469 111.839844 C 434.359375 103.269531 440.246094 101.898438 459.578125 102.5 C 480.5625 103.152344 493.59375 101.617188 523.4375 94.988281 C 535.964844 92.207031 551.960938 89.246094 571.796875 86.039062 C 587.828125 83.445312 596.507812 82.328125 611.738281 80.914062 C 626.417969 79.546875 632.453125 78.714844 638.996094 77.160156 C 644.066406 75.953125 645.292969 75.253906 644.859375 73.808594 C 644.523438 72.695312 643.085938 72.65625 639.441406 73.667969 C 634.316406 75.09375 626.339844 76.21875 614.183594 77.222656 C 587.910156 79.398438 552.574219 84.949219 521.070312 91.859375 C 491.238281 98.394531 481.835938 99.488281 459.023438 99.0625 C 440.433594 98.710938 434.785156 99.707031 424.046875 105.21875 C 406.074219 114.433594 393.828125 124.144531 382.5625 138.113281 C 374.4375 148.183594 374.441406 148.183594 369.0625 156.925781 L 364.867188 163.746094 L 363.535156 160.90625 C 360.769531 155.015625 353.339844 148.441406 339.996094 140.078125 C 335.199219 137.070312 328.007812 132.398438 324.003906 129.6875 C 320.003906 126.976562 314.351562 123.375 311.445312 121.683594 L 306.15625 118.605469 L 298.792969 117.691406 C 294.738281 117.179688 289.601562 116.839844 287.371094 116.917969 C 282.582031 117.089844 282.078125 116.882812 275.398438 112.023438 C 266.816406 105.785156 264.644531 105.210938 242.644531 103.351562 L 226.847656 102.023438 L 221.007812 99.957031 C 217.792969 98.820312 210.578125 96.394531 204.976562 94.5625 C 168.019531 82.488281 146.890625 74.492188 141.105469 70.382812 C 137.722656 67.976562 136.355469 67.738281 136.21875 69.53125 C 135.992188 72.597656 146.382812 77.902344 168.109375 85.804688 C 171.738281 87.121094 184.089844 91.335938 195.5625 95.164062 C 207.027344 98.996094 218.128906 102.757812 220.21875 103.53125 C 223.632812 104.792969 225.890625 105.113281 242.398438 106.707031 C 264.253906 108.816406 264.992188 109.003906 272.578125 114.394531 C 281.117188 120.453125 280.007812 120.054688 288.984375 120.335938 C 303.566406 120.796875 305.722656 121.609375 322.308594 132.835938 C 327.078125 136.0625 334.335938 140.792969 338.445312 143.347656 C 347.976562 149.277344 351.6875 152.136719 356.167969 156.996094 C 360.703125 161.921875 361.789062 164.578125 362.59375 172.800781 C 362.9375 176.273438 363.382812 179.996094 363.574219 181.082031 C 363.878906 182.738281 363.769531 183.191406 362.871094 183.964844 C 361.445312 185.191406 359.820312 192.667969 359.839844 197.890625 C 359.863281 204.046875 361.402344 208.808594 364.722656 213.023438 C 365.835938 214.429688 365.847656 214.546875 364.917969 214.527344 C 361.308594 214.457031 349.867188 211.539062 346.667969 209.875 C 343.53125 208.242188 341.5 205.523438 338.976562 199.585938 C 337.035156 195.023438 335.058594 192.277344 331.632812 189.390625 C 330.695312 188.597656 330.652344 188.457031 331.417969 188.792969 C 331.972656 189.03125 335.574219 189.574219 339.421875 190 C 345.578125 190.683594 346.511719 190.675781 347.21875 189.945312 C 347.796875 189.339844 347.886719 188.867188 347.539062 188.210938 C 347.152344 187.476562 345.882812 187.164062 340.914062 186.558594 C 334.941406 185.835938 324.804688 183.09375 324.871094 182.222656 C 324.890625 182.003906 325.800781 181.609375 326.890625 181.339844 C 332.640625 179.957031 332.078125 176.394531 326.277344 177.453125 C 324.6875 177.738281 322.03125 177.871094 320.359375 177.75 C 317.714844 177.550781 317.160156 177.324219 316.042969 175.976562 C 315.339844 175.117188 314.558594 173.976562 314.300781 173.433594 C 313.621094 171.96875 311.058594 171.9375 309.816406 173.375 C 306.195312 177.5625 306.496094 177.390625 303.675781 176.832031 C 302.246094 176.550781 297.515625 175.234375 293.171875 173.902344 C 288.824219 172.582031 284.503906 171.433594 283.570312 171.363281 C 280.394531 171.117188 280.53125 174.109375 283.742188 175.226562 C 288.824219 176.988281 297.824219 180.878906 298.277344 181.507812 C 298.65625 182.046875 298.238281 183.382812 296.625 186.726562 C 293.339844 193.558594 291.84375 195.765625 286.679688 201.34375 C 278.335938 210.351562 275.75 215.824219 274.980469 226.046875 C 274.527344 232.09375 275.25 238.074219 276.445312 238.164062 C 276.734375 238.183594 277.464844 239.578125 278.066406 241.25 C 279.671875 245.785156 282.097656 249.839844 286.171875 254.808594 C 288.171875 257.253906 289.953125 259.851562 290.113281 260.582031 C 290.628906 262.839844 293.980469 268.253906 297.554688 272.617188 C 299.429688 274.914062 302.789062 279.15625 305 282.046875 C 307.21875 284.9375 313.117188 292.117188 318.113281 298.011719 C 327.941406 309.601562 338.738281 319.988281 346.785156 325.605469 C 351.753906 329.070312 355.683594 333.25 357.542969 337.03125 C 358.695312 339.382812 358.75 339.949219 358.328125 345.542969 L 357.882812 351.53125 L 352.851562 349.144531 C 345.957031 345.878906 339.421875 341.878906 335.277344 338.382812 C 324.496094 329.296875 319.222656 324.753906 315.113281 321.023438 C 312.582031 318.726562 309.574219 316.203125 308.433594 315.414062 C 305.335938 313.273438 299.695312 310.957031 292.203125 308.75 C 287.765625 307.4375 284.351562 306.078125 282.078125 304.710938 C 277.621094 302.023438 270.695312 295.753906 264.0625 288.394531 C 253.425781 276.597656 247.304688 270.914062 243.03125 268.847656 C 241.964844 268.332031 239.417969 267.4375 237.371094 266.847656 C 235.324219 266.261719 233.007812 265.382812 232.222656 264.90625 C 229.582031 263.273438 226.589844 258.441406 219.75 244.734375 C 210.902344 227.027344 209.320312 223.605469 205.46875 213.867188 C 200.667969 201.757812 197.199219 194.625 192.40625 187.023438 C 190.039062 183.253906 186.972656 178.222656 185.605469 175.828125 C 184.230469 173.433594 180.195312 168.0625 176.636719 163.894531 C 170.167969 156.320312 170.148438 156.300781 163.417969 152.335938 C 159.714844 150.15625 154.410156 147.363281 151.636719 146.136719 C 145.304688 143.328125 138.808594 139.230469 131.25 133.289062 C 124.550781 128.015625 123.875 127.410156 112.800781 116.703125 C 106.566406 110.683594 104.667969 108.539062 104.625 107.480469 C 104.515625 104.828125 101.230469 105.4375 101.03125 108.148438 C 100.902344 109.882812 102.457031 111.65625 113.277344 122.144531 C 121.925781 130.519531 132.871094 139.488281 140.058594 144.089844 C 142.382812 145.582031 146.667969 147.847656 149.582031 149.128906 C 152.5 150.414062 157.695312 153.078125 161.132812 155.054688 C 167.375 158.648438 167.386719 158.660156 174.09375 166.535156 C 177.785156 170.863281 181.617188 175.886719 182.617188 177.679688 C 183.609375 179.480469 186.390625 184.074219 188.792969 187.902344 C 193.972656 196.140625 195.691406 199.644531 201.890625 214.609375 C 209.707031 233.484375 221.898438 258.273438 226.148438 263.945312 C 228.699219 267.332031 230.511719 268.476562 235.992188 270.132812 C 238.921875 271.011719 241.992188 272.367188 243.800781 273.566406 C 247.296875 275.890625 253.59375 282.019531 260.324219 289.648438 C 268.882812 299.351562 278.285156 307.378906 283.757812 309.660156 C 285.480469 310.367188 289.261719 311.613281 292.171875 312.425781 C 301.503906 315.019531 306.304688 317.597656 312.117188 323.121094 C 313.6875 324.609375 317.289062 327.773438 320.121094 330.152344 C 322.953125 332.527344 327.367188 336.296875 329.921875 338.535156 C 336.085938 343.917969 342.230469 347.996094 349.289062 351.390625 C 356.972656 355.089844 358.878906 356.417969 359.949219 358.832031 C 360.4375 359.941406 361.207031 361 361.664062 361.179688 C 362.199219 361.398438 362.511719 362.328125 362.574219 363.882812 C 362.679688 366.671875 364.234375 368.925781 366.148438 369.066406 C 368.410156 369.234375 372.0625 367.394531 376.449219 363.882812 C 378.785156 362.019531 383.542969 358.410156 387.019531 355.875 C 393.214844 351.351562 395.300781 349.429688 403.089844 341.035156 C 405.507812 338.433594 409.335938 335.21875 413.417969 332.359375 C 422.015625 326.347656 423.699219 324.875 431.921875 316.28125 C 436.445312 311.550781 441.214844 307.21875 445.441406 304.011719 C 454.382812 297.21875 460.777344 291.582031 465.097656 286.699219 C 467.097656 284.441406 470.601562 280.824219 472.886719 278.664062 C 475.167969 276.507812 478.480469 273.09375 480.234375 271.070312 C 484.332031 266.359375 488.4375 262.246094 494.824219 256.464844 C 497.632812 253.921875 500.53125 250.84375 501.265625 249.632812 C 502 248.410156 503.304688 246.527344 504.164062 245.449219 C 505.015625 244.359375 507.242188 241.132812 509.105469 238.28125 C 513.105469 232.125 516.628906 228.097656 526.15625 218.726562 C 530.039062 214.90625 534.183594 210.636719 535.359375 209.234375 C 536.527344 207.835938 540.191406 203.839844 543.496094 200.347656 C 546.792969 196.863281 551.484375 191.746094 553.910156 188.980469 C 556.335938 186.210938 559.679688 182.636719 561.339844 181.023438 C 562.996094 179.421875 566.042969 176.074219 568.101562 173.582031 C 572.851562 167.84375 575.726562 165.289062 580.160156 162.882812 C 593.9375 155.382812 604.355469 152.679688 624.695312 151.324219 C 641.777344 150.1875 650.933594 148.492188 660.394531 144.703125 C 668.886719 141.316406 671.6875 139.613281 671.5625 137.910156 C 671.453125 136.222656 669.988281 136.1875 667.234375 137.792969 " fill-opacity="1" fill-rule="nonzero"/></g></g></g></g></g></g><path fill="#000000" d="M 217.589844 19.734375 C 219.414062 16.796875 219.078125 14.367188 216.425781 12.101562 C 216.039062 11.765625 215.59375 11.492188 215.15625 11.214844 C 211.671875 9.054688 207.742188 8.226562 203.703125 8.0625 C 195.847656 7.671875 188.105469 8.667969 180.414062 9.777344 C 157.347656 13.203125 134.554688 18.296875 112.265625 25.046875 C 100.761719 28.53125 89.421875 32.511719 78.632812 37.984375 C 75.257812 39.757812 71.882812 41.585938 69.230469 44.40625 C 66.851562 46.894531 67.019531 49.4375 69.558594 51.761719 C 71.722656 53.808594 74.375 54.96875 77.195312 55.742188 C 88.917969 59.007812 100.871094 60.335938 113.042969 59.835938 C 114.035156 59.835938 114.976562 59.671875 115.753906 58.949219 C 116.03125 58.730469 116.578125 58.898438 116.527344 58.453125 C 116.527344 57.957031 115.972656 57.789062 115.585938 57.738281 C 115.027344 57.570312 114.421875 57.570312 113.816406 57.570312 C 112.816406 57.511719 111.820312 57.570312 110.878906 57.511719 C 103.910156 57.125 97 56.1875 90.140625 54.75 C 86.269531 53.917969 82.449219 53.089844 78.691406 51.871094 C 77.027344 51.316406 76.808594 50.542969 77.75 49.101562 C 78.1875 48.496094 78.691406 47.941406 79.1875 47.445312 C 80.511719 46.171875 82.007812 45.179688 83.558594 44.292969 C 91.6875 39.539062 100.425781 36.164062 109.332031 33.226562 C 137.265625 24.046875 165.808594 17.351562 195.074219 14.035156 C 199.222656 13.589844 203.425781 13.371094 207.632812 13.429688 C 208.683594 13.480469 208.792969 13.816406 208.457031 14.644531 C 207.792969 16.140625 206.800781 17.351562 205.695312 18.515625 C 203.148438 21.117188 200.273438 23.386719 197.339844 25.484375 C 186.445312 33.453125 174.773438 40.085938 163.097656 46.78125 C 159.5625 48.773438 155.96875 50.765625 152.425781 52.753906 C 152.316406 52.644531 152.257812 52.585938 152.148438 52.535156 C 152.484375 51.980469 152.753906 51.425781 153.089844 50.878906 C 157.402344 43.460938 161.777344 35.996094 166.085938 28.582031 C 167.246094 26.484375 168.46875 24.433594 169.460938 22.21875 C 169.679688 21.671875 169.957031 21.058594 169.351562 20.507812 C 168.082031 19.347656 166.53125 19.457031 165.480469 20.785156 C 165.09375 21.28125 164.761719 21.832031 164.375 22.335938 C 157.402344 32.5625 150.65625 42.90625 144.347656 53.585938 C 142.191406 57.183594 139.757812 59.949219 135.828125 61.550781 C 134.117188 62.214844 132.402344 63.15625 131.019531 64.480469 C 129.742188 65.640625 129.632812 66.917969 130.683594 68.300781 C 131.292969 69.183594 132.015625 69.90625 132.957031 70.347656 C 134.117188 70.902344 134.058594 71.507812 133.503906 72.5 C 130.1875 78.476562 127.417969 84.671875 125.210938 91.09375 C 124.824219 92.195312 125.097656 92.859375 126.039062 93.300781 C 128.363281 94.300781 129.085938 93.964844 130.128906 92.253906 C 133.453125 86.5 136.769531 80.691406 139.816406 74.773438 C 140.3125 73.777344 140.808594 73.445312 141.972656 73.722656 C 144.234375 74.21875 146.507812 74.554688 148.832031 74.824219 C 160.777344 76.101562 172.777344 76.429688 184.839844 76.261719 C 187.996094 76.210938 191.144531 75.933594 194.300781 75.765625 C 194.796875 75.714844 195.460938 75.714844 195.628906 75.160156 C 195.789062 74.496094 195.242188 74.109375 194.796875 73.832031 C 193.800781 73.113281 192.640625 72.835938 191.421875 72.777344 C 182.851562 72.5 174.21875 72.113281 165.648438 71.457031 C 158.511719 70.902344 151.429688 69.957031 144.402344 68.578125 C 144.125 68.519531 143.628906 68.578125 143.519531 68.191406 C 143.410156 67.804688 143.796875 67.527344 144.125 67.308594 C 145.179688 66.582031 146.28125 65.917969 147.390625 65.253906 C 161.71875 57.125 176.320312 49.378906 190.371094 40.699219 C 198.003906 35.9375 205.585938 31.128906 212.445312 25.265625 C 214.382812 23.65625 216.203125 21.890625 217.589844 19.734375 Z M 217.589844 19.734375 " fill-opacity="1" fill-rule="nonzero"/><path fill="#000000" d="M 227.316406 70.515625 C 229.53125 71.84375 231.796875 72.230469 234.289062 71.179688 C 236.113281 70.402344 237.828125 69.460938 239.429688 68.300781 C 244.246094 64.925781 248.890625 61.273438 253.148438 57.183594 C 254.257812 56.1875 254.144531 55.691406 252.820312 54.96875 C 251.324219 54.195312 250.160156 54.96875 248.949219 55.574219 C 245.851562 57.292969 242.972656 59.394531 239.984375 61.273438 C 237.164062 63.046875 234.34375 64.867188 231.355469 66.417969 C 231.191406 65.757812 231.46875 65.253906 231.636719 64.757812 C 232.410156 62.660156 233.183594 60.558594 234.007812 58.511719 C 234.398438 57.511719 234.121094 56.792969 233.34375 56.1875 C 232.132812 55.1875 230.746094 54.691406 229.035156 55.027344 C 229.582031 53.753906 230.136719 52.644531 230.582031 51.484375 C 231.078125 50.210938 230.859375 48.992188 229.808594 48.109375 C 227.703125 46.339844 225.324219 45.457031 222.5625 46.171875 C 220.457031 46.726562 218.632812 47.890625 216.972656 49.21875 C 211.882812 53.199219 207.738281 58.015625 204.304688 63.433594 C 203.09375 65.371094 202.09375 67.359375 201.59375 69.628906 C 200.988281 72.230469 201.59375 74 203.867188 75.488281 C 206.6875 77.425781 209.558594 77.921875 212.714844 75.933594 C 216.753906 73.332031 220.347656 70.179688 223.941406 67.027344 C 224.328125 66.695312 224.664062 66.363281 225.324219 65.808594 C 224.996094 68.023438 225.710938 69.519531 227.316406 70.515625 Z M 212.050781 68.855469 C 211.996094 68.90625 211.941406 68.855469 211.664062 68.796875 C 215.535156 62.324219 220.019531 56.40625 225.988281 51.375 C 225.988281 52.8125 225.9375 53.917969 225.550781 54.859375 C 225.164062 55.800781 225.492188 56.296875 226.214844 56.625 C 226.710938 56.851562 226.929688 57.070312 226.433594 57.511719 C 221.898438 61.609375 217.191406 65.53125 212.050781 68.855469 Z M 212.050781 68.855469 " fill-opacity="1" fill-rule="nonzero"/><path fill="#000000" d="M 269.796875 70.457031 C 271.902344 71.726562 274.167969 72.171875 276.546875 71.339844 C 277.761719 70.902344 278.921875 70.402344 280.085938 69.792969 C 284.511719 67.527344 288.828125 64.984375 293.03125 62.273438 C 294.804688 61.113281 296.515625 59.949219 298.121094 58.5625 C 299.003906 57.789062 299.003906 57.347656 298.011719 56.683594 C 296.960938 55.910156 295.851562 55.691406 294.527344 56.40625 C 288.222656 59.78125 281.859375 63.15625 275.328125 66.195312 C 274.78125 66.472656 274.167969 66.863281 273.394531 66.863281 C 273.449219 66.195312 273.503906 65.640625 273.617188 65.09375 C 274.226562 62.433594 274.832031 59.78125 275.386719 57.070312 C 275.941406 54.195312 275.167969 52.863281 272.507812 51.761719 C 270.910156 51.097656 269.46875 51.265625 267.972656 52.148438 C 265.984375 53.308594 264.210938 54.800781 262.5 56.347656 C 259.125 59.335938 255.75 62.382812 252.265625 65.53125 C 252.207031 64.925781 252.542969 64.597656 252.703125 64.210938 C 255.136719 59.007812 257.90625 53.972656 260.726562 48.992188 C 261.339844 47.941406 261.113281 47.167969 260.230469 46.558594 C 257.519531 44.683594 255.96875 44.683594 254.203125 47.003906 C 249.832031 52.753906 246.179688 58.949219 243.300781 65.53125 C 242.476562 67.359375 241.921875 69.242188 241.703125 71.230469 C 241.476562 73.222656 242.25 74.605469 244.246094 75.65625 C 246.121094 76.652344 248.058594 77.375 249.992188 75.714844 C 251.542969 74.328125 252.929688 72.835938 254.3125 71.339844 C 258.679688 66.75 263.214844 62.324219 268.082031 58.285156 C 268.417969 58.015625 268.804688 57.789062 269.351562 57.347656 C 268.636719 60.390625 267.695312 62.988281 267.476562 65.808594 C 267.308594 67.804688 268.03125 69.351562 269.796875 70.457031 Z M 269.796875 70.457031 " fill-opacity="1" fill-rule="nonzero"/><path fill="#000000" d="M 321.242188 58.839844 C 327.160156 46.945312 333.851562 35.5 340.273438 23.824219 C 341.542969 21.558594 343.035156 19.457031 344.195312 17.074219 C 344.421875 16.6875 344.691406 16.191406 344.421875 15.636719 C 343.648438 14.253906 340.273438 14.035156 339.4375 15.367188 C 336.789062 19.675781 333.578125 23.605469 331.089844 28.085938 C 330.039062 30.128906 328.707031 32.066406 327.269531 33.839844 C 324.339844 37.542969 321.410156 41.199219 318.53125 44.84375 C 318.035156 45.398438 317.699219 46.171875 317.09375 46.449219 C 316.425781 46.726562 315.988281 45.785156 315.324219 45.507812 C 311.34375 43.628906 307.582031 43.960938 303.984375 46.507812 C 299.171875 49.824219 295.519531 54.195312 292.480469 59.058594 C 290.316406 62.601562 288.382812 66.304688 287.445312 70.292969 C 286.890625 72.667969 287.609375 74.386719 289.542969 75.714844 C 292.917969 78.089844 296.957031 77.871094 299.996094 75.101562 C 302.4375 72.945312 304.59375 70.515625 306.746094 68.132812 C 309.128906 65.53125 311.34375 62.820312 313.609375 60 C 313.71875 60.5 313.441406 60.886719 313.328125 61.222656 C 312.277344 63.765625 311.34375 66.304688 310.566406 68.90625 C 310.121094 70.347656 309.902344 71.785156 309.902344 73.277344 C 310.121094 77.148438 312.058594 79.03125 315.929688 79.25 C 317.371094 79.359375 318.640625 79.03125 319.914062 78.257812 C 321.351562 77.375 322.730469 76.320312 323.894531 75.160156 C 329.09375 69.90625 333.851562 64.320312 338.386719 58.511719 C 339.328125 57.292969 339 56.574219 337.394531 56.40625 C 336.839844 56.296875 336.34375 56.40625 335.84375 56.738281 C 335.238281 57.292969 334.574219 57.847656 333.96875 58.402344 C 328.707031 63.320312 323.566406 68.300781 318.3125 73.222656 C 317.757812 73.832031 317.09375 74.328125 316.257812 74.992188 C 316.097656 73.332031 316.316406 72.0625 316.703125 70.792969 C 317.925781 66.640625 319.304688 62.660156 321.242188 58.839844 Z M 310.898438 54.085938 C 306.636719 59.007812 302.210938 63.765625 297.511719 68.300781 C 297.34375 68.46875 297.179688 68.628906 296.957031 68.796875 C 299.945312 61.222656 304.375 54.800781 310.679688 49.765625 C 311.671875 48.992188 311.78125 49.050781 311.949219 50.265625 C 312.117188 51.652344 311.949219 52.921875 310.898438 54.085938 Z M 310.898438 54.085938 " fill-opacity="1" fill-rule="nonzero"/><path fill="#000000" d="M 346.902344 53.03125 C 347.847656 51.59375 347.734375 50.929688 346.515625 49.65625 C 346.078125 49.160156 345.582031 48.773438 345.082031 48.445312 C 343.148438 47.167969 342.207031 47.222656 340.707031 48.882812 C 336.558594 53.363281 333.132812 58.285156 330.808594 63.933594 C 329.757812 66.472656 329.042969 69.183594 329.261719 72.003906 C 329.539062 75.101562 331.472656 76.929688 334.074219 78.199219 C 336.398438 79.359375 338.109375 78.089844 339.824219 76.707031 C 340.101562 76.488281 340.378906 76.261719 340.597656 76.042969 C 345.859375 71.179688 350.554688 65.808594 355.09375 60.277344 C 355.808594 59.394531 356.421875 58.402344 356.917969 57.347656 C 357.691406 55.632812 357.804688 53.863281 357.027344 52.089844 C 355.3125 48.277344 352.105469 46.230469 348.234375 45.070312 C 347.734375 44.960938 347.128906 44.84375 346.851562 45.398438 C 346.515625 45.953125 346.902344 46.390625 347.179688 46.835938 C 347.847656 47.78125 348.957031 48.109375 349.890625 48.664062 C 352.105469 49.824219 352.828125 51.652344 352.214844 54.027344 C 351.777344 55.574219 350.945312 56.902344 350 58.175781 C 347.515625 61.332031 344.804688 64.210938 341.929688 66.972656 C 340.429688 68.300781 339 69.679688 337.113281 70.734375 C 337.558594 69.738281 337.945312 68.796875 338.445312 67.855469 C 340.984375 62.769531 343.972656 57.898438 346.902344 53.03125 Z M 346.902344 53.03125 " fill-opacity="1" fill-rule="nonzero"/><path fill="#000000" d="M 517.390625 19.734375 C 519.214844 16.796875 518.882812 14.367188 516.230469 12.101562 C 515.839844 11.765625 515.394531 11.492188 514.957031 11.214844 C 511.472656 9.054688 507.542969 8.226562 503.503906 8.0625 C 495.648438 7.671875 487.90625 8.667969 480.214844 9.777344 C 457.152344 13.203125 434.359375 18.296875 412.070312 25.046875 C 400.5625 28.53125 389.226562 32.511719 378.433594 37.984375 C 375.058594 39.757812 371.683594 41.585938 369.03125 44.40625 C 366.652344 46.894531 366.820312 49.4375 369.363281 51.761719 C 371.523438 53.808594 374.175781 54.96875 376.996094 55.742188 C 388.722656 59.007812 400.671875 60.335938 412.84375 59.835938 C 413.835938 59.835938 414.777344 59.671875 415.554688 58.949219 C 415.832031 58.730469 416.378906 58.898438 416.328125 58.453125 C 416.328125 57.957031 415.773438 57.789062 415.386719 57.738281 C 414.832031 57.570312 414.222656 57.570312 413.617188 57.570312 C 412.617188 57.511719 411.625 57.570312 410.679688 57.511719 C 403.710938 57.125 396.800781 56.1875 389.941406 54.75 C 386.070312 53.917969 382.25 53.089844 378.492188 51.871094 C 376.828125 51.316406 376.609375 50.542969 377.550781 49.101562 C 377.988281 48.496094 378.492188 47.941406 378.988281 47.445312 C 380.3125 46.171875 381.808594 45.179688 383.359375 44.292969 C 391.488281 39.539062 400.226562 36.164062 409.132812 33.226562 C 437.070312 24.046875 465.609375 17.351562 494.875 14.035156 C 499.023438 13.589844 503.226562 13.371094 507.433594 13.429688 C 508.484375 13.480469 508.59375 13.816406 508.257812 14.644531 C 507.59375 16.140625 506.601562 17.351562 505.496094 18.515625 C 502.949219 21.117188 500.078125 23.386719 497.140625 25.484375 C 486.246094 33.453125 474.574219 40.085938 462.898438 46.78125 C 459.363281 48.773438 455.769531 50.765625 452.226562 52.753906 C 452.117188 52.644531 452.058594 52.585938 451.949219 52.535156 C 452.285156 51.980469 452.554688 51.425781 452.890625 50.878906 C 457.203125 43.460938 461.578125 35.996094 465.886719 28.582031 C 467.050781 26.484375 468.269531 24.433594 469.261719 22.21875 C 469.480469 21.671875 469.761719 21.058594 469.152344 20.507812 C 467.882812 19.347656 466.332031 19.457031 465.28125 20.785156 C 464.894531 21.28125 464.566406 21.832031 464.179688 22.335938 C 457.203125 32.5625 450.457031 42.90625 444.148438 53.585938 C 441.992188 57.183594 439.558594 59.949219 435.628906 61.550781 C 433.917969 62.214844 432.203125 63.15625 430.820312 64.480469 C 429.542969 65.640625 429.433594 66.917969 430.484375 68.300781 C 431.09375 69.183594 431.816406 69.90625 432.757812 70.347656 C 433.917969 70.902344 433.859375 71.507812 433.304688 72.5 C 429.988281 78.476562 427.222656 84.671875 425.015625 91.09375 C 424.625 92.195312 424.898438 92.859375 425.839844 93.300781 C 428.164062 94.300781 428.886719 93.964844 429.929688 92.253906 C 433.253906 86.5 436.570312 80.691406 439.617188 74.773438 C 440.113281 73.777344 440.609375 73.445312 441.773438 73.722656 C 444.039062 74.21875 446.308594 74.554688 448.632812 74.824219 C 460.578125 76.101562 472.578125 76.429688 484.640625 76.261719 C 487.796875 76.210938 490.945312 75.933594 494.101562 75.765625 C 494.597656 75.714844 495.261719 75.714844 495.429688 75.160156 C 495.589844 74.496094 495.042969 74.109375 494.597656 73.832031 C 493.605469 73.113281 492.441406 72.835938 491.222656 72.777344 C 482.652344 72.5 474.019531 72.113281 465.449219 71.457031 C 458.3125 70.902344 451.234375 69.957031 444.207031 68.578125 C 443.929688 68.519531 443.429688 68.578125 443.320312 68.191406 C 443.210938 67.804688 443.597656 67.527344 443.929688 67.308594 C 444.980469 66.582031 446.082031 65.917969 447.191406 65.253906 C 461.519531 57.125 476.121094 49.378906 490.171875 40.699219 C 497.804688 35.9375 505.386719 31.128906 512.246094 25.265625 C 514.183594 23.65625 516.003906 21.890625 517.390625 19.734375 Z M 517.390625 19.734375 " fill-opacity="1" fill-rule="nonzero"/><path fill="#000000" d="M 527.121094 70.515625 C 529.332031 71.84375 531.597656 72.230469 534.089844 71.179688 C 535.914062 70.402344 537.632812 69.460938 539.230469 68.300781 C 544.046875 64.925781 548.691406 61.273438 552.953125 57.183594 C 554.0625 56.1875 553.945312 55.691406 552.621094 54.96875 C 551.125 54.195312 549.964844 54.96875 548.75 55.574219 C 545.652344 57.292969 542.773438 59.394531 539.785156 61.273438 C 536.96875 63.046875 534.148438 64.867188 531.160156 66.417969 C 530.992188 65.757812 531.269531 65.253906 531.4375 64.757812 C 532.210938 62.660156 532.984375 60.558594 533.8125 58.511719 C 534.199219 57.511719 533.921875 56.792969 533.148438 56.1875 C 531.933594 55.1875 530.546875 54.691406 528.835938 55.027344 C 529.382812 53.753906 529.9375 52.644531 530.382812 51.484375 C 530.882812 50.210938 530.664062 48.992188 529.609375 48.109375 C 527.507812 46.339844 525.125 45.457031 522.363281 46.171875 C 520.257812 46.726562 518.433594 47.890625 516.773438 49.21875 C 511.683594 53.199219 507.539062 58.015625 504.109375 63.433594 C 502.894531 65.371094 501.894531 67.359375 501.398438 69.628906 C 500.789062 72.230469 501.398438 74 503.667969 75.488281 C 506.488281 77.425781 509.359375 77.921875 512.515625 75.933594 C 516.554688 73.332031 520.148438 70.179688 523.746094 67.027344 C 524.132812 66.695312 524.46875 66.363281 525.125 65.808594 C 524.796875 68.023438 525.511719 69.519531 527.121094 70.515625 Z M 511.851562 68.855469 C 511.800781 68.90625 511.742188 68.855469 511.464844 68.796875 C 515.335938 62.324219 519.820312 56.40625 525.789062 51.375 C 525.789062 52.8125 525.738281 53.917969 525.351562 54.859375 C 524.964844 55.800781 525.292969 56.296875 526.015625 56.625 C 526.511719 56.851562 526.730469 57.070312 526.234375 57.511719 C 521.699219 61.609375 516.996094 65.53125 511.851562 68.855469 Z M 511.851562 68.855469 " fill-opacity="1" fill-rule="nonzero"/><path fill="#000000" d="M 569.601562 70.457031 C 571.703125 71.726562 573.96875 72.171875 576.351562 71.339844 C 577.5625 70.902344 578.726562 70.402344 579.886719 69.792969 C 584.3125 67.527344 588.628906 64.984375 592.832031 62.273438 C 594.605469 61.113281 596.316406 59.949219 597.921875 58.5625 C 598.808594 57.789062 598.808594 57.347656 597.8125 56.683594 C 596.761719 55.910156 595.652344 55.691406 594.328125 56.40625 C 588.023438 59.78125 581.660156 63.15625 575.128906 66.195312 C 574.582031 66.472656 573.96875 66.863281 573.195312 66.863281 C 573.253906 66.195312 573.304688 65.640625 573.421875 65.09375 C 574.027344 62.433594 574.632812 59.78125 575.1875 57.070312 C 575.742188 54.195312 574.96875 52.863281 572.3125 51.761719 C 570.710938 51.097656 569.269531 51.265625 567.773438 52.148438 C 565.785156 53.308594 564.011719 54.800781 562.300781 56.347656 C 558.925781 59.335938 555.550781 62.382812 552.066406 65.53125 C 552.007812 64.925781 552.34375 64.597656 552.507812 64.210938 C 554.9375 59.007812 557.707031 53.972656 560.527344 48.992188 C 561.140625 47.941406 560.914062 47.167969 560.03125 46.558594 C 557.320312 44.683594 555.769531 44.683594 554.003906 47.003906 C 549.632812 52.753906 545.980469 58.949219 543.105469 65.53125 C 542.277344 67.359375 541.722656 69.242188 541.503906 71.230469 C 541.277344 73.222656 542.050781 74.605469 544.046875 75.65625 C 545.921875 76.652344 547.859375 77.375 549.796875 75.714844 C 551.34375 74.328125 552.730469 72.835938 554.113281 71.339844 C 558.480469 66.75 563.019531 62.324219 567.882812 58.285156 C 568.21875 58.015625 568.605469 57.789062 569.15625 57.347656 C 568.4375 60.390625 567.496094 62.988281 567.277344 65.808594 C 567.109375 67.804688 567.832031 69.351562 569.601562 70.457031 Z M 569.601562 70.457031 " fill-opacity="1" fill-rule="nonzero"/><path fill="#000000" d="M 621.042969 58.839844 C 626.960938 46.945312 633.652344 35.5 640.070312 23.824219 C 641.34375 21.558594 642.832031 19.457031 643.996094 17.074219 C 644.222656 16.6875 644.492188 16.191406 644.222656 15.636719 C 643.445312 14.253906 640.070312 14.035156 639.238281 15.367188 C 636.585938 19.675781 633.378906 23.605469 630.890625 28.085938 C 629.835938 30.128906 628.507812 32.066406 627.070312 33.839844 C 624.140625 37.542969 621.210938 41.199219 618.332031 44.84375 C 617.835938 45.398438 617.5 46.171875 616.890625 46.449219 C 616.226562 46.726562 615.789062 45.785156 615.125 45.507812 C 611.140625 43.628906 607.378906 43.960938 603.785156 46.507812 C 598.972656 49.824219 595.320312 54.195312 592.28125 59.058594 C 590.117188 62.601562 588.183594 66.304688 587.246094 70.292969 C 586.691406 72.667969 587.40625 74.386719 589.34375 75.714844 C 592.71875 78.089844 596.757812 77.871094 599.796875 75.101562 C 602.238281 72.945312 604.394531 70.515625 606.546875 68.132812 C 608.929688 65.53125 611.140625 62.820312 613.40625 60 C 613.515625 60.5 613.238281 60.886719 613.128906 61.222656 C 612.078125 63.765625 611.140625 66.304688 610.367188 68.90625 C 609.921875 70.347656 609.703125 71.785156 609.703125 73.277344 C 609.921875 77.148438 611.859375 79.03125 615.730469 79.25 C 617.167969 79.359375 618.441406 79.03125 619.710938 78.257812 C 621.152344 77.375 622.53125 76.320312 623.695312 75.160156 C 628.894531 69.90625 633.652344 64.320312 638.1875 58.511719 C 639.128906 57.292969 638.800781 56.574219 637.195312 56.40625 C 636.640625 56.296875 636.140625 56.40625 635.644531 56.738281 C 635.039062 57.292969 634.375 57.847656 633.765625 58.402344 C 628.507812 63.320312 623.363281 68.300781 618.113281 73.222656 C 617.558594 73.832031 616.890625 74.328125 616.058594 74.992188 C 615.898438 73.332031 616.117188 72.0625 616.503906 70.792969 C 617.726562 66.640625 619.105469 62.660156 621.042969 58.839844 Z M 610.699219 54.085938 C 606.4375 59.007812 602.011719 63.765625 597.3125 68.300781 C 597.144531 68.46875 596.976562 68.628906 596.757812 68.796875 C 599.746094 61.222656 604.171875 54.800781 610.476562 49.765625 C 611.472656 48.992188 611.582031 49.050781 611.75 50.265625 C 611.917969 51.652344 611.75 52.921875 610.699219 54.085938 Z M 610.699219 54.085938 " fill-opacity="1" fill-rule="nonzero"/><path fill="#000000" d="M 649.640625 62.214844 C 652.242188 59.058594 654.011719 55.355469 654.953125 51.375 C 655.5 48.941406 654.726562 46.894531 652.628906 45.398438 C 649.414062 43.132812 646.046875 43.183594 643 45.675781 C 640.898438 47.390625 639.128906 49.328125 637.640625 51.542969 C 634.375 56.296875 631.386719 61.273438 630.054688 66.972656 C 629.390625 69.847656 630.003906 72.449219 632.328125 74.4375 C 634.8125 76.488281 637.640625 77.535156 640.898438 77.265625 C 643.609375 77.039062 646.097656 75.933594 648.480469 74.664062 C 657.882812 69.738281 666.34375 63.433594 675.253906 57.679688 C 675.96875 57.238281 675.800781 56.851562 675.253906 56.40625 C 674.253906 55.523438 673.148438 55.414062 671.878906 55.742188 C 670.769531 56.019531 669.71875 56.464844 668.664062 57.015625 C 662.25 60.445312 655.835938 63.933594 649.363281 67.359375 C 645.710938 69.292969 642.117188 71.289062 638.1875 72.5 C 636.804688 72.945312 636.585938 72.777344 636.527344 71.289062 C 636.417969 68.300781 637.523438 65.589844 638.742188 62.878906 C 644.222656 66.972656 647.207031 65.144531 649.640625 62.214844 Z M 641.175781 58.34375 C 643.335938 54.414062 645.878906 50.765625 649.414062 47.941406 C 649.472656 47.890625 649.640625 47.890625 649.75 47.832031 C 649.972656 48.328125 649.804688 48.832031 649.691406 49.269531 C 648.480469 53.363281 646.484375 56.960938 643.386719 59.949219 C 643.058594 60.277344 642.613281 60.996094 642.175781 60.5 C 641.671875 59.949219 640.734375 59.175781 641.175781 58.34375 Z M 641.175781 58.34375 " fill-opacity="1" fill-rule="nonzero"/></svg>