<svg xmlns="http://www.w3.org/2000/svg" xmlns:xlink="http://www.w3.org/1999/xlink" width="2000" zoomAndPan="magnify" viewBox="0 0 1500 1499.999933" height="2000" preserveAspectRatio="xMidYMid meet" version="1.0"><path fill="#145267" d="M 1259.527344 1500 L 240.472656 1500 C 236.539062 1499.996094 232.605469 1499.894531 228.675781 1499.699219 C 224.75 1499.503906 220.824219 1499.210938 216.910156 1498.820312 C 212.996094 1498.429688 209.09375 1497.945312 205.199219 1497.367188 C 201.308594 1496.785156 197.433594 1496.109375 193.574219 1495.339844 C 189.71875 1494.570312 185.878906 1493.707031 182.066406 1492.746094 C 178.25 1491.789062 174.457031 1490.738281 170.695312 1489.59375 C 166.929688 1488.449219 163.195312 1487.210938 159.492188 1485.882812 C 155.789062 1484.554688 152.121094 1483.140625 148.484375 1481.632812 C 144.851562 1480.125 141.253906 1478.527344 137.699219 1476.84375 C 134.144531 1475.160156 130.632812 1473.390625 127.160156 1471.535156 C 123.691406 1469.679688 120.269531 1467.738281 116.898438 1465.714844 C 113.523438 1463.691406 110.199219 1461.585938 106.929688 1459.398438 C 103.660156 1457.214844 100.445312 1454.949219 97.285156 1452.605469 C 94.125 1450.257812 91.023438 1447.839844 87.984375 1445.34375 C 84.941406 1442.847656 81.964844 1440.277344 79.046875 1437.632812 C 76.132812 1434.992188 73.285156 1432.28125 70.503906 1429.496094 C 67.71875 1426.714844 65.007812 1423.867188 62.367188 1420.953125 C 59.722656 1418.035156 57.152344 1415.058594 54.65625 1412.015625 C 52.160156 1408.976562 49.742188 1405.875 47.394531 1402.714844 C 45.050781 1399.554688 42.785156 1396.339844 40.601562 1393.070312 C 38.414062 1389.800781 36.308594 1386.476562 34.285156 1383.101562 C 32.261719 1379.730469 30.320312 1376.308594 28.464844 1372.835938 C 26.609375 1369.367188 24.839844 1365.855469 23.15625 1362.300781 C 21.472656 1358.746094 19.875 1355.148438 18.367188 1351.515625 C 16.859375 1347.878906 15.441406 1344.210938 14.117188 1340.507812 C 12.789062 1336.804688 11.550781 1333.070312 10.40625 1329.304688 C 9.261719 1325.542969 8.210938 1321.75 7.253906 1317.933594 C 6.292969 1314.121094 5.429688 1310.28125 4.660156 1306.425781 C 3.890625 1302.566406 3.214844 1298.691406 2.632812 1294.800781 C 2.054688 1290.90625 1.570312 1287.003906 1.179688 1283.089844 C 0.789062 1279.175781 0.496094 1275.25 0.300781 1271.324219 C 0.105469 1267.394531 0.00390625 1263.460938 0 1259.527344 L 0 240.472656 C 0.00390625 236.539062 0.105469 232.605469 0.300781 228.675781 C 0.496094 224.75 0.789062 220.824219 1.179688 216.910156 C 1.570312 212.996094 2.054688 209.09375 2.632812 205.199219 C 3.214844 201.308594 3.890625 197.433594 4.660156 193.574219 C 5.429688 189.71875 6.292969 185.878906 7.253906 182.066406 C 8.210938 178.25 9.261719 174.457031 10.40625 170.695312 C 11.550781 166.929688 12.789062 163.195312 14.117188 159.492188 C 15.441406 155.789062 16.859375 152.121094 18.367188 148.484375 C 19.875 144.851562 21.472656 141.253906 23.15625 137.699219 C 24.839844 134.144531 26.609375 130.632812 28.464844 127.160156 C 30.320312 123.691406 32.261719 120.269531 34.285156 116.898438 C 36.308594 113.523438 38.414062 110.199219 40.601562 106.929688 C 42.785156 103.660156 45.050781 100.445312 47.394531 97.285156 C 49.742188 94.125 52.160156 91.023438 54.65625 87.980469 C 57.152344 84.941406 59.722656 81.964844 62.367188 79.046875 C 65.007812 76.132812 67.71875 73.285156 70.503906 70.503906 C 73.285156 67.71875 76.132812 65.007812 79.046875 62.367188 C 81.964844 59.722656 84.941406 57.152344 87.984375 54.65625 C 91.023438 52.160156 94.125 49.742188 97.285156 47.394531 C 100.445312 45.050781 103.660156 42.785156 106.929688 40.601562 C 110.199219 38.414062 113.523438 36.308594 116.898438 34.285156 C 120.269531 32.261719 123.691406 30.320312 127.160156 28.464844 C 130.632812 26.609375 134.144531 24.839844 137.699219 23.15625 C 141.253906 21.472656 144.851562 19.875 148.484375 18.367188 C 152.121094 16.859375 155.789062 15.441406 159.492188 14.117188 C 163.195312 12.789062 166.929688 11.550781 170.695312 10.40625 C 174.457031 9.261719 178.25 8.210938 182.066406 7.253906 C 185.878906 6.292969 189.71875 5.429688 193.574219 4.660156 C 197.433594 3.890625 201.308594 3.214844 205.199219 2.632812 C 209.09375 2.054688 212.996094 1.570312 216.910156 1.179688 C 220.824219 0.789062 224.75 0.496094 228.675781 0.300781 C 232.605469 0.105469 236.539062 0.00390625 240.472656 0 L 1259.527344 0 C 1263.460938 0.00390625 1267.394531 0.105469 1271.324219 0.300781 C 1275.25 0.496094 1279.175781 0.789062 1283.089844 1.179688 C 1287.003906 1.570312 1290.90625 2.054688 1294.800781 2.632812 C 1298.691406 3.214844 1302.566406 3.890625 1306.425781 4.660156 C 1310.28125 5.429688 1314.121094 6.292969 1317.933594 7.253906 C 1321.75 8.210938 1325.542969 9.261719 1329.304688 10.40625 C 1333.070312 11.550781 1336.804688 12.789062 1340.507812 14.117188 C 1344.210938 15.441406 1347.878906 16.859375 1351.515625 18.367188 C 1355.148438 19.875 1358.746094 21.472656 1362.300781 23.15625 C 1365.855469 24.839844 1369.367188 26.609375 1372.835938 28.464844 C 1376.308594 30.320312 1379.730469 32.261719 1383.101562 34.285156 C 1386.476562 36.308594 1389.800781 38.414062 1393.070312 40.601562 C 1396.339844 42.785156 1399.554688 45.050781 1402.714844 47.394531 C 1405.875 49.742188 1408.976562 52.160156 1412.015625 54.65625 C 1415.058594 57.152344 1418.035156 59.722656 1420.953125 62.367188 C 1423.867188 65.007812 1426.714844 67.71875 1429.496094 70.503906 C 1432.28125 73.285156 1434.992188 76.132812 1437.632812 79.046875 C 1440.277344 81.964844 1442.847656 84.941406 1445.34375 87.980469 C 1447.839844 91.023438 1450.257812 94.125 1452.605469 97.285156 C 1454.949219 100.445312 1457.214844 103.660156 1459.398438 106.929688 C 1461.585938 110.199219 1463.691406 113.523438 1465.714844 116.898438 C 1467.738281 120.269531 1469.679688 123.691406 1471.535156 127.160156 C 1473.390625 130.632812 1475.160156 134.144531 1476.84375 137.699219 C 1478.527344 141.253906 1480.125 144.851562 1481.632812 148.484375 C 1483.140625 152.121094 1484.554688 155.789062 1485.882812 159.492188 C 1487.210938 163.195312 1488.449219 166.929688 1489.59375 170.695312 C 1490.738281 174.457031 1491.789062 178.25 1492.746094 182.066406 C 1493.707031 185.878906 1494.570312 189.71875 1495.339844 193.574219 C 1496.109375 197.433594 1496.785156 201.308594 1497.367188 205.199219 C 1497.945312 209.09375 1498.429688 212.996094 1498.820312 216.910156 C 1499.210938 220.824219 1499.503906 224.75 1499.699219 228.675781 C 1499.894531 232.605469 1499.996094 236.539062 1500 240.472656 L 1500 1259.527344 C 1499.996094 1263.460938 1499.894531 1267.394531 1499.699219 1271.324219 C 1499.503906 1275.25 1499.210938 1279.175781 1498.820312 1283.089844 C 1498.429688 1287.003906 1497.945312 1290.90625 1497.367188 1294.800781 C 1496.785156 1298.691406 1496.109375 1302.566406 1495.339844 1306.425781 C 1494.570312 1310.28125 1493.707031 1314.121094 1492.746094 1317.933594 C 1491.789062 1321.75 1490.738281 1325.542969 1489.59375 1329.304688 C 1488.449219 1333.070312 1487.210938 1336.804688 1485.882812 1340.507812 C 1484.554688 1344.210938 1483.140625 1347.878906 1481.632812 1351.515625 C 1480.125 1355.148438 1478.527344 1358.746094 1476.84375 1362.300781 C 1475.160156 1365.855469 1473.390625 1369.367188 1471.535156 1372.835938 C 1469.679688 1376.308594 1467.738281 1379.730469 1465.714844 1383.101562 C 1463.691406 1386.476562 1461.585938 1389.800781 1459.398438 1393.070312 C 1457.214844 1396.339844 1454.949219 1399.554688 1452.605469 1402.714844 C 1450.257812 1405.875 1447.839844 1408.976562 1445.34375 1412.015625 C 1442.847656 1415.058594 1440.277344 1418.035156 1437.632812 1420.953125 C 1434.992188 1423.867188 1432.28125 1426.714844 1429.496094 1429.496094 C 1426.714844 1432.28125 1423.867188 1434.992188 1420.953125 1437.632812 C 1418.035156 1440.277344 1415.058594 1442.847656 1412.015625 1445.34375 C 1408.976562 1447.839844 1405.875 1450.257812 1402.714844 1452.601562 C 1399.554688 1454.949219 1396.339844 1457.214844 1393.070312 1459.398438 C 1389.800781 1461.585938 1386.476562 1463.691406 1383.101562 1465.714844 C 1379.730469 1467.738281 1376.308594 1469.679688 1372.835938 1471.535156 C 1369.367188 1473.390625 1365.855469 1475.160156 1362.300781 1476.84375 C 1358.746094 1478.527344 1355.148438 1480.125 1351.515625 1481.632812 C 1347.878906 1483.140625 1344.210938 1484.554688 1340.507812 1485.882812 C 1336.804688 1487.210938 1333.070312 1488.449219 1329.304688 1489.59375 C 1325.542969 1490.738281 1321.75 1491.789062 1317.933594 1492.746094 C 1314.121094 1493.707031 1310.28125 1494.570312 1306.425781 1495.339844 C 1302.566406 1496.109375 1298.691406 1496.785156 1294.800781 1497.367188 C 1290.90625 1497.945312 1287.003906 1498.429688 1283.089844 1498.820312 C 1279.175781 1499.210938 1275.25 1499.503906 1271.324219 1499.699219 C 1267.394531 1499.894531 1263.460938 1499.996094 1259.527344 1500 Z M 78.949219 1157.761719 L 78.949219 1259.527344 C 78.953125 1262.167969 79.019531 1264.808594 79.152344 1267.449219 C 79.285156 1270.085938 79.484375 1272.722656 79.746094 1275.351562 C 80.007812 1277.980469 80.335938 1280.601562 80.726562 1283.214844 C 81.117188 1285.828125 81.570312 1288.429688 82.089844 1291.023438 C 82.609375 1293.613281 83.191406 1296.191406 83.835938 1298.753906 C 84.480469 1301.316406 85.1875 1303.859375 85.957031 1306.386719 C 86.726562 1308.917969 87.554688 1311.425781 88.449219 1313.910156 C 89.339844 1316.398438 90.292969 1318.863281 91.304688 1321.304688 C 92.320312 1323.742188 93.390625 1326.15625 94.523438 1328.546875 C 95.652344 1330.933594 96.84375 1333.292969 98.089844 1335.621094 C 99.335938 1337.953125 100.640625 1340.25 102 1342.515625 C 103.359375 1344.78125 104.773438 1347.011719 106.242188 1349.210938 C 107.710938 1351.40625 109.234375 1353.566406 110.808594 1355.6875 C 112.382812 1357.808594 114.007812 1359.890625 115.683594 1361.933594 C 117.359375 1363.976562 119.085938 1365.976562 120.863281 1367.933594 C 122.636719 1369.890625 124.457031 1371.804688 126.328125 1373.671875 C 128.195312 1375.542969 130.109375 1377.363281 132.066406 1379.136719 C 134.023438 1380.914062 136.023438 1382.640625 138.066406 1384.316406 C 140.109375 1385.992188 142.191406 1387.617188 144.3125 1389.191406 C 146.433594 1390.765625 148.59375 1392.289062 150.789062 1393.757812 C 152.988281 1395.226562 155.21875 1396.640625 157.484375 1398 C 159.75 1399.359375 162.046875 1400.664062 164.378906 1401.910156 C 166.707031 1403.15625 169.066406 1404.347656 171.453125 1405.476562 C 173.84375 1406.609375 176.257812 1407.679688 178.695312 1408.695312 C 181.136719 1409.707031 183.601562 1410.660156 186.089844 1411.550781 C 188.574219 1412.445312 191.082031 1413.273438 193.613281 1414.042969 C 196.140625 1414.8125 198.683594 1415.519531 201.246094 1416.164062 C 203.808594 1416.808594 206.386719 1417.390625 208.976562 1417.910156 C 211.570312 1418.429688 214.171875 1418.882812 216.785156 1419.273438 C 219.398438 1419.664062 222.019531 1419.992188 224.648438 1420.253906 C 227.277344 1420.515625 229.914062 1420.714844 232.550781 1420.847656 C 235.191406 1420.980469 237.832031 1421.046875 240.472656 1421.050781 L 1259.527344 1421.050781 C 1262.167969 1421.046875 1264.808594 1420.980469 1267.449219 1420.847656 C 1270.089844 1420.714844 1272.722656 1420.515625 1275.351562 1420.253906 C 1277.980469 1419.992188 1280.601562 1419.664062 1283.214844 1419.273438 C 1285.828125 1418.882812 1288.429688 1418.429688 1291.023438 1417.910156 C 1293.613281 1417.390625 1296.191406 1416.808594 1298.753906 1416.164062 C 1301.316406 1415.519531 1303.859375 1414.8125 1306.386719 1414.042969 C 1308.917969 1413.273438 1311.425781 1412.445312 1313.910156 1411.550781 C 1316.398438 1410.660156 1318.863281 1409.707031 1321.304688 1408.695312 C 1323.742188 1407.679688 1326.15625 1406.609375 1328.546875 1405.476562 C 1330.933594 1404.347656 1333.292969 1403.15625 1335.621094 1401.910156 C 1337.953125 1400.664062 1340.25 1399.359375 1342.515625 1398 C 1344.78125 1396.640625 1347.011719 1395.226562 1349.210938 1393.757812 C 1351.40625 1392.289062 1353.566406 1390.765625 1355.6875 1389.191406 C 1357.808594 1387.617188 1359.890625 1385.992188 1361.933594 1384.316406 C 1363.976562 1382.640625 1365.976562 1380.914062 1367.933594 1379.136719 C 1369.890625 1377.363281 1371.804688 1375.542969 1373.671875 1373.671875 C 1375.542969 1371.804688 1377.363281 1369.890625 1379.136719 1367.933594 C 1380.914062 1365.976562 1382.640625 1363.976562 1384.316406 1361.933594 C 1385.992188 1359.890625 1387.617188 1357.808594 1389.191406 1355.6875 C 1390.765625 1353.566406 1392.289062 1351.40625 1393.757812 1349.210938 C 1395.226562 1347.011719 1396.640625 1344.78125 1398 1342.515625 C 1399.359375 1340.25 1400.664062 1337.953125 1401.910156 1335.621094 C 1403.15625 1333.292969 1404.347656 1330.933594 1405.476562 1328.546875 C 1406.609375 1326.15625 1407.679688 1323.742188 1408.695312 1321.304688 C 1409.707031 1318.863281 1410.660156 1316.398438 1411.550781 1313.910156 C 1412.445312 1311.425781 1413.273438 1308.917969 1414.042969 1306.386719 C 1414.8125 1303.859375 1415.519531 1301.316406 1416.164062 1298.753906 C 1416.808594 1296.191406 1417.390625 1293.613281 1417.910156 1291.023438 C 1418.429688 1288.429688 1418.882812 1285.828125 1419.273438 1283.214844 C 1419.664062 1280.601562 1419.992188 1277.980469 1420.253906 1275.351562 C 1420.515625 1272.722656 1420.714844 1270.085938 1420.847656 1267.449219 C 1420.980469 1264.808594 1421.050781 1262.167969 1421.050781 1259.527344 L 1421.050781 1152.632812 L 1187.449219 919.027344 L 953.921875 1152.632812 C 952.085938 1154.464844 950.085938 1156.097656 947.929688 1157.535156 C 945.769531 1158.972656 943.492188 1160.1875 941.09375 1161.175781 C 938.695312 1162.164062 936.226562 1162.910156 933.679688 1163.414062 C 931.136719 1163.914062 928.566406 1164.164062 925.972656 1164.15625 C 923.386719 1164.15625 920.824219 1163.90625 918.289062 1163.402344 C 915.75 1162.894531 913.285156 1162.148438 910.894531 1161.160156 C 908.503906 1160.171875 906.234375 1158.960938 904.082031 1157.523438 C 901.929688 1156.089844 899.9375 1154.457031 898.105469 1152.632812 L 491.050781 745.65625 Z M 491.050781 650.367188 C 493.640625 650.375 496.207031 650.632812 498.746094 651.144531 C 501.285156 651.652344 503.75 652.40625 506.140625 653.402344 C 508.53125 654.398438 510.800781 655.617188 512.953125 657.058594 C 515.101562 658.5 517.09375 660.140625 518.921875 661.972656 L 925.972656 1069.105469 L 1159.578125 835.578125 C 1160.492188 834.664062 1161.449219 833.796875 1162.449219 832.976562 C 1163.449219 832.160156 1164.484375 831.390625 1165.558594 830.671875 C 1166.636719 829.953125 1167.742188 829.289062 1168.882812 828.679688 C 1170.023438 828.070312 1171.191406 827.519531 1172.382812 827.023438 C 1173.578125 826.53125 1174.792969 826.097656 1176.03125 825.71875 C 1177.265625 825.34375 1178.519531 825.03125 1179.789062 824.78125 C 1181.054688 824.527344 1182.332031 824.339844 1183.617188 824.210938 C 1184.90625 824.085938 1186.195312 824.023438 1187.488281 824.023438 C 1188.78125 824.023438 1190.070312 824.085938 1191.355469 824.210938 C 1192.640625 824.339844 1193.917969 824.527344 1195.1875 824.78125 C 1196.453125 825.03125 1197.707031 825.34375 1198.945312 825.71875 C 1200.179688 826.097656 1201.394531 826.53125 1202.589844 827.023438 C 1203.785156 827.519531 1204.953125 828.070312 1206.089844 828.679688 C 1207.230469 829.289062 1208.339844 829.953125 1209.414062 830.671875 C 1210.488281 831.390625 1211.523438 832.160156 1212.523438 832.976562 C 1213.523438 833.796875 1214.480469 834.664062 1215.394531 835.578125 L 1421.050781 1041.238281 L 1421.050781 240.472656 C 1421.050781 237.832031 1420.980469 235.191406 1420.847656 232.550781 C 1420.714844 229.914062 1420.515625 227.277344 1420.253906 224.648438 C 1419.992188 222.019531 1419.664062 219.398438 1419.273438 216.785156 C 1418.882812 214.171875 1418.429688 211.570312 1417.910156 208.976562 C 1417.390625 206.386719 1416.808594 203.808594 1416.164062 201.246094 C 1415.519531 198.683594 1414.8125 196.140625 1414.042969 193.613281 C 1413.273438 191.082031 1412.445312 188.574219 1411.550781 186.089844 C 1410.660156 183.601562 1409.707031 181.136719 1408.695312 178.695312 C 1407.679688 176.257812 1406.609375 173.84375 1405.476562 171.453125 C 1404.347656 169.066406 1403.15625 166.707031 1401.910156 164.378906 C 1400.664062 162.046875 1399.359375 159.75 1398 157.484375 C 1396.640625 155.21875 1395.226562 152.988281 1393.757812 150.789062 C 1392.289062 148.59375 1390.765625 146.433594 1389.191406 144.3125 C 1387.617188 142.191406 1385.992188 140.109375 1384.316406 138.066406 C 1382.640625 136.023438 1380.914062 134.023438 1379.136719 132.066406 C 1377.363281 130.109375 1375.542969 128.195312 1373.671875 126.328125 C 1371.804688 124.457031 1369.890625 122.636719 1367.933594 120.863281 C 1365.976562 119.085938 1363.976562 117.359375 1361.933594 115.683594 C 1359.890625 114.007812 1357.808594 112.382812 1355.6875 110.808594 C 1353.566406 109.234375 1351.40625 107.710938 1349.210938 106.242188 C 1347.011719 104.773438 1344.78125 103.359375 1342.515625 102 C 1340.25 100.640625 1337.953125 99.335938 1335.621094 98.089844 C 1333.292969 96.84375 1330.933594 95.652344 1328.546875 94.523438 C 1326.15625 93.390625 1323.742188 92.320312 1321.304688 91.304688 C 1318.863281 90.292969 1316.398438 89.339844 1313.910156 88.449219 C 1311.425781 87.554688 1308.917969 86.726562 1306.386719 85.957031 C 1303.859375 85.1875 1301.316406 84.480469 1298.753906 83.835938 C 1296.191406 83.191406 1293.613281 82.609375 1291.023438 82.089844 C 1288.429688 81.570312 1285.828125 81.117188 1283.214844 80.726562 C 1280.601562 80.335938 1277.980469 80.007812 1275.351562 79.746094 C 1272.722656 79.484375 1270.089844 79.285156 1267.449219 79.152344 C 1264.808594 79.019531 1262.167969 78.953125 1259.527344 78.949219 L 240.472656 78.949219 C 237.832031 78.953125 235.191406 79.019531 232.550781 79.152344 C 229.914062 79.285156 227.277344 79.484375 224.648438 79.746094 C 222.019531 80.007812 219.398438 80.335938 216.785156 80.726562 C 214.171875 81.117188 211.570312 81.570312 208.976562 82.089844 C 206.386719 82.609375 203.808594 83.191406 201.246094 83.835938 C 198.683594 84.480469 196.140625 85.1875 193.613281 85.957031 C 191.082031 86.726562 188.574219 87.554688 186.089844 88.449219 C 183.601562 89.339844 181.136719 90.292969 178.695312 91.304688 C 176.257812 92.320312 173.84375 93.390625 171.453125 94.523438 C 169.066406 95.652344 166.707031 96.84375 164.378906 98.089844 C 162.046875 99.335938 159.75 100.640625 157.484375 102 C 155.21875 103.359375 152.988281 104.773438 150.789062 106.242188 C 148.59375 107.710938 146.433594 109.234375 144.3125 110.808594 C 142.191406 112.382812 140.109375 114.007812 138.066406 115.683594 C 136.023438 117.359375 134.023438 119.085938 132.066406 120.863281 C 130.109375 122.636719 128.195312 124.457031 126.328125 126.328125 C 124.457031 128.195312 122.636719 130.109375 120.863281 132.066406 C 119.085938 134.023438 117.359375 136.023438 115.683594 138.066406 C 114.007812 140.109375 112.382812 142.191406 110.808594 144.3125 C 109.234375 146.433594 107.710938 148.59375 106.242188 150.789062 C 104.773438 152.988281 103.359375 155.21875 102 157.484375 C 100.640625 159.75 99.335938 162.046875 98.089844 164.378906 C 96.84375 166.707031 95.652344 169.066406 94.523438 171.453125 C 93.390625 173.84375 92.320312 176.257812 91.304688 178.695312 C 90.292969 181.136719 89.339844 183.601562 88.449219 186.089844 C 87.554688 188.574219 86.726562 191.082031 85.957031 193.613281 C 85.1875 196.140625 84.480469 198.683594 83.835938 201.246094 C 83.191406 203.808594 82.609375 206.386719 82.089844 208.976562 C 81.570312 211.570312 81.117188 214.171875 80.726562 216.785156 C 80.335938 219.398438 80.007812 222.019531 79.746094 224.648438 C 79.484375 227.277344 79.285156 229.914062 79.152344 232.550781 C 79.019531 235.191406 78.953125 237.832031 78.949219 240.472656 L 78.949219 1046.132812 L 463.105469 661.972656 C 464.9375 660.136719 466.933594 658.492188 469.089844 657.046875 C 471.246094 655.601562 473.523438 654.382812 475.921875 653.386719 C 478.320312 652.390625 480.792969 651.640625 483.339844 651.132812 C 485.886719 650.625 488.457031 650.367188 491.050781 650.367188 Z M 1073.683594 554.367188 C 1070.550781 554.371094 1067.417969 554.300781 1064.289062 554.148438 C 1061.160156 554 1058.035156 553.773438 1054.917969 553.46875 C 1051.800781 553.164062 1048.691406 552.785156 1045.589844 552.328125 C 1042.488281 551.875 1039.402344 551.34375 1036.328125 550.734375 C 1033.253906 550.125 1030.199219 549.445312 1027.160156 548.6875 C 1024.117188 547.929688 1021.097656 547.097656 1018.097656 546.191406 C 1015.101562 545.285156 1012.125 544.304688 1009.171875 543.25 C 1006.222656 542.199219 1003.296875 541.074219 1000.402344 539.878906 C 997.507812 538.683594 994.640625 537.417969 991.808594 536.082031 C 988.972656 534.742188 986.175781 533.339844 983.410156 531.863281 C 980.644531 530.390625 977.917969 528.847656 975.230469 527.242188 C 972.539062 525.632812 969.890625 523.960938 967.285156 522.222656 C 964.679688 520.484375 962.113281 518.683594 959.597656 516.816406 C 957.078125 514.953125 954.605469 513.027344 952.183594 511.042969 C 949.757812 509.058594 947.386719 507.015625 945.0625 504.914062 C 942.738281 502.808594 940.46875 500.652344 938.25 498.4375 C 936.03125 496.226562 933.871094 493.957031 931.765625 491.640625 C 929.660156 489.320312 927.609375 486.949219 925.621094 484.527344 C 923.632812 482.109375 921.703125 479.640625 919.832031 477.125 C 917.964844 474.609375 916.160156 472.050781 914.417969 469.445312 C 912.671875 466.84375 910.996094 464.199219 909.382812 461.511719 C 907.769531 458.824219 906.222656 456.101562 904.746094 453.339844 C 903.265625 450.578125 901.855469 447.78125 900.511719 444.949219 C 899.171875 442.117188 897.898438 439.253906 896.699219 436.359375 C 895.496094 433.46875 894.367188 430.546875 893.3125 427.597656 C 892.253906 424.648438 891.269531 421.671875 890.355469 418.675781 C 889.445312 415.679688 888.609375 412.660156 887.84375 409.621094 C 887.082031 406.582031 886.394531 403.527344 885.78125 400.453125 C 885.167969 397.378906 884.628906 394.296875 884.167969 391.195312 C 883.707031 388.097656 883.320312 384.988281 883.011719 381.871094 C 882.703125 378.753906 882.46875 375.628906 882.316406 372.5 C 882.160156 369.371094 882.082031 366.238281 882.078125 363.105469 C 882.078125 359.972656 882.152344 356.839844 882.304688 353.710938 C 882.457031 350.582031 882.683594 347.457031 882.992188 344.339844 C 883.296875 341.222656 883.679688 338.113281 884.136719 335.011719 C 884.59375 331.914062 885.128906 328.828125 885.738281 325.753906 C 886.347656 322.679688 887.035156 319.625 887.792969 316.582031 C 888.554688 313.542969 889.386719 310.523438 890.296875 307.527344 C 891.203125 304.527344 892.183594 301.550781 893.238281 298.601562 C 894.292969 295.652344 895.421875 292.730469 896.617188 289.832031 C 897.816406 286.9375 899.085938 284.074219 900.421875 281.242188 C 901.761719 278.410156 903.167969 275.609375 904.644531 272.847656 C 906.121094 270.082031 907.664062 267.355469 909.273438 264.667969 C 910.882812 261.980469 912.558594 259.332031 914.300781 256.726562 C 916.039062 254.121094 917.84375 251.5625 919.707031 249.042969 C 921.574219 246.527344 923.5 244.054688 925.488281 241.632812 C 927.472656 239.210938 929.519531 236.839844 931.625 234.515625 C 933.726562 232.195312 935.886719 229.925781 938.101562 227.710938 C 940.316406 225.492188 942.585938 223.332031 944.90625 221.230469 C 947.226562 219.125 949.597656 217.078125 952.019531 215.089844 C 954.441406 213.101562 956.910156 211.175781 959.425781 209.308594 C 961.945312 207.441406 964.503906 205.636719 967.109375 203.894531 C 969.714844 202.15625 972.359375 200.480469 975.046875 198.867188 C 977.734375 197.257812 980.460938 195.710938 983.222656 194.234375 C 985.988281 192.757812 988.785156 191.347656 991.617188 190.007812 C 994.449219 188.667969 997.3125 187.398438 1000.207031 186.203125 C 1003.101562 185.003906 1006.023438 183.875 1008.976562 182.820312 C 1011.925781 181.761719 1014.898438 180.78125 1017.898438 179.871094 C 1020.894531 178.960938 1023.914062 178.125 1026.953125 177.367188 C 1029.992188 176.605469 1033.050781 175.917969 1036.121094 175.308594 C 1039.195312 174.695312 1042.28125 174.160156 1045.382812 173.699219 C 1048.480469 173.242188 1051.589844 172.859375 1054.707031 172.550781 C 1057.828125 172.246094 1060.949219 172.015625 1064.078125 171.859375 C 1067.210938 171.707031 1070.339844 171.632812 1073.472656 171.632812 C 1076.605469 171.632812 1079.738281 171.710938 1082.867188 171.863281 C 1085.996094 172.019531 1089.121094 172.25 1092.238281 172.554688 C 1095.355469 172.863281 1098.464844 173.25 1101.566406 173.707031 C 1104.664062 174.167969 1107.75 174.707031 1110.824219 175.316406 C 1113.894531 175.929688 1116.953125 176.617188 1119.992188 177.378906 C 1123.03125 178.140625 1126.050781 178.976562 1129.046875 179.886719 C 1132.046875 180.796875 1135.019531 181.78125 1137.96875 182.835938 C 1140.917969 183.894531 1143.839844 185.019531 1146.734375 186.222656 C 1149.628906 187.421875 1152.492188 188.691406 1155.324219 190.03125 C 1158.15625 191.371094 1160.953125 192.78125 1163.71875 194.261719 C 1166.480469 195.738281 1169.203125 197.28125 1171.890625 198.894531 C 1174.578125 200.507812 1177.222656 202.183594 1179.828125 203.925781 C 1182.433594 205.667969 1184.992188 207.472656 1187.507812 209.339844 C 1190.023438 211.207031 1192.492188 213.132812 1194.914062 215.125 C 1197.335938 217.113281 1199.707031 219.160156 1202.027344 221.265625 C 1204.347656 223.371094 1206.617188 225.53125 1208.832031 227.746094 C 1211.042969 229.964844 1213.203125 232.234375 1215.308594 234.554688 C 1217.410156 236.878906 1219.453125 239.25 1221.441406 241.675781 C 1223.425781 244.097656 1225.351562 246.566406 1227.21875 249.085938 C 1229.082031 251.605469 1230.886719 254.164062 1232.625 256.773438 C 1234.363281 259.378906 1236.039062 262.023438 1237.648438 264.714844 C 1239.257812 267.402344 1240.800781 270.128906 1242.273438 272.890625 C 1243.75 275.65625 1245.15625 278.457031 1246.492188 281.289062 C 1247.832031 284.121094 1249.097656 286.988281 1250.296875 289.882812 C 1251.492188 292.777344 1252.617188 295.699219 1253.671875 298.652344 C 1254.726562 301.601562 1255.707031 304.578125 1256.613281 307.574219 C 1257.523438 310.574219 1258.355469 313.59375 1259.113281 316.632812 C 1259.875 319.675781 1260.558594 322.730469 1261.167969 325.804688 C 1261.773438 328.878906 1262.308594 331.964844 1262.765625 335.0625 C 1263.222656 338.164062 1263.605469 341.273438 1263.910156 344.390625 C 1264.214844 347.511719 1264.441406 350.632812 1264.59375 353.761719 C 1264.742188 356.894531 1264.816406 360.023438 1264.816406 363.15625 C 1264.808594 366.285156 1264.726562 369.410156 1264.566406 372.53125 C 1264.40625 375.65625 1264.171875 378.769531 1263.859375 381.882812 C 1263.546875 384.992188 1263.160156 388.09375 1262.695312 391.1875 C 1262.230469 394.28125 1261.691406 397.359375 1261.078125 400.425781 C 1260.464844 403.488281 1259.773438 406.539062 1259.011719 409.570312 C 1258.246094 412.601562 1257.410156 415.613281 1256.5 418.605469 C 1255.585938 421.597656 1254.601562 424.5625 1253.546875 427.507812 C 1252.488281 430.449219 1251.363281 433.363281 1250.164062 436.25 C 1248.964844 439.140625 1247.695312 441.996094 1246.355469 444.820312 C 1245.015625 447.648438 1243.609375 450.4375 1242.132812 453.195312 C 1240.65625 455.949219 1239.117188 458.667969 1237.507812 461.351562 C 1235.898438 464.03125 1234.226562 466.671875 1232.488281 469.269531 C 1230.75 471.871094 1228.949219 474.425781 1227.085938 476.9375 C 1225.222656 479.449219 1223.296875 481.910156 1221.316406 484.328125 C 1219.332031 486.746094 1217.289062 489.113281 1215.1875 491.429688 C 1213.089844 493.746094 1210.933594 496.007812 1208.722656 498.222656 C 1206.515625 500.433594 1204.25 502.589844 1201.933594 504.6875 C 1199.617188 506.789062 1197.253906 508.832031 1194.835938 510.816406 C 1192.421875 512.800781 1189.957031 514.726562 1187.445312 516.589844 C 1184.9375 518.453125 1182.382812 520.257812 1179.785156 521.996094 C 1177.1875 523.734375 1174.546875 525.410156 1171.867188 527.019531 C 1169.183594 528.628906 1166.46875 530.171875 1163.710938 531.648438 C 1160.957031 533.125 1158.164062 534.535156 1155.339844 535.875 C 1152.515625 537.214844 1149.660156 538.484375 1146.773438 539.683594 C 1143.886719 540.886719 1140.96875 542.015625 1138.027344 543.074219 C 1135.085938 544.128906 1132.117188 545.117188 1129.128906 546.027344 C 1126.136719 546.941406 1123.125 547.78125 1120.09375 548.542969 C 1117.0625 549.308594 1114.015625 550 1110.949219 550.617188 C 1107.882812 551.230469 1104.804688 551.773438 1101.714844 552.238281 C 1098.621094 552.703125 1095.519531 553.089844 1092.410156 553.40625 C 1089.296875 553.71875 1086.179688 553.953125 1083.058594 554.117188 C 1079.9375 554.277344 1076.8125 554.359375 1073.683594 554.367188 Z M 1073.683594 250.578125 C 1071.84375 250.574219 1070.003906 250.617188 1068.167969 250.703125 C 1066.328125 250.789062 1064.492188 250.921875 1062.664062 251.097656 C 1060.832031 251.273438 1059.003906 251.496094 1057.183594 251.761719 C 1055.363281 252.027344 1053.550781 252.339844 1051.746094 252.695312 C 1049.9375 253.046875 1048.144531 253.449219 1046.355469 253.890625 C 1044.570312 254.335938 1042.796875 254.820312 1041.035156 255.351562 C 1039.273438 255.882812 1037.527344 256.457031 1035.792969 257.074219 C 1034.058594 257.6875 1032.339844 258.347656 1030.636719 259.046875 C 1028.9375 259.75 1027.253906 260.492188 1025.589844 261.273438 C 1023.921875 262.058594 1022.277344 262.882812 1020.652344 263.746094 C 1019.03125 264.609375 1017.425781 265.511719 1015.847656 266.457031 C 1014.265625 267.398438 1012.710938 268.378906 1011.179688 269.398438 C 1009.644531 270.417969 1008.140625 271.476562 1006.660156 272.566406 C 1005.179688 273.660156 1003.726562 274.789062 1002.300781 275.953125 C 1000.878906 277.117188 999.484375 278.316406 998.117188 279.550781 C 996.75 280.785156 995.414062 282.050781 994.113281 283.347656 C 992.808594 284.648438 991.539062 285.976562 990.300781 287.335938 C 989.058594 288.699219 987.855469 290.089844 986.6875 291.507812 C 985.515625 292.929688 984.382812 294.378906 983.28125 295.851562 C 982.183594 297.328125 981.121094 298.832031 980.09375 300.359375 C 979.070312 301.886719 978.082031 303.4375 977.132812 305.015625 C 976.183594 306.59375 975.273438 308.191406 974.40625 309.8125 C 973.535156 311.433594 972.703125 313.074219 971.914062 314.738281 C 971.125 316.398438 970.375 318.078125 969.667969 319.777344 C 968.960938 321.476562 968.292969 323.191406 967.671875 324.921875 C 967.046875 326.652344 966.46875 328.398438 965.929688 330.160156 C 965.394531 331.917969 964.898438 333.691406 964.449219 335.476562 C 963.996094 337.257812 963.589844 339.054688 963.230469 340.859375 C 962.867188 342.660156 962.546875 344.472656 962.273438 346.292969 C 962 348.113281 961.773438 349.9375 961.589844 351.769531 C 961.40625 353.601562 961.265625 355.433594 961.171875 357.273438 C 961.078125 359.109375 961.03125 360.949219 961.027344 362.789062 C 961.023438 364.628906 961.066406 366.46875 961.152344 368.304688 C 961.238281 370.144531 961.371094 371.980469 961.546875 373.8125 C 961.726562 375.644531 961.945312 377.46875 962.214844 379.289062 C 962.480469 381.109375 962.789062 382.921875 963.148438 384.730469 C 963.503906 386.535156 963.902344 388.328125 964.347656 390.117188 C 964.789062 391.902344 965.277344 393.675781 965.808594 395.4375 C 966.339844 397.199219 966.914062 398.945312 967.53125 400.679688 C 968.144531 402.414062 968.804688 404.132812 969.507812 405.832031 C 970.207031 407.535156 970.949219 409.21875 971.734375 410.882812 C 972.515625 412.546875 973.339844 414.191406 974.207031 415.816406 C 975.070312 417.441406 975.972656 419.042969 976.917969 420.621094 C 977.859375 422.203125 978.84375 423.757812 979.863281 425.289062 C 980.882812 426.824219 981.9375 428.328125 983.03125 429.808594 C 984.125 431.289062 985.253906 432.742188 986.417969 434.164062 C 987.582031 435.589844 988.78125 436.984375 990.015625 438.351562 C 991.25 439.714844 992.515625 441.050781 993.816406 442.355469 C 995.113281 443.65625 996.445312 444.929688 997.804688 446.167969 C 999.167969 447.402344 1000.558594 448.609375 1001.976562 449.777344 C 1003.398438 450.949219 1004.847656 452.082031 1006.320312 453.179688 C 1007.796875 454.28125 1009.300781 455.339844 1010.828125 456.367188 C 1012.355469 457.390625 1013.910156 458.378906 1015.484375 459.328125 C 1017.0625 460.277344 1018.660156 461.183594 1020.28125 462.054688 C 1021.90625 462.925781 1023.546875 463.753906 1025.207031 464.546875 C 1026.871094 465.335938 1028.550781 466.082031 1030.25 466.789062 C 1031.949219 467.496094 1033.664062 468.164062 1035.394531 468.785156 C 1037.125 469.40625 1038.871094 469.988281 1040.632812 470.523438 C 1042.394531 471.0625 1044.164062 471.554688 1045.949219 472.003906 C 1047.734375 472.457031 1049.527344 472.863281 1051.332031 473.222656 C 1053.136719 473.585938 1054.949219 473.902344 1056.765625 474.175781 C 1058.585938 474.449219 1060.414062 474.675781 1062.242188 474.859375 C 1064.074219 475.042969 1065.910156 475.183594 1067.746094 475.277344 C 1069.585938 475.371094 1071.421875 475.417969 1073.261719 475.421875 C 1075.101562 475.421875 1076.941406 475.382812 1078.78125 475.292969 C 1080.617188 475.207031 1082.453125 475.074219 1084.285156 474.898438 C 1086.117188 474.71875 1087.941406 474.496094 1089.761719 474.230469 C 1091.582031 473.964844 1093.398438 473.652344 1095.203125 473.296875 C 1097.007812 472.941406 1098.804688 472.539062 1100.589844 472.09375 C 1102.375 471.652344 1104.148438 471.164062 1105.910156 470.632812 C 1107.671875 470.101562 1109.417969 469.527344 1111.152344 468.910156 C 1112.886719 468.292969 1114.605469 467.632812 1116.304688 466.929688 C 1118.007812 466.230469 1119.6875 465.488281 1121.355469 464.703125 C 1123.019531 463.917969 1124.664062 463.09375 1126.289062 462.230469 C 1127.910156 461.363281 1129.511719 460.460938 1131.09375 459.515625 C 1132.671875 458.574219 1134.230469 457.589844 1135.761719 456.570312 C 1137.292969 455.550781 1138.796875 454.496094 1140.277344 453.402344 C 1141.757812 452.308594 1143.207031 451.175781 1144.632812 450.011719 C 1146.058594 448.847656 1147.453125 447.648438 1148.816406 446.414062 C 1150.183594 445.179688 1151.515625 443.914062 1152.820312 442.613281 C 1154.125 441.316406 1155.394531 439.984375 1156.632812 438.625 C 1157.871094 437.261719 1159.074219 435.871094 1160.242188 434.449219 C 1161.414062 433.027344 1162.546875 431.582031 1163.644531 430.105469 C 1164.742188 428.628906 1165.804688 427.125 1166.828125 425.597656 C 1167.855469 424.070312 1168.839844 422.515625 1169.789062 420.9375 C 1170.738281 419.363281 1171.644531 417.761719 1172.515625 416.140625 C 1173.386719 414.519531 1174.214844 412.878906 1175.003906 411.214844 C 1175.792969 409.554688 1176.542969 407.871094 1177.246094 406.171875 C 1177.953125 404.472656 1178.621094 402.757812 1179.242188 401.027344 C 1179.863281 399.296875 1180.445312 397.550781 1180.980469 395.789062 C 1181.515625 394.03125 1182.011719 392.257812 1182.460938 390.472656 C 1182.910156 388.6875 1183.316406 386.894531 1183.675781 385.089844 C 1184.039062 383.285156 1184.355469 381.472656 1184.628906 379.652344 C 1184.902344 377.835938 1185.128906 376.007812 1185.3125 374.179688 C 1185.496094 372.347656 1185.632812 370.511719 1185.726562 368.675781 C 1185.816406 366.835938 1185.867188 364.996094 1185.867188 363.15625 C 1185.871094 361.320312 1185.824219 359.480469 1185.738281 357.644531 C 1185.648438 355.808594 1185.515625 353.976562 1185.335938 352.144531 C 1185.15625 350.316406 1184.933594 348.492188 1184.664062 346.671875 C 1184.398438 344.851562 1184.085938 343.042969 1183.726562 341.238281 C 1183.371094 339.433594 1182.96875 337.640625 1182.523438 335.855469 C 1182.082031 334.070312 1181.589844 332.300781 1181.058594 330.539062 C 1180.527344 328.78125 1179.953125 327.035156 1179.335938 325.300781 C 1178.71875 323.570312 1178.058594 321.855469 1177.359375 320.15625 C 1176.65625 318.453125 1175.914062 316.773438 1175.128906 315.109375 C 1174.34375 313.449219 1173.519531 311.804688 1172.65625 310.179688 C 1171.792969 308.558594 1170.886719 306.957031 1169.945312 305.378906 C 1169.003906 303.800781 1168.019531 302.246094 1167 300.714844 C 1165.984375 299.1875 1164.925781 297.683594 1163.832031 296.203125 C 1162.742188 294.726562 1161.613281 293.273438 1160.449219 291.851562 C 1159.285156 290.425781 1158.085938 289.035156 1156.851562 287.667969 C 1155.621094 286.304688 1154.355469 284.972656 1153.058594 283.667969 C 1151.757812 282.367188 1150.429688 281.097656 1149.070312 279.859375 C 1147.710938 278.621094 1146.320312 277.417969 1144.902344 276.25 C 1143.484375 275.082031 1142.035156 273.945312 1140.5625 272.847656 C 1139.085938 271.75 1137.585938 270.6875 1136.058594 269.664062 C 1134.53125 268.640625 1132.980469 267.652344 1131.40625 266.703125 C 1129.832031 265.757812 1128.234375 264.847656 1126.613281 263.976562 C 1124.992188 263.105469 1123.355469 262.277344 1121.695312 261.488281 C 1120.03125 260.695312 1118.355469 259.949219 1116.65625 259.242188 C 1114.960938 258.53125 1113.246094 257.867188 1111.515625 257.242188 C 1109.789062 256.621094 1108.042969 256.039062 1106.285156 255.5 C 1104.527344 254.964844 1102.757812 254.46875 1100.972656 254.019531 C 1099.191406 253.566406 1097.398438 253.160156 1095.597656 252.796875 C 1093.792969 252.433594 1091.984375 252.113281 1090.164062 251.839844 C 1088.347656 251.566406 1086.523438 251.335938 1084.695312 251.148438 C 1082.867188 250.964844 1081.03125 250.824219 1079.195312 250.730469 C 1077.359375 250.632812 1075.523438 250.585938 1073.683594 250.578125 Z M 1073.683594 250.578125 " fill-opacity="1" fill-rule="nonzero"/></svg>