<svg xmlns="http://www.w3.org/2000/svg" xmlns:xlink="http://www.w3.org/1999/xlink" width="500" zoomAndPan="magnify" viewBox="0 0 375 374.999991" height="500" preserveAspectRatio="xMidYMid meet" version="1.0"><defs><clipPath id="640d14993c"><path d="M 0 69 L 375 69 L 375 307 L 0 307 Z M 0 69 " clip-rule="nonzero"/></clipPath><clipPath id="39a6a0c13b"><path d="M -20.386719 42.03125 L 383.5 72.074219 L 365.082031 319.640625 L -38.800781 289.597656 Z M -20.386719 42.03125 " clip-rule="nonzero"/></clipPath><clipPath id="b845221cee"><path d="M -3.929688 43.253906 L 384.246094 72.128906 L 365.828125 319.695312 L -22.347656 290.820312 Z M -3.929688 43.253906 " clip-rule="nonzero"/></clipPath><clipPath id="ca6534607f"><path d="M -20.386719 42.03125 L 428.375 75.414062 L 409.957031 322.980469 L -38.800781 289.597656 Z M -20.386719 42.03125 " clip-rule="nonzero"/></clipPath><clipPath id="0532c1049a"><path d="M -20.386719 42.054688 L 428.566406 75.453125 L 410.144531 323.125 L -38.8125 289.726562 Z M -20.386719 42.054688 " clip-rule="nonzero"/></clipPath><clipPath id="1302508195"><path d="M -20.386719 42.054688 L 428.378906 75.4375 L 409.96875 322.957031 L -38.800781 289.570312 Z M -20.386719 42.054688 " clip-rule="nonzero"/></clipPath></defs><rect x="-37.5" width="450" fill="#ffffff" y="-37.499999" height="449.999989" fill-opacity="1"/><rect x="-37.5" width="450" fill="#ffffff" y="-37.499999" height="449.999989" fill-opacity="1"/><g clip-path="url(#640d14993c)"><g clip-path="url(#39a6a0c13b)"><g clip-path="url(#b845221cee)"><g clip-path="url(#ca6534607f)"><g clip-path="url(#0532c1049a)"><g clip-path="url(#1302508195)"><path fill="#131212" d="M 280.617188 217.078125 C 280.1875 217.316406 278.714844 218.121094 277.34375 218.867188 C 275.976562 219.613281 273.214844 221.503906 271.210938 223.070312 C 269.207031 224.632812 265.699219 227.214844 263.417969 228.808594 C 258.589844 232.171875 247.660156 242.238281 244.058594 246.636719 C 241.5 249.757812 238.441406 252.335938 233.542969 255.492188 C 232 256.488281 229.664062 258.054688 228.351562 258.980469 C 227.039062 259.910156 223.957031 261.808594 221.503906 263.207031 C 215.839844 266.429688 214.46875 267.597656 208.851562 273.953125 C 197.183594 287.164062 196.828125 287.511719 191.695312 290.84375 C 189.796875 292.070312 187.195312 293.890625 185.921875 294.882812 C 183.421875 296.820312 182.484375 297.144531 183.355469 295.777344 C 184.238281 294.386719 183.980469 290.273438 182.789062 286.789062 C 181.574219 283.234375 181.605469 283.03125 183.972656 278.773438 C 185.121094 276.707031 185.867188 275.824219 186.648438 275.589844 C 187.496094 275.339844 187.734375 275.015625 187.734375 274.128906 C 187.730469 273.429688 188.621094 271.546875 190.035156 269.269531 C 192.089844 265.945312 193.015625 264.960938 198.703125 260.050781 C 205.695312 254.015625 207.929688 251.421875 211.972656 244.65625 C 215.542969 238.671875 218.238281 234.644531 221.558594 230.332031 C 224.625 226.34375 226.023438 225.480469 231.132812 224.410156 C 233.414062 223.933594 235.707031 223.878906 241.625 224.15625 C 250.398438 224.570312 254.542969 224.035156 262.511719 221.464844 C 267.238281 219.941406 280.242188 216.519531 280.992188 216.601562 C 281.21875 216.628906 281.046875 216.839844 280.617188 217.078125 Z M 272.289062 226.894531 C 270.832031 228.53125 268.199219 231.246094 266.445312 232.917969 C 264.6875 234.589844 262.015625 237.347656 260.507812 239.039062 C 256.773438 243.222656 255.128906 244.722656 248.535156 249.957031 C 245.414062 252.433594 241.863281 255.253906 240.644531 256.230469 C 239.425781 257.210938 236.308594 260.226562 233.71875 262.9375 C 228.710938 268.179688 225.058594 271.386719 220.855469 274.222656 C 216.46875 277.183594 212.957031 280.261719 208.480469 285.066406 C 205.632812 288.121094 202.417969 290.996094 198.925781 293.601562 C 196.03125 295.765625 192.324219 298.613281 190.691406 299.929688 C 189.058594 301.246094 186.972656 302.636719 186.0625 303.019531 C 184.421875 303.707031 184.398438 303.707031 184.035156 302.894531 C 183.835938 302.445312 183.710938 301.546875 183.757812 300.90625 C 183.851562 299.648438 184.6875 298.976562 193.515625 293.0625 C 198.128906 289.96875 199.925781 288.265625 207.066406 280.207031 C 216.664062 269.371094 216.667969 269.367188 223.207031 265.410156 C 237.023438 257.046875 242.933594 252.660156 246.242188 248.308594 C 248.648438 245.144531 260.835938 233.976562 264.859375 231.253906 C 266.425781 230.191406 269.277344 228.101562 271.195312 226.605469 C 273.113281 225.113281 274.738281 223.898438 274.808594 223.902344 C 274.882812 223.90625 273.75 225.253906 272.289062 226.894531 Z M 215.78125 233.058594 C 215.824219 233.054688 213.945312 236.183594 211.605469 240.015625 C 205.445312 250.097656 204.097656 251.742188 197.484375 257.316406 C 194.289062 260.011719 191.09375 262.980469 190.378906 263.914062 C 189.667969 264.84375 189.035156 265.410156 188.976562 265.167969 C 188.835938 264.613281 189.992188 262.71875 192.136719 259.996094 C 193.0625 258.824219 194.894531 256.101562 196.210938 253.941406 C 198.957031 249.449219 204.261719 243.503906 211.078125 237.289062 C 213.621094 234.96875 215.738281 233.066406 215.78125 233.058594 Z M 182.253906 276.335938 L 180.003906 279.96875 L 179.261719 278.742188 C 178.320312 277.191406 178.324219 277.183594 179.632812 277.300781 C 181.089844 277.429688 182.429688 275.511719 182.6875 272.921875 C 182.984375 269.980469 182.644531 269.003906 179.992188 265.144531 C 178.644531 263.179688 177.355469 261.292969 177.128906 260.945312 C 176.902344 260.601562 177.265625 260.765625 177.9375 261.3125 C 179.359375 262.472656 180.152344 262.617188 180.894531 261.851562 C 181.59375 261.125 180.554688 255.558594 179.179688 252.6875 C 178.074219 250.378906 169.792969 239.625 167.152344 237.078125 C 166.203125 236.160156 162.773438 233.84375 159.527344 231.929688 C 156.117188 229.917969 152.492188 227.414062 150.933594 225.988281 C 144.503906 220.105469 138.417969 215.089844 135.863281 213.566406 C 133.355469 212.070312 133.09375 211.789062 132.914062 210.359375 C 132.671875 208.449219 129.046875 198.625 127.371094 195.34375 C 126.699219 194.027344 125.304688 190.949219 124.265625 188.507812 C 122.277344 183.804688 120.90625 181.691406 119.78125 181.609375 C 118.820312 181.539062 119.386719 180.742188 123.59375 176.242188 C 125.507812 174.191406 127.714844 171.546875 128.5 170.363281 C 130.75 166.960938 133.988281 159.710938 133.78125 158.535156 C 133.625 157.613281 133.703125 157.550781 134.644531 157.863281 C 136.355469 158.429688 138.84375 157.714844 140.179688 156.277344 C 141.371094 154.996094 141.402344 154.988281 141.914062 155.847656 C 142.5625 156.929688 145.300781 158.46875 146.8125 158.59375 C 147.628906 158.660156 147.917969 158.890625 147.878906 159.4375 C 147.804688 160.398438 148.839844 161.480469 150.285156 161.957031 C 150.988281 162.1875 151.75 162.960938 152.308594 164.003906 C 152.796875 164.929688 154.019531 166.335938 155.019531 167.128906 C 157.757812 169.308594 158.667969 170.589844 160.246094 174.488281 C 163.164062 181.707031 165.574219 183.585938 174.929688 185.953125 C 181.96875 187.734375 184.683594 187.871094 186.359375 186.527344 C 186.984375 186.03125 187.6875 185.214844 187.921875 184.722656 L 188.351562 183.820312 L 189.878906 185.003906 C 190.746094 185.671875 191.839844 186.160156 192.402344 186.128906 C 193.027344 186.09375 193.871094 186.539062 194.6875 187.335938 C 195.851562 188.472656 196.195312 188.59375 198.054688 188.511719 C 200.84375 188.390625 204.808594 186.726562 207.054688 184.738281 C 209.929688 182.191406 212.335938 177.941406 215.6875 169.496094 C 218.6875 161.933594 219 160.585938 217.855469 160.050781 C 217.4375 159.851562 217.636719 159.472656 218.667969 158.535156 C 221.628906 155.828125 223.5 152.523438 224.492188 148.242188 L 224.851562 146.691406 L 225.851562 148.550781 C 226.398438 149.570312 227.09375 150.640625 227.394531 150.925781 C 228.566406 152.042969 229.914062 152.128906 231.984375 151.21875 C 234.425781 150.148438 234.398438 150.148438 234.324219 151.148438 C 234.261719 151.996094 235.710938 153.414062 238.476562 155.207031 C 239.566406 155.914062 240.429688 156.898438 240.863281 157.933594 C 241.238281 158.824219 242.445312 160.6875 243.539062 162.070312 C 246.136719 165.351562 246.480469 167.214844 245.894531 174.792969 C 245.320312 182.210938 243.515625 189.476562 240.941406 194.722656 C 238.402344 199.90625 232.378906 211.199219 229.992188 215.261719 C 227.421875 219.632812 224.121094 223.378906 221.066406 225.398438 C 216.792969 228.21875 203.878906 239.902344 199.445312 244.957031 C 197.125 247.601562 194.515625 251.0625 193.644531 252.644531 C 192.777344 254.226562 191.050781 256.835938 189.8125 258.4375 C 186.800781 262.335938 185.566406 265.109375 184.980469 269.28125 C 184.546875 272.367188 184.277344 273.066406 182.253906 276.335938 Z M 180.714844 292.160156 C 180.554688 291.699219 180.457031 290.859375 180.5 290.300781 C 180.570312 289.371094 180.601562 289.355469 180.867188 290.121094 C 181.027344 290.585938 181.121094 291.421875 181.082031 291.984375 C 181.011719 292.914062 180.976562 292.929688 180.714844 292.160156 Z M 177.128906 272.089844 C 175.820312 270.929688 173.113281 268.660156 171.117188 267.042969 C 164.578125 261.753906 161.636719 259.140625 157.007812 254.503906 C 151.949219 249.445312 151.460938 248.878906 146.257812 242.023438 C 144.265625 239.394531 142.34375 236.964844 141.988281 236.625 C 140.757812 235.445312 135.277344 228.285156 135.625 228.316406 C 135.816406 228.332031 138.066406 230.898438 140.621094 234.023438 C 145.691406 240.222656 149.800781 243.753906 158.277344 249.183594 C 168.617188 255.804688 171.964844 258.660156 175.878906 264.164062 C 180.03125 270.003906 180.714844 271.648438 179.800781 273.585938 C 179.570312 274.070312 179.023438 273.765625 177.128906 272.089844 Z M 152.058594 241.261719 C 152.046875 241.375 151.214844 240.8125 150.199219 240.015625 C 148.277344 238.496094 138.6875 227.804688 138.730469 227.226562 C 138.796875 226.316406 142.589844 229.941406 147.070312 235.191406 C 149.820312 238.417969 152.066406 241.148438 152.058594 241.261719 Z M 131.125 217.855469 C 128.953125 215.253906 126.519531 212.246094 125.722656 211.171875 C 124.921875 210.097656 122.527344 207.089844 120.40625 204.492188 C 116.640625 199.886719 116.546875 199.71875 116.679688 197.859375 C 116.835938 195.671875 119.097656 186.886719 119.492188 186.929688 C 119.636719 186.941406 120.328125 187.929688 121.03125 189.125 C 125.097656 196.042969 130.261719 208.542969 130.078125 211.019531 C 129.921875 213.097656 130.292969 213.546875 133.898438 215.707031 C 137.171875 217.664062 140.660156 220.480469 148.28125 227.324219 C 152.300781 230.925781 154.566406 232.527344 158.730469 234.707031 C 163.757812 237.332031 165.671875 239.101562 171.25 246.292969 C 175.828125 252.1875 177.972656 255.804688 177.515625 256.863281 C 177.429688 257.0625 176.042969 256.292969 174.433594 255.152344 C 172.824219 254.011719 169.03125 251.589844 166.003906 249.765625 L 160.5 246.449219 L 151.992188 236.640625 C 147.308594 231.246094 142.867188 226.398438 142.113281 225.867188 C 141.363281 225.335938 140.105469 224.230469 139.320312 223.410156 C 137.882812 221.910156 136.414062 221.433594 135.542969 222.183594 C 135.214844 222.46875 133.921875 221.203125 131.125 217.855469 Z M 133.078125 224.84375 C 132.964844 224.832031 132.570312 224.433594 132.195312 223.957031 C 131.824219 223.476562 131.609375 223.09375 131.722656 223.101562 C 131.832031 223.109375 132.230469 223.507812 132.605469 223.988281 C 132.976562 224.464844 133.191406 224.851562 133.078125 224.84375 Z M 128.632812 220.074219 C 127.007812 218.9375 122.503906 213.894531 120.542969 211.019531 C 119.191406 209.035156 117.511719 205.636719 117.898438 205.667969 C 117.996094 205.671875 119.796875 207.976562 121.90625 210.785156 C 124.015625 213.589844 126.6875 217.039062 127.847656 218.441406 C 129.65625 220.640625 129.765625 220.867188 128.632812 220.074219 Z M 182.1875 174.972656 C 181.828125 173.082031 182.042969 166.144531 182.457031 166.175781 C 182.554688 166.183594 183.046875 167.28125 183.550781 168.617188 C 185.433594 173.59375 186.597656 180.332031 185.847656 181.921875 C 185.566406 182.515625 185.441406 182.46875 184.796875 181.519531 C 183.648438 179.824219 182.613281 177.234375 182.1875 174.972656 Z M 192.066406 179.8125 C 192.207031 181.273438 192.183594 182.589844 192.015625 182.734375 C 191.84375 182.878906 191.277344 182.535156 190.757812 181.964844 C 189.921875 181.058594 189.835938 180.59375 190.015625 178.046875 C 190.15625 176.058594 190.011719 174.589844 189.546875 173.324219 C 189.171875 172.3125 188.902344 171.089844 188.941406 170.609375 C 189.066406 169.035156 191.804688 177.09375 192.066406 179.8125 Z M 250.289062 142.527344 C 250.414062 142.660156 250.683594 144.433594 250.886719 146.472656 C 251.953125 157.136719 251.617188 167.953125 249.996094 175.0625 C 249.492188 177.261719 249.035156 179.105469 248.976562 179.15625 C 248.914062 179.207031 249.125 175.363281 249.441406 170.609375 C 249.757812 165.859375 250.011719 159.296875 250.007812 156.027344 C 249.992188 145.421875 250.058594 142.285156 250.289062 142.527344 Z M 421.300781 124.480469 C 418.1875 126.296875 410.214844 129.25 406.113281 130.109375 C 400.945312 131.1875 393.617188 132.054688 386.015625 132.492188 C 371.960938 133.296875 363.019531 135.613281 352.082031 141.296875 C 347.914062 143.464844 344.84375 146.113281 340.914062 150.941406 C 339.460938 152.722656 336.945312 155.46875 335.328125 157.039062 C 333.703125 158.613281 331.195312 161.285156 329.75 162.984375 C 328.308594 164.679688 325.386719 167.878906 323.269531 170.089844 C 321.148438 172.300781 317.78125 175.925781 315.792969 178.144531 C 313.804688 180.363281 309.824219 184.5 306.953125 187.328125 C 300.363281 193.824219 297.207031 197.472656 294.398438 201.84375 C 293.175781 203.746094 291.625 206 290.949219 206.851562 C 290.273438 207.703125 289.25 209.195312 288.671875 210.167969 C 288.09375 211.140625 286.929688 212.554688 286.089844 213.308594 C 284.703125 214.554688 284.429688 214.644531 283.171875 214.257812 C 280.730469 213.515625 273.097656 215.101562 262.226562 218.601562 C 253.554688 221.398438 250.953125 221.742188 241.214844 221.390625 C 236.484375 221.222656 231.953125 221.238281 231.152344 221.429688 C 229.011719 221.9375 229.003906 221.917969 230.597656 219.667969 C 231.40625 218.527344 233.429688 215.035156 235.097656 211.902344 C 236.761719 208.769531 239.195312 204.253906 240.496094 201.867188 C 241.800781 199.484375 243.5 196.238281 244.269531 194.652344 C 245.042969 193.070312 246.632812 190.195312 247.804688 188.269531 C 251.996094 181.359375 254.222656 171.582031 254.238281 160.007812 C 254.25 149.21875 253.167969 139.410156 251.671875 136.785156 C 250.753906 135.179688 249.503906 134.722656 248.464844 135.617188 C 247.542969 136.410156 247.175781 141.128906 247.289062 150.695312 C 247.335938 154.535156 247.308594 158.585938 247.230469 159.695312 L 247.089844 161.71875 L 245.585938 160.015625 C 244.761719 159.082031 243.859375 157.730469 243.578125 157.015625 C 242.941406 155.371094 241.445312 153.757812 239.074219 152.152344 C 238.054688 151.460938 237.226562 150.769531 237.238281 150.617188 C 237.25 150.464844 237.578125 149.949219 237.96875 149.472656 C 238.355469 148.996094 238.648438 148.195312 238.613281 147.6875 C 238.503906 146.054688 236.203125 146.082031 232.777344 147.765625 C 229.230469 149.503906 229.1875 149.480469 227.351562 144.601562 C 226.226562 141.605469 225.902344 141.109375 225.027344 141.042969 C 223.613281 140.9375 222.769531 142.230469 222.222656 145.347656 C 221.542969 149.222656 220.398438 152.089844 218.609375 154.386719 C 216.398438 157.230469 215.082031 158.070312 209.464844 160.210938 C 202.304688 162.9375 202.445312 162.863281 202.367188 163.9375 C 202.222656 165.855469 203.210938 165.941406 209.101562 164.511719 C 212.132812 163.777344 214.691406 163.265625 214.789062 163.378906 C 214.882812 163.488281 214.011719 166.066406 212.84375 169.109375 C 210.367188 175.566406 207.46875 180.742188 205.253906 182.660156 C 203.40625 184.261719 200.363281 185.546875 198.109375 185.679688 C 196.621094 185.765625 196.460938 185.671875 195.910156 184.382812 C 195.582031 183.617188 195.085938 179.925781 194.808594 176.179688 C 194.496094 171.929688 194.039062 168.71875 193.597656 167.648438 C 192.6875 165.425781 190.398438 162.664062 189.410156 162.589844 C 188.949219 162.554688 188.570312 162.15625 188.472656 161.597656 C 188.382812 161.085938 187.46875 158.714844 186.4375 156.332031 C 184.359375 151.507812 184.21875 149.808594 185.644531 146.433594 C 187.089844 143.011719 193.335938 133.699219 198.691406 126.984375 C 202.929688 121.671875 204.964844 119.53125 209.25 115.875 C 215.757812 110.328125 218.972656 108.058594 226.011719 104.046875 C 237.828125 97.3125 242.464844 96.238281 257.695312 96.714844 C 274.226562 97.230469 284.492188 96.027344 308.007812 90.824219 C 317.875 88.640625 330.476562 86.316406 346.105469 83.796875 C 358.730469 81.761719 365.570312 80.890625 377.566406 79.777344 C 389.132812 78.707031 393.886719 78.054688 399.039062 76.832031 C 403.039062 75.886719 404.003906 75.335938 403.660156 74.203125 C 403.398438 73.324219 402.261719 73.292969 399.394531 74.089844 C 395.359375 75.207031 389.074219 76.089844 379.496094 76.878906 C 358.796875 78.582031 330.957031 82.941406 306.136719 88.363281 C 282.636719 93.496094 275.230469 94.355469 257.257812 94.015625 C 242.613281 93.738281 238.164062 94.519531 229.703125 98.847656 C 215.546875 106.082031 205.902344 113.710938 197.023438 124.6875 C 190.625 132.601562 190.628906 132.59375 186.390625 139.464844 L 183.089844 144.824219 L 182.039062 142.59375 C 179.859375 137.964844 174.003906 132.796875 163.488281 126.222656 C 159.714844 123.859375 154.042969 120.183594 150.890625 118.058594 C 147.738281 115.929688 143.285156 113.097656 140.996094 111.769531 L 136.828125 109.347656 L 131.027344 108.625 C 127.835938 108.230469 123.785156 107.953125 122.027344 108.015625 C 118.253906 108.152344 117.859375 107.992188 112.59375 104.171875 C 105.835938 99.269531 104.121094 98.816406 86.789062 97.351562 L 74.34375 96.304688 L 69.742188 94.679688 C 67.210938 93.789062 61.527344 91.882812 57.113281 90.441406 C 27.992188 80.949219 11.347656 74.660156 6.789062 71.429688 C 4.121094 69.539062 3.042969 69.351562 2.9375 70.761719 C 2.757812 73.171875 10.945312 77.339844 28.0625 83.554688 C 30.921875 84.589844 40.65625 87.902344 49.691406 90.914062 C 58.730469 93.921875 67.472656 96.882812 69.121094 97.488281 C 71.8125 98.480469 73.589844 98.734375 86.59375 99.988281 C 103.816406 101.652344 104.394531 101.800781 110.375 106.03125 C 117.105469 110.796875 116.226562 110.480469 123.296875 110.703125 C 134.785156 111.070312 136.488281 111.707031 149.554688 120.53125 C 153.308594 123.066406 159.035156 126.785156 162.273438 128.796875 C 169.78125 133.457031 172.707031 135.703125 176.230469 139.519531 C 179.808594 143.390625 180.664062 145.476562 181.300781 151.941406 C 181.570312 154.667969 181.921875 157.59375 182.074219 158.445312 C 182.3125 159.75 182.226562 160.101562 181.519531 160.710938 C 180.398438 161.675781 179.117188 167.550781 179.136719 171.652344 C 179.152344 176.492188 180.367188 180.234375 182.980469 183.542969 C 183.855469 184.648438 183.867188 184.738281 183.136719 184.726562 C 180.296875 184.671875 171.28125 182.375 168.757812 181.066406 C 166.289062 179.785156 164.6875 177.648438 162.695312 172.980469 C 161.167969 169.398438 159.609375 167.238281 156.914062 164.96875 C 156.171875 164.347656 156.132812 164.238281 156.742188 164.5 C 157.179688 164.6875 160.015625 165.113281 163.046875 165.449219 C 167.894531 165.988281 168.632812 165.980469 169.183594 165.410156 C 169.648438 164.929688 169.714844 164.566406 169.441406 164.046875 C 169.132812 163.46875 168.132812 163.222656 164.21875 162.746094 C 159.519531 162.179688 151.53125 160.023438 151.582031 159.335938 C 151.59375 159.164062 152.3125 158.851562 153.171875 158.644531 C 157.703125 157.554688 157.257812 154.761719 152.6875 155.589844 C 151.4375 155.816406 149.34375 155.921875 148.027344 155.820312 C 145.941406 155.667969 145.503906 155.488281 144.625 154.425781 C 144.074219 153.753906 143.453125 152.855469 143.253906 152.425781 C 142.71875 151.277344 140.699219 151.253906 139.71875 152.386719 C 136.867188 155.671875 137.109375 155.535156 134.886719 155.097656 C 133.753906 154.875 130.027344 153.839844 126.605469 152.796875 C 123.183594 151.753906 119.777344 150.855469 119.042969 150.796875 C 116.539062 150.605469 116.644531 152.957031 119.179688 153.832031 C 123.183594 155.21875 130.277344 158.277344 130.628906 158.773438 C 130.929688 159.195312 130.597656 160.242188 129.332031 162.871094 C 126.742188 168.242188 125.5625 169.972656 121.496094 174.355469 C 114.925781 181.433594 112.886719 185.730469 112.28125 193.765625 C 111.925781 198.511719 112.496094 203.214844 113.4375 203.285156 C 113.667969 203.300781 114.242188 204.394531 114.714844 205.710938 C 115.984375 209.273438 117.894531 212.460938 121.101562 216.363281 C 122.683594 218.285156 124.082031 220.328125 124.214844 220.902344 C 124.621094 222.675781 127.257812 226.929688 130.074219 230.359375 C 131.554688 232.164062 134.195312 235.496094 135.945312 237.769531 C 137.691406 240.042969 142.339844 245.6875 146.273438 250.316406 C 154.019531 259.421875 162.527344 267.589844 168.867188 272.003906 C 172.78125 274.726562 175.878906 278.011719 177.347656 280.984375 C 178.253906 282.828125 178.292969 283.277344 177.96875 287.667969 L 177.617188 292.378906 L 173.652344 290.5 C 168.222656 287.933594 163.070312 284.785156 159.804688 282.039062 C 151.3125 274.898438 147.15625 271.328125 143.914062 268.394531 C 141.921875 266.589844 139.554688 264.609375 138.652344 263.988281 C 136.214844 262.304688 131.769531 260.484375 125.863281 258.75 C 122.367188 257.722656 119.679688 256.652344 117.886719 255.574219 C 114.375 253.460938 108.921875 248.535156 103.691406 242.753906 C 95.3125 233.484375 90.488281 229.015625 87.117188 227.390625 C 86.277344 226.988281 84.269531 226.277344 82.660156 225.816406 C 81.046875 225.355469 79.222656 224.667969 78.605469 224.289062 C 76.523438 223.011719 74.164062 219.210938 68.769531 208.4375 C 61.800781 194.523438 60.554688 191.835938 57.515625 184.183594 C 53.730469 174.664062 51 169.0625 47.226562 163.089844 C 45.355469 160.128906 42.941406 156.171875 41.859375 154.289062 C 40.777344 152.410156 37.597656 148.191406 34.792969 144.910156 C 29.699219 138.957031 29.6875 138.945312 24.382812 135.832031 C 21.460938 134.117188 17.28125 131.917969 15.09375 130.953125 C 10.109375 128.75 4.988281 125.527344 -0.96875 120.855469 C -6.246094 116.714844 -6.78125 116.234375 -15.507812 107.820312 C -20.414062 103.089844 -21.910156 101.40625 -21.945312 100.578125 C -22.035156 98.492188 -24.621094 98.96875 -24.777344 101.097656 C -24.878906 102.460938 -23.652344 103.859375 -15.125 112.097656 C -8.316406 118.683594 0.308594 125.730469 5.972656 129.347656 C 7.804688 130.519531 11.183594 132.300781 13.480469 133.308594 C 15.777344 134.316406 19.871094 136.414062 22.578125 137.964844 C 27.496094 140.789062 27.507812 140.800781 32.792969 146.984375 C 35.699219 150.390625 38.722656 154.335938 39.507812 155.746094 C 40.292969 157.15625 42.484375 160.773438 44.375 163.777344 C 48.460938 170.253906 49.8125 173.007812 54.699219 184.765625 C 60.859375 199.601562 70.46875 219.078125 73.820312 223.535156 C 75.828125 226.195312 77.257812 227.09375 81.574219 228.398438 C 83.878906 229.089844 86.296875 230.152344 87.722656 231.097656 C 90.480469 232.921875 95.441406 237.738281 100.746094 243.738281 C 107.488281 251.363281 114.898438 257.671875 119.210938 259.460938 C 120.566406 260.023438 123.550781 261.003906 125.839844 261.636719 C 133.191406 263.675781 136.976562 265.703125 141.558594 270.046875 C 142.792969 271.214844 145.628906 273.703125 147.863281 275.570312 C 150.09375 277.4375 153.570312 280.402344 155.585938 282.160156 C 160.441406 286.390625 165.28125 289.597656 170.84375 292.265625 C 176.902344 295.171875 178.398438 296.214844 179.246094 298.113281 C 179.632812 298.984375 180.238281 299.816406 180.59375 299.960938 C 181.019531 300.132812 181.265625 300.859375 181.3125 302.085938 C 181.398438 304.273438 182.621094 306.042969 184.132812 306.15625 C 185.910156 306.289062 188.789062 304.84375 192.246094 302.085938 C 194.085938 300.621094 197.832031 297.789062 200.574219 295.792969 C 205.453125 292.242188 207.09375 290.726562 213.230469 284.136719 C 215.132812 282.09375 218.148438 279.566406 221.363281 277.324219 C 228.136719 272.597656 229.464844 271.441406 235.941406 264.691406 C 239.503906 260.972656 243.257812 257.570312 246.585938 255.050781 C 253.632812 249.714844 258.671875 245.285156 262.070312 241.453125 C 263.648438 239.675781 266.40625 236.835938 268.207031 235.140625 C 270.007812 233.449219 272.613281 230.761719 273.996094 229.171875 C 277.226562 225.46875 280.457031 222.242188 285.488281 217.703125 C 287.699219 215.703125 289.980469 213.285156 290.5625 212.328125 C 291.140625 211.375 292.167969 209.894531 292.84375 209.042969 C 293.515625 208.191406 295.269531 205.65625 296.734375 203.410156 C 299.890625 198.578125 302.660156 195.410156 310.167969 188.054688 C 313.226562 185.050781 316.488281 181.695312 317.414062 180.59375 C 318.335938 179.496094 321.21875 176.355469 323.824219 173.617188 C 326.421875 170.878906 330.113281 166.855469 332.027344 164.683594 C 333.9375 162.507812 336.570312 159.695312 337.878906 158.433594 C 339.1875 157.171875 341.585938 154.539062 343.207031 152.582031 C 346.945312 148.078125 349.210938 146.074219 352.703125 144.179688 C 363.5625 138.289062 371.761719 136.167969 387.789062 135.109375 C 401.246094 134.214844 408.457031 132.882812 415.914062 129.910156 C 422.601562 127.25 424.804688 125.910156 424.714844 124.574219 C 424.625 123.25 423.46875 123.214844 421.300781 124.480469 " fill-opacity="1" fill-rule="nonzero"/></g></g></g></g></g></g></svg>