<svg xmlns="http://www.w3.org/2000/svg" xmlns:xlink="http://www.w3.org/1999/xlink" width="500" zoomAndPan="magnify" viewBox="0 0 375 374.999991" height="500" preserveAspectRatio="xMidYMid meet" version="1.0"><defs><clipPath id="9b9e1c5397"><path d="M 0 69 L 375 69 L 375 307 L 0 307 Z M 0 69 " clip-rule="nonzero"/></clipPath><clipPath id="70b4022ed6"><path d="M -20.386719 42.03125 L 383.5 72.074219 L 365.082031 319.640625 L -38.800781 289.597656 Z M -20.386719 42.03125 " clip-rule="nonzero"/></clipPath><clipPath id="8d703be0f9"><path d="M -20.386719 42.03125 L 428.375 75.414062 L 409.957031 322.980469 L -38.800781 289.597656 Z M -20.386719 42.03125 " clip-rule="nonzero"/></clipPath><clipPath id="eb201204df"><path d="M -20.386719 42.054688 L 428.554688 75.453125 L 410.109375 323.4375 L -38.835938 290.042969 Z M -20.386719 42.054688 " clip-rule="nonzero"/></clipPath><clipPath id="c4074c08b3"><path d="M -20.386719 42.054688 L 428.367188 75.4375 L 409.933594 323.269531 L -38.824219 289.886719 Z M -20.386719 42.054688 " clip-rule="nonzero"/></clipPath></defs><rect x="-37.5" width="450" fill="#ffffff" y="-37.499999" height="449.999989" fill-opacity="1"/><rect x="-37.5" width="450" fill="#201f1e" y="-37.499999" height="449.999989" fill-opacity="1"/><g clip-path="url(#9b9e1c5397)"><g clip-path="url(#70b4022ed6)"><g clip-path="url(#8d703be0f9)"><g clip-path="url(#eb201204df)"><g clip-path="url(#c4074c08b3)"><path fill="#ffffff" d="M 280.59375 217.273438 C 280.164062 217.507812 278.695312 218.3125 277.320312 219.0625 C 275.953125 219.808594 273.191406 221.703125 271.1875 223.269531 C 269.183594 224.835938 265.675781 227.421875 263.394531 229.019531 C 258.5625 232.386719 247.632812 242.46875 244.03125 246.871094 C 241.476562 249.996094 238.414062 252.578125 233.519531 255.738281 C 231.976562 256.734375 229.636719 258.304688 228.324219 259.234375 C 227.011719 260.160156 223.929688 262.0625 221.476562 263.460938 C 215.8125 266.691406 214.441406 267.859375 208.824219 274.226562 C 197.15625 287.457031 196.800781 287.804688 191.667969 291.136719 C 189.769531 292.367188 187.167969 294.1875 185.890625 295.183594 C 183.394531 297.121094 182.457031 297.449219 183.328125 296.078125 C 184.210938 294.6875 183.949219 290.570312 182.761719 287.078125 C 181.546875 283.519531 181.578125 283.316406 183.945312 279.054688 C 185.09375 276.984375 185.839844 276.097656 186.625 275.867188 C 187.46875 275.617188 187.707031 275.292969 187.707031 274.402344 C 187.703125 273.703125 188.597656 271.816406 190.007812 269.535156 C 192.0625 266.207031 192.992188 265.222656 198.679688 260.304688 C 205.671875 254.261719 207.90625 251.664062 211.949219 244.890625 C 215.519531 238.898438 218.214844 234.867188 221.535156 230.546875 C 224.601562 226.554688 226 225.6875 231.109375 224.617188 C 233.390625 224.140625 235.683594 224.082031 241.601562 224.363281 C 250.375 224.777344 254.519531 224.242188 262.488281 221.664062 C 267.214844 220.136719 280.21875 216.710938 280.96875 216.792969 C 281.195312 216.820312 281.027344 217.035156 280.59375 217.273438 Z M 272.265625 227.101562 C 270.808594 228.742188 268.175781 231.457031 266.421875 233.132812 C 264.664062 234.808594 261.992188 237.566406 260.484375 239.261719 C 256.746094 243.453125 255.101562 244.953125 248.507812 250.195312 C 245.386719 252.671875 241.835938 255.5 240.617188 256.480469 C 239.398438 257.457031 236.28125 260.476562 233.691406 263.191406 C 228.6875 268.441406 225.035156 271.652344 220.828125 274.492188 C 216.441406 277.460938 212.925781 280.542969 208.453125 285.351562 C 205.605469 288.414062 202.390625 291.289062 198.898438 293.898438 C 196 296.066406 192.292969 298.917969 190.660156 300.238281 C 189.027344 301.554688 186.945312 302.949219 186.03125 303.332031 C 184.394531 304.019531 184.367188 304.015625 184.007812 303.207031 C 183.808594 302.753906 183.683594 301.859375 183.730469 301.214844 C 183.824219 299.953125 184.660156 299.28125 193.484375 293.359375 C 198.101562 290.261719 199.894531 288.558594 207.035156 280.488281 C 216.636719 269.636719 216.640625 269.632812 223.179688 265.671875 C 236.996094 257.296875 242.90625 252.902344 246.21875 248.542969 C 248.621094 245.378906 260.8125 234.195312 264.835938 231.464844 C 266.402344 230.402344 269.253906 228.308594 271.171875 226.8125 C 273.089844 225.316406 274.714844 224.097656 274.785156 224.105469 C 274.859375 224.109375 273.726562 225.457031 272.265625 227.101562 Z M 215.757812 233.28125 C 215.800781 233.273438 213.921875 236.410156 211.582031 240.242188 C 205.421875 250.339844 204.074219 251.988281 197.460938 257.570312 C 194.261719 260.265625 191.066406 263.238281 190.355469 264.171875 C 189.644531 265.105469 189.011719 265.671875 188.949219 265.429688 C 188.808594 264.875 189.964844 262.980469 192.113281 260.253906 C 193.035156 259.078125 194.867188 256.351562 196.1875 254.1875 C 198.933594 249.691406 204.238281 243.738281 211.054688 237.511719 C 213.597656 235.191406 215.714844 233.285156 215.757812 233.28125 Z M 182.226562 276.613281 L 179.976562 280.25 L 179.234375 279.023438 C 178.292969 277.472656 178.296875 277.464844 179.605469 277.578125 C 181.0625 277.710938 182.402344 275.789062 182.660156 273.195312 C 182.957031 270.25 182.621094 269.273438 179.96875 265.40625 C 178.617188 263.441406 177.332031 261.550781 177.105469 261.203125 C 176.878906 260.859375 177.242188 261.023438 177.914062 261.574219 C 179.332031 262.734375 180.128906 262.878906 180.867188 262.113281 C 181.570312 261.382812 180.527344 255.808594 179.15625 252.933594 C 178.050781 250.621094 169.769531 239.859375 167.128906 237.304688 C 166.183594 236.386719 162.75 234.070312 159.507812 232.15625 C 156.09375 230.140625 152.46875 227.632812 150.914062 226.207031 C 144.484375 220.316406 138.398438 215.292969 135.84375 213.769531 C 133.335938 212.269531 133.074219 211.988281 132.894531 210.558594 C 132.652344 208.644531 129.027344 198.808594 127.351562 195.523438 C 126.679688 194.207031 125.285156 191.125 124.25 188.675781 C 122.261719 183.96875 120.886719 181.855469 119.765625 181.773438 C 118.804688 181.703125 119.371094 180.902344 123.578125 176.398438 C 125.492188 174.34375 127.699219 171.695312 128.484375 170.511719 C 130.734375 167.101562 133.972656 159.84375 133.769531 158.667969 C 133.609375 157.746094 133.6875 157.683594 134.628906 157.996094 C 136.339844 158.5625 138.828125 157.847656 140.167969 156.40625 C 141.355469 155.121094 141.386719 155.113281 141.902344 155.976562 C 142.546875 157.0625 145.289062 158.601562 146.796875 158.726562 C 147.613281 158.792969 147.902344 159.023438 147.863281 159.570312 C 147.792969 160.53125 148.824219 161.613281 150.269531 162.089844 C 150.972656 162.324219 151.734375 163.097656 152.292969 164.144531 C 152.78125 165.066406 154.003906 166.476562 155.003906 167.273438 C 157.742188 169.453125 158.652344 170.734375 160.230469 174.636719 C 163.148438 181.867188 165.558594 183.75 174.910156 186.117188 C 181.949219 187.898438 184.664062 188.035156 186.34375 186.691406 C 186.964844 186.191406 187.667969 185.378906 187.902344 184.882812 L 188.332031 183.980469 L 189.863281 185.164062 C 190.726562 185.835938 191.820312 186.324219 192.382812 186.289062 C 193.007812 186.257812 193.851562 186.699219 194.667969 187.5 C 195.835938 188.636719 196.175781 188.757812 198.039062 188.675781 C 200.824219 188.554688 204.792969 186.890625 207.035156 184.898438 C 209.910156 182.347656 212.316406 178.09375 215.671875 169.636719 C 218.671875 162.0625 218.980469 160.714844 217.839844 160.175781 C 217.417969 159.976562 217.621094 159.601562 218.652344 158.660156 C 221.613281 155.949219 223.484375 152.640625 224.476562 148.355469 L 224.835938 146.800781 L 225.835938 148.660156 C 226.382812 149.683594 227.078125 150.753906 227.378906 151.042969 C 228.550781 152.15625 229.898438 152.242188 231.96875 151.332031 C 234.410156 150.257812 234.382812 150.261719 234.308594 151.261719 C 234.246094 152.109375 235.695312 153.53125 238.460938 155.328125 C 239.550781 156.03125 240.414062 157.019531 240.847656 158.054688 C 241.222656 158.949219 242.425781 160.8125 243.523438 162.195312 C 246.117188 165.480469 246.464844 167.347656 245.875 174.933594 C 245.300781 182.363281 243.496094 189.640625 240.921875 194.894531 C 238.382812 200.078125 232.359375 211.386719 229.96875 215.457031 C 227.398438 219.835938 224.101562 223.585938 221.042969 225.605469 C 216.769531 228.429688 203.855469 240.128906 199.421875 245.191406 C 197.101562 247.839844 194.492188 251.308594 193.621094 252.890625 C 192.75 254.476562 191.027344 257.085938 189.789062 258.691406 C 186.773438 262.59375 185.539062 265.375 184.953125 269.550781 C 184.519531 272.640625 184.25 273.335938 182.226562 276.613281 Z M 180.6875 292.460938 C 180.523438 291.996094 180.429688 291.15625 180.472656 290.597656 C 180.542969 289.664062 180.574219 289.648438 180.839844 290.417969 C 180.996094 290.882812 181.09375 291.71875 181.050781 292.28125 C 180.984375 293.210938 180.949219 293.226562 180.6875 292.460938 Z M 177.101562 272.363281 C 175.792969 271.199219 173.089844 268.929688 171.09375 267.3125 C 164.550781 262.015625 161.613281 259.398438 156.980469 254.757812 C 151.925781 249.691406 151.4375 249.125 146.238281 242.261719 C 144.242188 239.628906 142.320312 237.195312 141.96875 236.859375 C 140.738281 235.675781 135.257812 228.507812 135.605469 228.535156 C 135.796875 228.550781 138.046875 231.125 140.601562 234.253906 C 145.667969 240.457031 149.777344 243.992188 158.253906 249.429688 C 168.589844 256.058594 171.941406 258.914062 175.855469 264.425781 C 180.007812 270.273438 180.6875 271.917969 179.773438 273.859375 C 179.546875 274.347656 178.996094 274.039062 177.101562 272.363281 Z M 152.035156 241.496094 C 152.027344 241.613281 151.191406 241.050781 150.175781 240.25 C 148.257812 238.730469 138.664062 228.023438 138.707031 227.445312 C 138.777344 226.535156 142.566406 230.164062 147.046875 235.417969 C 149.796875 238.648438 152.042969 241.386719 152.035156 241.496094 Z M 131.105469 218.0625 C 128.933594 215.457031 126.5 212.445312 125.703125 211.371094 C 124.902344 210.296875 122.511719 207.285156 120.386719 204.683594 C 116.621094 200.074219 116.527344 199.902344 116.664062 198.042969 C 116.820312 195.851562 119.082031 187.054688 119.472656 187.097656 C 119.617188 187.113281 120.3125 188.101562 121.011719 189.296875 C 125.078125 196.226562 130.242188 208.742188 130.058594 211.21875 C 129.902344 213.300781 130.273438 213.75 133.878906 215.910156 C 137.148438 217.871094 140.636719 220.691406 148.261719 227.539062 C 152.277344 231.148438 154.542969 232.753906 158.707031 234.933594 C 163.734375 237.5625 165.648438 239.332031 171.226562 246.535156 C 175.804688 252.4375 177.945312 256.058594 177.492188 257.117188 C 177.402344 257.316406 176.015625 256.546875 174.40625 255.402344 C 172.800781 254.261719 169.003906 251.835938 165.980469 250.011719 L 160.476562 246.691406 L 151.96875 236.871094 C 147.289062 231.472656 142.84375 226.617188 142.09375 226.085938 C 141.34375 225.550781 140.085938 224.445312 139.296875 223.625 C 137.859375 222.125 136.394531 221.648438 135.523438 222.394531 C 135.191406 222.679688 133.902344 221.417969 131.105469 218.0625 Z M 133.058594 225.058594 C 132.945312 225.050781 132.546875 224.652344 132.175781 224.171875 C 131.800781 223.695312 131.589844 223.308594 131.699219 223.316406 C 131.8125 223.324219 132.210938 223.722656 132.582031 224.203125 C 132.957031 224.683594 133.171875 225.066406 133.058594 225.058594 Z M 128.613281 220.285156 C 126.988281 219.144531 122.484375 214.097656 120.523438 211.21875 C 119.171875 209.234375 117.496094 205.832031 117.882812 205.859375 C 117.976562 205.867188 119.777344 208.175781 121.886719 210.984375 C 123.996094 213.796875 126.667969 217.246094 127.828125 218.652344 C 129.636719 220.851562 129.746094 221.078125 128.613281 220.285156 Z M 182.167969 175.121094 C 181.8125 173.230469 182.027344 166.28125 182.441406 166.3125 C 182.539062 166.320312 183.027344 167.417969 183.535156 168.757812 C 185.417969 173.742188 186.582031 180.488281 185.832031 182.078125 C 185.550781 182.675781 185.421875 182.628906 184.78125 181.679688 C 183.628906 179.980469 182.597656 177.386719 182.167969 175.121094 Z M 192.046875 179.96875 C 192.1875 181.429688 192.164062 182.746094 191.996094 182.890625 C 191.828125 183.039062 191.261719 182.691406 190.738281 182.121094 C 189.902344 181.214844 189.816406 180.746094 190 178.199219 C 190.140625 176.207031 189.992188 174.738281 189.527344 173.46875 C 189.15625 172.457031 188.882812 171.234375 188.921875 170.753906 C 189.050781 169.175781 191.789062 177.242188 192.046875 179.96875 Z M 250.277344 142.628906 C 250.398438 142.761719 250.667969 144.539062 250.871094 146.578125 C 251.9375 157.253906 251.597656 168.085938 249.976562 175.203125 C 249.476562 177.40625 249.015625 179.25 248.957031 179.304688 C 248.894531 179.355469 249.105469 175.503906 249.421875 170.746094 C 249.738281 165.992188 249.996094 159.417969 249.992188 156.144531 C 249.976562 145.527344 250.042969 142.386719 250.277344 142.628906 Z M 421.285156 124.542969 C 418.171875 126.359375 410.195312 129.320312 406.09375 130.179688 C 400.929688 131.257812 393.601562 132.128906 386 132.566406 C 371.941406 133.375 363.003906 135.695312 352.066406 141.386719 C 347.894531 143.554688 344.824219 146.210938 340.894531 151.046875 C 339.445312 152.832031 336.929688 155.578125 335.308594 157.152344 C 333.6875 158.726562 331.179688 161.402344 329.734375 163.101562 C 328.289062 164.800781 325.371094 168.003906 323.25 170.21875 C 321.128906 172.429688 317.761719 176.0625 315.773438 178.285156 C 313.78125 180.507812 309.804688 184.648438 306.929688 187.480469 C 300.339844 193.984375 297.1875 197.636719 294.375 202.015625 C 293.152344 203.921875 291.601562 206.175781 290.925781 207.03125 C 290.253906 207.882812 289.226562 209.378906 288.648438 210.351562 C 288.070312 211.324219 286.910156 212.738281 286.066406 213.496094 C 284.679688 214.742188 284.40625 214.832031 283.148438 214.449219 C 280.710938 213.703125 273.074219 215.289062 262.203125 218.800781 C 253.53125 221.597656 250.929688 221.945312 241.191406 221.59375 C 236.460938 221.425781 231.933594 221.441406 231.128906 221.632812 C 228.988281 222.144531 228.980469 222.121094 230.578125 219.867188 C 231.382812 218.730469 233.40625 215.230469 235.074219 212.089844 C 236.742188 208.953125 239.171875 204.433594 240.476562 202.046875 C 241.78125 199.660156 243.476562 196.40625 244.25 194.820312 C 245.023438 193.234375 246.613281 190.359375 247.785156 188.425781 C 251.976562 181.511719 254.203125 171.71875 254.21875 160.128906 C 254.234375 149.328125 253.152344 139.507812 251.65625 136.878906 C 250.742188 135.269531 249.492188 134.816406 248.453125 135.710938 C 247.53125 136.503906 247.160156 141.230469 247.273438 150.808594 C 247.320312 154.652344 247.292969 158.707031 247.214844 159.820312 L 247.074219 161.84375 L 245.570312 160.140625 C 244.742188 159.203125 243.839844 157.851562 243.5625 157.136719 C 242.925781 155.488281 241.429688 153.875 239.058594 152.265625 C 238.039062 151.574219 237.210938 150.882812 237.222656 150.730469 C 237.234375 150.578125 237.5625 150.058594 237.953125 149.585938 C 238.339844 149.109375 238.632812 148.304688 238.597656 147.796875 C 238.488281 146.160156 236.1875 146.191406 232.761719 147.875 C 229.214844 149.617188 229.171875 149.59375 227.335938 144.707031 C 226.210938 141.707031 225.886719 141.210938 225.011719 141.144531 C 223.597656 141.039062 222.753906 142.335938 222.207031 145.453125 C 221.527344 149.335938 220.382812 152.207031 218.59375 154.507812 C 216.382812 157.355469 215.066406 158.191406 209.449219 160.335938 C 202.289062 163.070312 202.429688 162.996094 202.351562 164.070312 C 202.207031 165.992188 203.195312 166.078125 209.085938 164.644531 C 212.117188 163.910156 214.675781 163.398438 214.773438 163.507812 C 214.867188 163.621094 213.992188 166.203125 212.828125 169.246094 C 210.351562 175.710938 207.449219 180.898438 205.238281 182.816406 C 203.386719 184.417969 200.34375 185.707031 198.089844 185.839844 C 196.605469 185.929688 196.441406 185.832031 195.890625 184.542969 C 195.5625 183.777344 195.070312 180.078125 194.792969 176.328125 C 194.476562 172.074219 194.023438 168.859375 193.582031 167.785156 C 192.667969 165.5625 190.382812 162.796875 189.394531 162.722656 C 188.933594 162.6875 188.554688 162.285156 188.457031 161.730469 C 188.367188 161.214844 187.453125 158.84375 186.421875 156.457031 C 184.34375 151.628906 184.207031 149.925781 185.628906 146.546875 C 187.074219 143.121094 193.324219 133.796875 198.679688 127.070312 C 202.917969 121.753906 204.953125 119.605469 209.238281 115.949219 C 215.746094 110.394531 218.964844 108.121094 226 104.101562 C 237.816406 97.359375 242.457031 96.28125 257.683594 96.757812 C 274.214844 97.273438 284.480469 96.066406 307.996094 90.855469 C 317.863281 88.667969 330.464844 86.339844 346.09375 83.816406 C 358.71875 81.777344 365.558594 80.902344 377.554688 79.789062 C 389.121094 78.710938 393.875 78.058594 399.027344 76.835938 C 403.027344 75.886719 403.992188 75.339844 403.648438 74.203125 C 403.386719 73.324219 402.25 73.292969 399.382812 74.089844 C 395.347656 75.210938 389.0625 76.09375 379.484375 76.882812 C 358.785156 78.59375 330.945312 82.957031 306.125 88.390625 C 282.625 93.535156 275.21875 94.390625 257.246094 94.054688 C 242.601562 93.78125 238.15625 94.558594 229.691406 98.894531 C 215.539062 106.140625 205.890625 113.78125 197.011719 124.769531 C 190.613281 132.695312 190.617188 132.691406 186.378906 139.570312 L 183.074219 144.933594 L 182.023438 142.703125 C 179.84375 138.066406 173.992188 132.894531 163.476562 126.3125 C 159.703125 123.945312 154.03125 120.269531 150.878906 118.136719 C 147.726562 116.007812 143.273438 113.171875 140.984375 111.84375 L 136.820312 109.417969 L 131.015625 108.695312 C 127.824219 108.296875 123.773438 108.023438 122.015625 108.085938 C 118.246094 108.222656 117.851562 108.0625 112.585938 104.238281 C 105.828125 99.328125 104.113281 98.875 86.78125 97.414062 L 74.335938 96.363281 L 69.734375 94.738281 C 67.203125 93.847656 61.519531 91.9375 57.105469 90.496094 C 27.988281 80.992188 11.34375 74.699219 6.785156 71.464844 C 4.117188 69.574219 3.039062 69.382812 2.933594 70.792969 C 2.753906 73.210938 10.941406 77.382812 28.058594 83.601562 C 30.917969 84.636719 40.652344 87.953125 49.6875 90.96875 C 58.722656 93.980469 67.464844 96.945312 69.113281 97.550781 C 71.804688 98.542969 73.582031 98.800781 86.585938 100.054688 C 103.808594 101.714844 104.386719 101.863281 110.363281 106.101562 C 117.09375 110.871094 116.21875 110.550781 123.289062 110.777344 C 134.777344 111.140625 136.476562 111.78125 149.542969 120.613281 C 153.296875 123.152344 159.023438 126.875 162.261719 128.890625 C 169.769531 133.554688 172.695312 135.800781 176.21875 139.625 C 179.796875 143.5 180.648438 145.589844 181.289062 152.058594 C 181.554688 154.789062 181.90625 157.722656 182.058594 158.574219 C 182.296875 159.878906 182.210938 160.234375 181.503906 160.84375 C 180.382812 161.808594 179.101562 167.691406 179.117188 171.796875 C 179.136719 176.644531 180.347656 180.390625 182.964844 183.703125 C 183.839844 184.808594 183.851562 184.902344 183.117188 184.886719 C 180.277344 184.832031 171.261719 182.535156 168.738281 181.222656 C 166.269531 179.941406 164.671875 177.804688 162.679688 173.128906 C 161.152344 169.542969 159.59375 167.382812 156.898438 165.109375 C 156.15625 164.488281 156.117188 164.375 156.726562 164.636719 C 157.164062 164.824219 160 165.253906 163.03125 165.589844 C 167.878906 166.125 168.617188 166.121094 169.167969 165.546875 C 169.632812 165.070312 169.699219 164.703125 169.425781 164.179688 C 169.117188 163.605469 168.117188 163.359375 164.203125 162.882812 C 159.503906 162.3125 151.515625 160.15625 151.566406 159.46875 C 151.578125 159.296875 152.296875 158.984375 153.160156 158.777344 C 157.6875 157.683594 157.246094 154.886719 152.671875 155.714844 C 151.425781 155.941406 149.328125 156.046875 148.011719 155.949219 C 145.925781 155.796875 145.488281 155.613281 144.613281 154.550781 C 144.058594 153.878906 143.441406 152.980469 143.238281 152.550781 C 142.703125 151.402344 140.683594 151.378906 139.703125 152.507812 C 136.851562 155.800781 137.09375 155.664062 134.871094 155.226562 C 133.742188 155.003906 130.015625 153.96875 126.59375 152.921875 C 123.167969 151.878906 119.765625 150.980469 119.027344 150.921875 C 116.527344 150.730469 116.632812 153.085938 119.167969 153.960938 C 123.167969 155.347656 130.261719 158.410156 130.613281 158.90625 C 130.914062 159.328125 130.582031 160.378906 129.316406 163.011719 C 126.730469 168.386719 125.546875 170.121094 121.480469 174.507812 C 114.910156 181.597656 112.867188 185.898438 112.265625 193.945312 C 111.910156 198.695312 112.480469 203.40625 113.421875 203.476562 C 113.652344 203.492188 114.226562 204.585938 114.695312 205.90625 C 115.964844 209.472656 117.875 212.664062 121.082031 216.574219 C 122.664062 218.496094 124.0625 220.539062 124.191406 221.113281 C 124.597656 222.890625 127.238281 227.152344 130.054688 230.585938 C 131.535156 232.390625 134.175781 235.726562 135.921875 238.003906 C 137.667969 240.277344 142.316406 245.929688 146.25 250.5625 C 153.996094 259.679688 162.5 267.855469 168.839844 272.277344 C 172.753906 275.003906 175.851562 278.289062 177.320312 281.269531 C 178.226562 283.113281 178.265625 283.5625 177.941406 287.960938 L 177.589844 292.675781 L 173.625 290.796875 C 168.191406 288.226562 163.042969 285.078125 159.777344 282.328125 C 151.285156 275.175781 147.128906 271.605469 143.886719 268.667969 C 141.894531 266.859375 139.527344 264.875 138.628906 264.253906 C 136.1875 262.570312 131.742188 260.746094 125.839844 259.007812 C 122.34375 257.980469 119.65625 256.910156 117.863281 255.832031 C 114.351562 253.714844 108.898438 248.785156 103.667969 242.996094 C 95.289062 233.714844 90.46875 229.238281 87.097656 227.617188 C 86.257812 227.210938 84.25 226.5 82.640625 226.039062 C 81.027344 225.578125 79.203125 224.890625 78.585938 224.511719 C 76.503906 223.230469 74.144531 219.425781 68.753906 208.640625 C 61.785156 194.707031 60.539062 192.015625 57.5 184.359375 C 53.714844 174.824219 50.984375 169.214844 47.210938 163.234375 C 45.34375 160.273438 42.929688 156.308594 41.847656 154.425781 C 40.765625 152.542969 37.585938 148.320312 34.78125 145.035156 C 29.6875 139.078125 29.675781 139.0625 24.371094 135.945312 C 21.449219 134.226562 17.269531 132.03125 15.082031 131.0625 C 10.097656 128.855469 4.980469 125.632812 -0.976562 120.953125 C -6.253906 116.808594 -6.789062 116.328125 -15.511719 107.902344 C -20.421875 103.167969 -21.917969 101.480469 -21.953125 100.652344 C -22.039062 98.5625 -24.625 99.039062 -24.785156 101.171875 C -24.886719 102.535156 -23.660156 103.9375 -15.132812 112.1875 C -8.324219 118.777344 0.300781 125.835938 5.964844 129.457031 C 7.796875 130.628906 11.175781 132.410156 13.472656 133.421875 C 15.765625 134.429688 19.863281 136.527344 22.570312 138.085938 C 27.484375 140.90625 27.5 140.917969 32.78125 147.113281 C 35.6875 150.523438 38.710938 154.472656 39.492188 155.886719 C 40.277344 157.296875 42.46875 160.914062 44.363281 163.925781 C 48.445312 170.410156 49.800781 173.164062 54.683594 184.9375 C 60.84375 199.792969 70.449219 219.292969 73.800781 223.753906 C 75.808594 226.421875 77.238281 227.320312 81.554688 228.621094 C 83.859375 229.316406 86.277344 230.382812 87.703125 231.324219 C 90.460938 233.152344 95.421875 237.976562 100.722656 243.980469 C 107.464844 251.613281 114.875 257.933594 119.1875 259.722656 C 120.542969 260.285156 123.523438 261.265625 125.816406 261.902344 C 133.164062 263.945312 136.953125 265.972656 141.53125 270.320312 C 142.769531 271.488281 145.605469 273.980469 147.835938 275.851562 C 150.070312 277.71875 153.542969 280.6875 155.558594 282.449219 C 160.414062 286.683594 165.253906 289.894531 170.816406 292.566406 C 176.875 295.472656 178.371094 296.519531 179.214844 298.421875 C 179.601562 299.292969 180.210938 300.125 180.566406 300.265625 C 180.992188 300.4375 181.238281 301.167969 181.285156 302.394531 C 181.367188 304.589844 182.589844 306.359375 184.101562 306.472656 C 185.878906 306.601562 188.757812 305.15625 192.214844 302.394531 C 194.054688 300.925781 197.804688 298.089844 200.542969 296.09375 C 205.425781 292.535156 207.066406 291.023438 213.203125 284.421875 C 215.105469 282.375 218.121094 279.84375 221.335938 277.597656 C 228.109375 272.863281 229.4375 271.710938 235.914062 264.945312 C 239.476562 261.226562 243.234375 257.820312 246.5625 255.292969 C 253.609375 249.949219 258.648438 245.515625 262.046875 241.675781 C 263.621094 239.898438 266.382812 237.054688 268.183594 235.359375 C 269.980469 233.664062 272.589844 230.972656 273.972656 229.382812 C 277.203125 225.671875 280.433594 222.441406 285.464844 217.894531 C 287.675781 215.894531 289.960938 213.472656 290.539062 212.515625 C 291.117188 211.558594 292.144531 210.078125 292.820312 209.226562 C 293.496094 208.371094 295.246094 205.832031 296.714844 203.585938 C 299.867188 198.746094 302.640625 195.574219 310.144531 188.207031 C 313.207031 185.199219 316.46875 181.839844 317.394531 180.738281 C 318.316406 179.636719 321.199219 176.492188 323.804688 173.75 C 326.402344 171.007812 330.097656 166.980469 332.007812 164.804688 C 333.917969 162.625 336.550781 159.808594 337.859375 158.546875 C 339.167969 157.28125 341.566406 154.648438 343.1875 152.6875 C 346.929688 148.175781 349.195312 146.167969 352.6875 144.273438 C 363.542969 138.375 371.746094 136.25 387.769531 135.1875 C 401.226562 134.292969 408.441406 132.957031 415.894531 129.980469 C 422.582031 127.3125 424.789062 125.972656 424.695312 124.636719 C 424.609375 123.308594 423.453125 123.277344 421.285156 124.542969 " fill-opacity="1" fill-rule="nonzero"/></g></g></g></g></g></svg>