<svg xmlns="http://www.w3.org/2000/svg" xmlns:xlink="http://www.w3.org/1999/xlink" width="500" zoomAndPan="magnify" viewBox="0 0 375 374.999991" height="500" preserveAspectRatio="xMidYMid meet" version="1.0"><defs><clipPath id="9ad7166472"><path d="M 0 28 L 375 28 L 375 321 L 0 321 Z M 0 28 " clip-rule="nonzero"/></clipPath><clipPath id="b861803cfd"><path d="M -62.460938 -5.699219 L 437.160156 31.464844 L 414.347656 338.117188 L -85.273438 300.953125 Z M -62.460938 -5.699219 " clip-rule="nonzero"/></clipPath><clipPath id="993d3c90d6"><path d="M -68.023438 69.09375 L -79.664062 225.589844 C -82.738281 266.898438 -51.742188 302.875 -10.4375 305.945312 L 338.9375 331.9375 C 380.246094 335.007812 416.222656 304.015625 419.296875 262.707031 L 430.9375 106.210938 C 434.011719 64.902344 403.015625 28.925781 361.707031 25.851562 L 12.332031 -0.136719 C -28.972656 -3.210938 -64.953125 27.785156 -68.023438 69.09375 Z M -68.023438 69.09375 " clip-rule="nonzero"/></clipPath><clipPath id="3ccc1755cf"><path d="M -62.460938 -5.699219 L 436.410156 31.410156 L 413.65625 337.316406 L -85.214844 300.203125 Z M -62.460938 -5.699219 " clip-rule="nonzero"/></clipPath><clipPath id="b00fc7903c"><path d="M -0.382812 -1.082031 L 401.257812 28.796875 L 378.503906 334.699219 L -23.136719 304.824219 Z M -0.382812 -1.082031 " clip-rule="nonzero"/></clipPath><clipPath id="caa1a0e98a"><path d="M -62.449219 -5.699219 L 491.769531 35.527344 L 469.015625 341.433594 L -85.203125 300.207031 Z M -62.449219 -5.699219 " clip-rule="nonzero"/></clipPath><clipPath id="c58a81c61f"><path d="M -62.449219 -5.671875 L 492.007812 35.574219 L 469.242188 341.613281 L -85.21875 300.367188 Z M -62.449219 -5.671875 " clip-rule="nonzero"/></clipPath><clipPath id="ab8ef89a9d"><path d="M -62.449219 -5.671875 L 491.777344 35.558594 L 469.023438 341.40625 L -85.203125 300.175781 Z M -62.449219 -5.671875 " clip-rule="nonzero"/></clipPath></defs><g clip-path="url(#9ad7166472)"><g clip-path="url(#b861803cfd)"><g clip-path="url(#993d3c90d6)"><g clip-path="url(#3ccc1755cf)"><g clip-path="url(#b00fc7903c)"><g clip-path="url(#caa1a0e98a)"><g clip-path="url(#c58a81c61f)"><g clip-path="url(#ab8ef89a9d)"><path fill="#131212" d="M 309.285156 210.585938 C 308.753906 210.875 306.933594 211.871094 305.242188 212.792969 C 303.546875 213.714844 300.140625 216.050781 297.667969 217.984375 C 295.191406 219.917969 290.859375 223.113281 288.039062 225.078125 C 282.074219 229.234375 268.578125 241.675781 264.128906 247.109375 C 260.972656 250.96875 257.191406 254.152344 251.144531 258.054688 C 249.238281 259.28125 246.351562 261.222656 244.730469 262.363281 C 243.109375 263.511719 239.304688 265.859375 236.273438 267.585938 C 229.277344 271.570312 227.582031 273.011719 220.648438 280.867188 C 206.238281 297.191406 205.800781 297.621094 199.460938 301.734375 C 197.113281 303.253906 193.902344 305.5 192.328125 306.726562 C 189.242188 309.121094 188.085938 309.523438 189.160156 307.832031 C 190.25 306.117188 189.929688 301.035156 188.460938 296.726562 C 186.960938 292.335938 187 292.082031 189.921875 286.824219 C 191.34375 284.269531 192.261719 283.175781 193.230469 282.886719 C 194.273438 282.578125 194.566406 282.179688 194.566406 281.082031 C 194.566406 280.21875 195.664062 277.894531 197.40625 275.078125 C 199.949219 270.96875 201.09375 269.753906 208.117188 263.6875 C 216.753906 256.230469 219.511719 253.023438 224.503906 244.664062 C 228.914062 237.269531 232.242188 232.292969 236.34375 226.960938 C 240.132812 222.035156 241.859375 220.96875 248.167969 219.648438 C 250.988281 219.054688 253.816406 218.988281 261.125 219.332031 C 271.960938 219.84375 277.078125 219.183594 286.921875 216.003906 C 292.757812 214.121094 308.816406 209.890625 309.746094 209.996094 C 310.023438 210.027344 309.816406 210.289062 309.285156 210.585938 Z M 298.996094 222.710938 C 297.195312 224.738281 293.945312 228.089844 291.78125 230.15625 C 289.609375 232.222656 286.308594 235.628906 284.445312 237.71875 C 279.832031 242.890625 277.800781 244.746094 269.65625 251.210938 C 265.804688 254.269531 261.417969 257.761719 259.910156 258.96875 C 258.40625 260.171875 254.558594 263.902344 251.359375 267.25 C 245.175781 273.730469 240.667969 277.691406 235.476562 281.199219 C 230.054688 284.859375 225.714844 288.660156 220.191406 294.59375 C 216.675781 298.375 212.703125 301.921875 208.390625 305.144531 C 204.8125 307.816406 200.234375 311.335938 198.21875 312.964844 C 196.199219 314.59375 193.628906 316.308594 192.5 316.785156 C 190.476562 317.632812 190.445312 317.628906 190 316.628906 C 189.753906 316.070312 189.597656 314.964844 189.65625 314.171875 C 189.773438 312.617188 190.804688 311.785156 201.707031 304.476562 C 207.40625 300.65625 209.621094 298.550781 218.441406 288.59375 C 230.296875 275.203125 230.300781 275.199219 238.378906 270.308594 C 255.441406 259.976562 262.738281 254.554688 266.828125 249.171875 C 269.796875 245.269531 284.851562 231.46875 289.820312 228.101562 C 291.753906 226.785156 295.277344 224.203125 297.644531 222.359375 C 300.011719 220.515625 302.019531 219.007812 302.109375 219.015625 C 302.199219 219.023438 300.800781 220.6875 298.996094 222.710938 Z M 229.210938 230.335938 C 229.261719 230.328125 226.941406 234.195312 224.050781 238.929688 C 216.441406 251.386719 214.78125 253.421875 206.613281 260.308594 C 202.664062 263.640625 198.714844 267.304688 197.835938 268.460938 C 196.957031 269.609375 196.175781 270.308594 196.101562 270.011719 C 195.925781 269.324219 197.355469 266.984375 200.007812 263.621094 C 201.148438 262.171875 203.410156 258.804688 205.039062 256.136719 C 208.429688 250.585938 214.980469 243.242188 223.402344 235.558594 C 226.542969 232.695312 229.15625 230.34375 229.210938 230.335938 Z M 187.796875 283.8125 L 185.023438 288.296875 L 184.101562 286.785156 C 182.941406 284.871094 182.945312 284.859375 184.5625 285.003906 C 186.359375 285.164062 188.015625 282.792969 188.335938 279.59375 C 188.703125 275.957031 188.285156 274.753906 185.007812 269.980469 C 183.34375 267.554688 181.75 265.222656 181.472656 264.792969 C 181.191406 264.367188 181.640625 264.570312 182.472656 265.25 C 184.222656 266.683594 185.207031 266.859375 186.121094 265.914062 C 186.984375 265.015625 185.699219 258.136719 184.003906 254.589844 C 182.640625 251.734375 172.410156 238.449219 169.152344 235.300781 C 167.980469 234.167969 163.746094 231.308594 159.734375 228.941406 C 155.523438 226.457031 151.046875 223.359375 149.125 221.601562 C 141.183594 214.332031 133.664062 208.132812 130.511719 206.25 C 127.410156 204.402344 127.089844 204.054688 126.867188 202.289062 C 126.570312 199.925781 122.089844 187.789062 120.023438 183.734375 C 119.195312 182.109375 117.46875 178.308594 116.191406 175.285156 C 113.734375 169.476562 112.039062 166.867188 110.652344 166.765625 C 109.464844 166.675781 110.164062 165.691406 115.359375 160.128906 C 117.726562 157.597656 120.453125 154.328125 121.417969 152.867188 C 124.195312 148.660156 128.195312 139.703125 127.941406 138.253906 C 127.746094 137.113281 127.84375 137.035156 129.007812 137.421875 C 131.117188 138.121094 134.195312 137.238281 135.847656 135.460938 C 137.316406 133.875 137.355469 133.867188 137.988281 134.929688 C 138.789062 136.269531 142.171875 138.167969 144.035156 138.324219 C 145.042969 138.40625 145.402344 138.691406 145.351562 139.367188 C 145.261719 140.554688 146.539062 141.886719 148.324219 142.476562 C 149.191406 142.765625 150.132812 143.71875 150.820312 145.011719 C 151.425781 146.148438 152.933594 147.886719 154.167969 148.871094 C 157.554688 151.5625 158.679688 153.144531 160.625 157.960938 C 164.230469 166.882812 167.207031 169.207031 178.757812 172.128906 C 187.453125 174.328125 190.804688 174.496094 192.875 172.839844 C 193.644531 172.222656 194.515625 171.21875 194.804688 170.605469 L 195.332031 169.492188 L 197.222656 170.953125 C 198.292969 171.78125 199.640625 172.382812 200.335938 172.34375 C 201.109375 172.304688 202.148438 172.851562 203.160156 173.839844 C 204.597656 175.242188 205.023438 175.390625 207.320312 175.289062 C 210.761719 175.140625 215.660156 173.082031 218.429688 170.628906 C 221.984375 167.476562 224.957031 162.230469 229.097656 151.792969 C 232.804688 142.449219 233.183594 140.785156 231.773438 140.121094 C 231.257812 139.875 231.503906 139.40625 232.777344 138.246094 C 236.4375 134.902344 238.746094 130.816406 239.972656 125.53125 L 240.414062 123.613281 L 241.648438 125.910156 C 242.324219 127.171875 243.183594 128.492188 243.554688 128.847656 C 245.003906 130.222656 246.664062 130.328125 249.222656 129.207031 C 252.238281 127.882812 252.203125 127.882812 252.113281 129.117188 C 252.035156 130.164062 253.828125 131.917969 257.242188 134.136719 C 258.585938 135.007812 259.65625 136.226562 260.191406 137.503906 C 260.652344 138.605469 262.140625 140.90625 263.492188 142.613281 C 266.699219 146.667969 267.125 148.96875 266.402344 158.332031 C 265.691406 167.5 263.460938 176.480469 260.285156 182.964844 C 257.148438 189.363281 249.710938 203.320312 246.757812 208.34375 C 243.582031 213.746094 239.511719 218.375 235.734375 220.867188 C 230.457031 224.351562 214.507812 238.789062 209.035156 245.035156 C 206.167969 248.304688 202.945312 252.582031 201.871094 254.535156 C 200.796875 256.492188 198.664062 259.714844 197.136719 261.695312 C 193.414062 266.511719 191.890625 269.941406 191.167969 275.09375 C 190.632812 278.90625 190.300781 279.769531 187.796875 283.8125 Z M 185.898438 303.367188 C 185.699219 302.792969 185.582031 301.757812 185.632812 301.066406 C 185.71875 299.917969 185.757812 299.898438 186.085938 300.847656 C 186.28125 301.417969 186.402344 302.453125 186.351562 303.148438 C 186.265625 304.296875 186.222656 304.3125 185.898438 303.367188 Z M 181.472656 278.5625 C 179.855469 277.128906 176.511719 274.328125 174.046875 272.332031 C 165.96875 265.792969 162.339844 262.566406 156.621094 256.835938 C 150.375 250.582031 149.773438 249.882812 143.347656 241.414062 C 140.882812 238.164062 138.511719 235.164062 138.074219 234.746094 C 136.554688 233.285156 129.785156 224.441406 130.214844 224.476562 C 130.453125 224.496094 133.230469 227.671875 136.386719 231.53125 C 142.644531 239.1875 147.722656 243.550781 158.191406 250.261719 C 170.957031 258.441406 175.097656 261.96875 179.929688 268.769531 C 185.058594 275.984375 185.898438 278.015625 184.769531 280.414062 C 184.488281 281.011719 183.808594 280.632812 181.472656 278.5625 Z M 150.507812 240.472656 C 150.496094 240.613281 149.46875 239.917969 148.214844 238.929688 C 145.84375 237.058594 133.996094 223.84375 134.050781 223.128906 C 134.132812 222.007812 138.816406 226.484375 144.347656 232.96875 C 147.746094 236.957031 150.519531 240.335938 150.507812 240.472656 Z M 124.660156 211.550781 C 121.976562 208.335938 118.972656 204.621094 117.984375 203.292969 C 116.996094 201.964844 114.042969 198.25 111.417969 195.039062 C 106.769531 189.347656 106.652344 189.140625 106.820312 186.839844 C 107.015625 184.140625 109.808594 173.285156 110.292969 173.335938 C 110.46875 173.351562 111.324219 174.574219 112.191406 176.050781 C 117.214844 184.601562 123.59375 200.046875 123.367188 203.105469 C 123.175781 205.671875 123.628906 206.230469 128.082031 208.894531 C 132.125 211.316406 136.433594 214.796875 145.847656 223.25 C 150.808594 227.703125 153.609375 229.679688 158.75 232.371094 C 164.960938 235.617188 167.320312 237.804688 174.214844 246.6875 C 179.867188 253.972656 182.511719 258.441406 181.949219 259.75 C 181.84375 259.996094 180.128906 259.046875 178.140625 257.636719 C 176.15625 256.226562 171.46875 253.230469 167.730469 250.980469 L 160.9375 246.882812 L 150.425781 234.765625 C 144.644531 228.097656 139.15625 222.109375 138.230469 221.453125 C 137.300781 220.792969 135.75 219.429688 134.777344 218.414062 C 133.003906 216.5625 131.191406 215.972656 130.117188 216.898438 C 129.707031 217.25 128.113281 215.6875 124.660156 211.550781 Z M 127.070312 220.183594 C 126.933594 220.171875 126.441406 219.679688 125.980469 219.089844 C 125.519531 218.5 125.257812 218.023438 125.394531 218.035156 C 125.535156 218.042969 126.023438 218.535156 126.484375 219.128906 C 126.945312 219.71875 127.210938 220.195312 127.070312 220.183594 Z M 121.578125 214.289062 C 119.574219 212.886719 114.011719 206.65625 111.589844 203.105469 C 109.917969 200.65625 107.847656 196.457031 108.328125 196.492188 C 108.445312 196.5 110.667969 199.347656 113.273438 202.816406 C 115.878906 206.28125 119.179688 210.542969 120.609375 212.277344 C 122.84375 214.992188 122.980469 215.273438 121.578125 214.289062 Z M 187.722656 158.5625 C 187.28125 156.226562 187.542969 147.652344 188.058594 147.691406 C 188.175781 147.699219 188.78125 149.054688 189.40625 150.703125 C 191.730469 156.855469 193.171875 165.183594 192.242188 167.144531 C 191.894531 167.882812 191.742188 167.824219 190.945312 166.652344 C 189.527344 164.554688 188.25 161.355469 187.722656 158.5625 Z M 199.921875 164.539062 C 200.097656 166.34375 200.066406 167.972656 199.859375 168.148438 C 199.648438 168.328125 198.949219 167.902344 198.308594 167.203125 C 197.273438 166.078125 197.167969 165.503906 197.390625 162.359375 C 197.566406 159.902344 197.382812 158.085938 196.8125 156.523438 C 196.351562 155.273438 196.015625 153.765625 196.0625 153.171875 C 196.21875 151.222656 199.601562 161.179688 199.921875 164.539062 Z M 271.832031 118.46875 C 271.984375 118.632812 272.320312 120.820312 272.570312 123.339844 C 273.886719 136.515625 273.46875 149.882812 271.46875 158.667969 C 270.847656 161.386719 270.277344 163.660156 270.207031 163.726562 C 270.132812 163.789062 270.390625 159.039062 270.78125 153.167969 C 271.171875 147.296875 271.488281 139.1875 271.480469 135.144531 C 271.464844 122.042969 271.546875 118.167969 271.832031 118.46875 Z M 483.03125 96.15625 C 479.1875 98.402344 469.339844 102.054688 464.273438 103.113281 C 457.894531 104.445312 448.839844 105.519531 439.453125 106.058594 C 422.09375 107.054688 411.050781 109.917969 397.546875 116.941406 C 392.394531 119.617188 388.601562 122.890625 383.75 128.859375 C 381.957031 131.0625 378.851562 134.453125 376.851562 136.394531 C 374.847656 138.335938 371.75 141.640625 369.964844 143.738281 C 368.183594 145.835938 364.578125 149.785156 361.957031 152.519531 C 359.339844 155.25 355.183594 159.730469 352.726562 162.472656 C 350.269531 165.214844 345.355469 170.324219 341.804688 173.824219 C 333.667969 181.847656 329.773438 186.355469 326.300781 191.757812 C 324.792969 194.109375 322.875 196.894531 322.042969 197.945312 C 321.210938 199 319.941406 200.84375 319.230469 202.046875 C 318.515625 203.246094 317.078125 204.992188 316.039062 205.925781 C 314.328125 207.464844 313.988281 207.574219 312.4375 207.101562 C 309.425781 206.183594 299.992188 208.140625 286.570312 212.46875 C 275.859375 215.921875 272.644531 216.347656 260.617188 215.914062 C 254.773438 215.707031 249.183594 215.726562 248.191406 215.964844 C 245.546875 216.59375 245.539062 216.566406 247.507812 213.785156 C 248.507812 212.378906 251.003906 208.058594 253.0625 204.1875 C 255.121094 200.316406 258.125 194.738281 259.734375 191.792969 C 261.34375 188.847656 263.441406 184.835938 264.394531 182.875 C 265.347656 180.917969 267.3125 177.367188 268.757812 174.984375 C 273.933594 166.449219 276.683594 154.367188 276.703125 140.066406 C 276.722656 126.730469 275.386719 114.613281 273.539062 111.371094 C 272.40625 109.386719 270.863281 108.824219 269.578125 109.925781 C 268.441406 110.90625 267.988281 116.738281 268.128906 128.5625 C 268.183594 133.304688 268.148438 138.308594 268.054688 139.679688 L 267.878906 142.175781 L 266.023438 140.078125 C 265 138.921875 263.886719 137.25 263.542969 136.367188 C 262.757812 134.335938 260.910156 132.34375 257.980469 130.359375 C 256.71875 129.503906 255.699219 128.652344 255.710938 128.460938 C 255.726562 128.273438 256.128906 127.636719 256.613281 127.046875 C 257.09375 126.460938 257.453125 125.46875 257.410156 124.839844 C 257.273438 122.824219 254.433594 122.859375 250.199219 124.9375 C 245.824219 127.089844 245.769531 127.058594 243.503906 121.027344 C 242.113281 117.328125 241.710938 116.714844 240.628906 116.632812 C 238.886719 116.503906 237.84375 118.101562 237.167969 121.949219 C 236.328125 126.738281 234.914062 130.28125 232.707031 133.125 C 229.976562 136.636719 228.351562 137.671875 221.414062 140.316406 C 212.570312 143.6875 212.742188 143.597656 212.644531 144.921875 C 212.46875 147.296875 213.6875 147.398438 220.960938 145.632812 C 224.707031 144.726562 227.867188 144.09375 227.988281 144.230469 C 228.105469 144.367188 227.023438 147.554688 225.585938 151.3125 C 222.527344 159.292969 218.945312 165.691406 216.210938 168.054688 C 213.925781 170.035156 210.167969 171.625 207.386719 171.789062 C 205.550781 171.898438 205.347656 171.78125 204.667969 170.1875 C 204.265625 169.242188 203.652344 164.679688 203.3125 160.050781 C 202.921875 154.800781 202.359375 150.832031 201.816406 149.507812 C 200.6875 146.761719 197.863281 143.351562 196.644531 143.261719 C 196.074219 143.21875 195.605469 142.722656 195.484375 142.035156 C 195.375 141.398438 194.246094 138.472656 192.972656 135.527344 C 190.402344 129.566406 190.234375 127.46875 191.996094 123.292969 C 193.777344 119.066406 201.492188 107.5625 208.109375 99.261719 C 213.339844 92.699219 215.859375 90.050781 221.148438 85.535156 C 229.1875 78.679688 233.15625 75.878906 241.851562 70.921875 C 256.441406 62.597656 262.171875 61.269531 280.980469 61.859375 C 301.398438 62.492188 314.074219 61.007812 343.117188 54.574219 C 355.300781 51.878906 370.863281 49.003906 390.167969 45.890625 C 405.761719 43.378906 414.203125 42.296875 429.023438 40.921875 C 443.308594 39.597656 449.175781 38.792969 455.542969 37.28125 C 460.480469 36.113281 461.671875 35.433594 461.25 34.03125 C 460.921875 32.945312 459.523438 32.910156 455.980469 33.890625 C 450.996094 35.273438 443.234375 36.363281 431.402344 37.339844 C 405.839844 39.445312 371.457031 44.832031 340.804688 51.535156 C 311.78125 57.878906 302.636719 58.9375 280.441406 58.523438 C 262.351562 58.179688 256.859375 59.144531 246.410156 64.492188 C 228.925781 73.433594 217.011719 82.859375 206.050781 96.421875 C 198.144531 106.203125 198.148438 106.195312 192.917969 114.6875 L 188.835938 121.308594 L 187.539062 118.550781 C 184.847656 112.828125 177.617188 106.445312 164.632812 98.320312 C 159.96875 95.402344 152.96875 90.863281 149.074219 88.234375 C 145.179688 85.605469 139.679688 82.105469 136.851562 80.464844 L 131.707031 77.472656 L 124.542969 76.582031 C 120.601562 76.089844 115.597656 75.75 113.425781 75.828125 C 108.769531 75.996094 108.28125 75.796875 101.777344 71.078125 C 93.433594 65.019531 91.316406 64.457031 69.910156 62.652344 L 54.539062 61.359375 L 48.855469 59.351562 C 45.730469 58.25 38.710938 55.894531 33.257812 54.113281 C -2.703125 42.386719 -23.261719 34.617188 -28.890625 30.625 C -32.183594 28.289062 -33.515625 28.058594 -33.644531 29.796875 C -33.867188 32.777344 -23.753906 37.929688 -2.617188 45.605469 C 0.914062 46.886719 12.9375 50.980469 24.097656 54.695312 C 35.253906 58.417969 46.054688 62.074219 48.089844 62.824219 C 51.414062 64.050781 53.609375 64.363281 69.667969 65.910156 C 90.9375 67.964844 91.652344 68.148438 99.035156 73.375 C 107.347656 79.265625 106.265625 78.871094 115 79.148438 C 129.1875 79.601562 131.285156 80.386719 147.421875 91.289062 C 152.0625 94.421875 159.128906 99.019531 163.128906 101.503906 C 172.402344 107.261719 176.015625 110.035156 180.371094 114.753906 C 184.789062 119.535156 185.839844 122.117188 186.632812 130.101562 C 186.964844 133.46875 187.394531 137.085938 187.585938 138.136719 C 187.878906 139.75 187.773438 140.1875 186.898438 140.9375 C 185.515625 142.132812 183.933594 149.390625 183.953125 154.457031 C 183.976562 160.441406 185.472656 165.0625 188.703125 169.152344 C 189.785156 170.515625 189.800781 170.628906 188.894531 170.613281 C 185.386719 170.542969 174.253906 167.707031 171.136719 166.089844 C 168.085938 164.507812 166.109375 161.867188 163.652344 156.101562 C 161.765625 151.671875 159.839844 149.007812 156.507812 146.203125 C 155.597656 145.433594 155.546875 145.296875 156.296875 145.621094 C 156.839844 145.851562 160.34375 146.378906 164.085938 146.792969 C 170.074219 147.457031 170.984375 147.453125 171.664062 146.742188 C 172.234375 146.152344 172.320312 145.703125 171.980469 145.058594 C 171.601562 144.347656 170.367188 144.042969 165.535156 143.457031 C 159.726562 142.753906 149.863281 140.089844 149.925781 139.242188 C 149.941406 139.027344 150.824219 138.644531 151.890625 138.386719 C 157.484375 137.039062 156.9375 133.585938 151.289062 134.609375 C 149.75 134.890625 147.160156 135.019531 145.535156 134.898438 C 142.960938 134.707031 142.417969 134.484375 141.335938 133.171875 C 140.652344 132.34375 139.886719 131.230469 139.640625 130.703125 C 138.980469 129.285156 136.484375 129.253906 135.273438 130.652344 C 131.75 134.714844 132.050781 134.546875 129.304688 134.007812 C 127.910156 133.730469 123.308594 132.453125 119.082031 131.160156 C 114.851562 129.871094 110.648438 128.761719 109.742188 128.691406 C 106.648438 128.453125 106.78125 131.359375 109.910156 132.441406 C 114.851562 134.152344 123.613281 137.933594 124.046875 138.542969 C 124.421875 139.066406 124.007812 140.363281 122.445312 143.609375 C 119.25 150.246094 117.789062 152.386719 112.769531 157.800781 C 104.652344 166.546875 102.132812 171.855469 101.390625 181.785156 C 100.949219 187.648438 101.652344 193.460938 102.816406 193.546875 C 103.101562 193.570312 103.808594 194.917969 104.390625 196.546875 C 105.960938 200.949219 108.320312 204.886719 112.28125 209.710938 C 114.230469 212.085938 115.960938 214.609375 116.121094 215.316406 C 116.625 217.507812 119.882812 222.765625 123.363281 227.003906 C 125.191406 229.230469 128.449219 233.347656 130.609375 236.160156 C 132.769531 238.96875 138.507812 245.941406 143.367188 251.660156 C 152.933594 262.914062 163.4375 273.003906 171.265625 278.457031 C 176.101562 281.824219 179.925781 285.878906 181.738281 289.558594 C 182.859375 291.832031 182.910156 292.386719 182.507812 297.816406 L 182.074219 303.632812 L 177.175781 301.316406 C 170.46875 298.144531 164.109375 294.253906 160.074219 290.859375 C 149.585938 282.035156 144.453125 277.625 140.449219 274 C 137.988281 271.773438 135.066406 269.320312 133.953125 268.554688 C 130.941406 266.476562 125.449219 264.226562 118.160156 262.082031 C 113.84375 260.8125 110.523438 259.492188 108.304688 258.160156 C 103.96875 255.550781 97.234375 249.464844 90.777344 242.320312 C 80.425781 230.863281 74.46875 225.339844 70.308594 223.335938 C 69.273438 222.835938 66.792969 221.960938 64.804688 221.394531 C 62.8125 220.824219 60.558594 219.972656 59.796875 219.503906 C 57.222656 217.921875 54.3125 213.230469 47.652344 199.917969 C 39.046875 182.722656 37.503906 179.402344 33.753906 169.949219 C 29.078125 158.183594 25.703125 151.261719 21.042969 143.882812 C 18.738281 140.222656 15.753906 135.332031 14.417969 133.011719 C 13.085938 130.6875 9.15625 125.472656 5.691406 121.421875 C -0.597656 114.066406 -0.617188 114.050781 -7.167969 110.203125 C -10.773438 108.082031 -15.9375 105.371094 -18.636719 104.175781 C -24.792969 101.453125 -31.117188 97.472656 -38.472656 91.699219 C -44.988281 86.582031 -45.648438 85.992188 -56.425781 75.59375 C -62.488281 69.746094 -64.335938 67.667969 -64.378906 66.644531 C -64.488281 64.066406 -67.683594 64.652344 -67.878906 67.285156 C -68.003906 68.96875 -66.488281 70.695312 -55.957031 80.878906 C -47.546875 89.015625 -36.894531 97.726562 -29.902344 102.191406 C -27.636719 103.636719 -23.464844 105.839844 -20.628906 107.085938 C -17.792969 108.332031 -12.734375 110.921875 -9.390625 112.839844 C -3.320312 116.328125 -3.304688 116.339844 3.21875 123.984375 C 6.8125 128.195312 10.542969 133.066406 11.511719 134.8125 C 12.480469 136.554688 15.1875 141.019531 17.527344 144.730469 C 22.570312 152.734375 24.242188 156.136719 30.273438 170.667969 C 37.882812 189 49.746094 213.0625 53.886719 218.570312 C 56.367188 221.863281 58.132812 222.96875 63.460938 224.578125 C 66.308594 225.4375 69.296875 226.75 71.054688 227.914062 C 74.460938 230.171875 80.589844 236.125 87.136719 243.53125 C 95.464844 252.957031 104.613281 260.753906 109.941406 262.960938 C 111.617188 263.65625 115.300781 264.867188 118.128906 265.652344 C 127.207031 268.171875 131.882812 270.675781 137.539062 276.039062 C 139.066406 277.484375 142.570312 280.558594 145.328125 282.867188 C 148.085938 285.175781 152.375 288.839844 154.863281 291.007812 C 160.863281 296.238281 166.839844 300.199219 173.710938 303.496094 C 181.191406 307.085938 183.039062 308.375 184.082031 310.722656 C 184.558594 311.796875 185.308594 312.824219 185.75 313.003906 C 186.277344 313.214844 186.578125 314.113281 186.636719 315.628906 C 186.738281 318.335938 188.25 320.519531 190.117188 320.65625 C 192.3125 320.820312 195.867188 319.039062 200.136719 315.628906 C 202.410156 313.816406 207.039062 310.316406 210.425781 307.851562 C 216.449219 303.460938 218.480469 301.59375 226.054688 293.445312 C 228.40625 290.921875 232.128906 287.800781 236.101562 285.027344 C 244.464844 279.1875 246.105469 277.761719 254.105469 269.417969 C 258.503906 264.824219 263.144531 260.621094 267.253906 257.507812 C 275.957031 250.910156 282.179688 245.441406 286.378906 240.703125 C 288.324219 238.507812 291.730469 234.996094 293.953125 232.902344 C 296.175781 230.8125 299.394531 227.492188 301.105469 225.53125 C 305.09375 220.953125 309.085938 216.964844 315.296875 211.355469 C 318.027344 208.882812 320.847656 205.898438 321.5625 204.714844 C 322.277344 203.535156 323.546875 201.707031 324.378906 200.65625 C 325.214844 199.601562 327.378906 196.46875 329.1875 193.695312 C 333.085938 187.722656 336.507812 183.808594 345.777344 174.71875 C 349.558594 171.007812 353.585938 166.859375 354.726562 165.5 C 355.867188 164.140625 359.429688 160.261719 362.644531 156.875 C 365.855469 153.492188 370.414062 148.523438 372.773438 145.835938 C 375.132812 143.148438 378.386719 139.675781 380.003906 138.117188 C 381.617188 136.554688 384.578125 133.304688 386.582031 130.886719 C 391.203125 125.320312 394 122.839844 398.3125 120.503906 C 411.722656 113.222656 421.847656 110.601562 441.640625 109.292969 C 458.261719 108.1875 467.167969 106.542969 476.375 102.867188 C 484.636719 99.578125 487.359375 97.921875 487.246094 96.273438 C 487.136719 94.636719 485.710938 94.59375 483.03125 96.15625 " fill-opacity="1" fill-rule="nonzero"/></g></g></g></g></g></g></g></g></svg>